{
copyright = "Copyright 2016-2022 Indian Type Foundry. All rights reserved.";
designer = "Parimal Parmar";
designerURL = "https://www.indiantypefoundry.com/designers";
familyName = "Kumar One";
customParameters = (
{
name = glyphOrder;
value = (
A,
Aacute,
Abreve,
Acaron,
Acircumflex,
Adieresis,
Agrave,
Amacron,
Aogonek,
Aring,
Atilde,
AE,
B,
C,
Cacute,
Ccaron,
Ccedilla,
Cdotaccent,
D,
Eth,
Dcaron,
Dcroat,
E,
Eacute,
Ecaron,
Ecircumflex,
Edieresis,
Edotaccent,
Egrave,
Emacron,
Eogonek,
F,
G,
Gbreve,
Gdotaccent,
H,
Hbar,
I,
Iacute,
Icircumflex,
Idieresis,
Idotaccent,
Igrave,
Imacron,
Iogonek,
Itilde,
J,
K,
L,
Lacute,
Lcaron,
Lslash,
M,
N,
Nacute,
Ncaron,
Eng,
Ntilde,
O,
Oacute,
Ocaron,
Ocircumflex,
Odieresis,
Ograve,
Ohungarumlaut,
Omacron,
Oslash,
Otilde,
OE,
P,
Thorn,
Q,
R,
Racute,
Rcaron,
S,
Sacute,
Scaron,
T,
Tbar,
Tcaron,
U,
Uacute,
Ucircumflex,
Udieresis,
Ugrave,
Uhungarumlaut,
Umacron,
Uogonek,
Uring,
Utilde,
V,
W,
Wacute,
Wcircumflex,
Wdieresis,
Wgrave,
X,
Y,
Yacute,
Ycircumflex,
Ydieresis,
Ygrave,
Z,
Zacute,
Zcaron,
Zdotaccent,
a,
aacute,
abreve,
acaron,
acircumflex,
adieresis,
agrave,
amacron,
aogonek,
aring,
atilde,
ae,
b,
c,
cacute,
ccaron,
ccedilla,
cdotaccent,
d,
eth,
dcaron,
dcroat,
e,
eacute,
ecaron,
ecircumflex,
edieresis,
edotaccent,
egrave,
emacron,
eogonek,
f,
g,
gbreve,
gdotaccent,
h,
hbar,
i,
iacute,
icircumflex,
idieresis,
igrave,
imacron,
iogonek,
itilde,
j,
k,
l,
lacute,
lcaron,
lslash,
m,
n,
nacute,
ncaron,
eng,
ntilde,
o,
oacute,
ocaron,
ocircumflex,
odieresis,
ograve,
ohungarumlaut,
omacron,
oslash,
otilde,
oe,
p,
thorn,
q,
r,
racute,
rcaron,
s,
sacute,
scaron,
germandbls,
t,
tbar,
tcaron,
u,
uacute,
ucircumflex,
udieresis,
ugrave,
uhungarumlaut,
umacron,
uogonek,
uring,
utilde,
v,
w,
wacute,
wcircumflex,
wdieresis,
wgrave,
x,
y,
yacute,
ycircumflex,
ydieresis,
ygrave,
z,
zacute,
zcaron,
zdotaccent,
a.alt,
g.alt,
y.alt,
yacute.alt,
ycircumflex.alt,
ydieresis.alt,
ygrave.alt,
zero,
one,
two,
three,
four,
five,
six,
seven,
eight,
nine,

glyphs = (
{
color = 3;
glyphname = A;
layers = (
{
guideLines = (
{
angle = 71.93;
position = "{330, 800}";
},
{
angle = 288.07;
position = "{569, 800}";
}
);
layerId = "E62E86AB-5999-4939-9B85-729D96D96523";
name = "Bold Dec 9 15, 11:16";
paths = (
{
closed = 1;
nodes = (
"624 40 LINE",
"390 760 LINE",
"535 760 LINE",
"769 40 LINE"
);
},
{
closed = 1;
nodes = (
"829 0 LINE",
"569 800 LINE",
"330 800 LINE",
"590 0 LINE"
);
},
{
closed = 1;
nodes = (
"378 800 LINE",
"330 800 LINE",
"65 0 LINE",
"113 0 LINE"
);
},
{
closed = 1;
nodes = (
"884 40 LINE",
"470 40 LINE",
"470 0 LINE",
"884 0 LINE"
);
},
{
closed = 1;
nodes = (
"233 40 LINE",
"10 40 LINE",
"10 0 LINE",
"233 0 LINE"
);
},
{
closed = 1;
nodes = (
"207 300 LINE",
"505 300 LINE",
"505 340 LINE",
"207 340 LINE"
);
}
);
width = 894;
},
{
guideLines = (
{
angle = 71.93;
position = "{373, 800}";
},
{
angle = 288.07;
position = "{564, 800}";
}
);
layerId = "DC22FA31-3913-472E-8859-7ACF2F9D1801";
paths = (
{
closed = 1;
nodes = (
"564 800 LINE",
"325 800 LINE",
"78 40 LINE",
"10 40 LINE",
"10 0 LINE",
"65 0 LINE",
"228 0 LINE",
"228 40 LINE",
"126 40 LINE",
"211 300 LINE",
"488 300 LINE",
"572 40 LINE",
"465 40 LINE",
"465 0 LINE",
"585 0 LINE",
"879 0 LINE",
"879 40 LINE",
"811 40 LINE"
);
},
{
closed = 1;
nodes = (
"349 726 LINE",
"475 340 LINE",
"224 340 LINE"
);
}
);
width = 889;
}
);
unicode = 0041;
},
{
color = 3;
glyphname = Aacute;
layers = (
{
guideLines = (
{
angle = 65.22;
position = "{513, 900}";
},
{
angle = 74.29;
position = "{439, 900}";
},
{
angle = 74.29;
position = "{383, 860}";
},
{
angle = 65.22;
position = "{539, 860}";
}
);
layerId = "1D716AA4-75E7-4DAB-B41F-0E78B55D84E7";
name = "Bold Dec 3 15, 19:02";
paths = (
{
closed = 1;
nodes = (
"578 1040 LINE",
"478 1040 LINE",
"439 900 LINE",
"513 900 LINE"
);
},
{
closed = 1;
nodes = (
"383 860 LINE",
"444 1080 LINE",
"642 1080 LINE",
"539 860 LINE"
);
}
);
width = 894;
},
{
guideLines = (
{
position = "{0, 860}";
}
);
layerId = "DC22FA31-3913-472E-8859-7ACF2F9D1801";
paths = (
{
closed = 1;
nodes = (
"564 800 LINE",
"325 800 LINE",
"78 40 LINE",
"10 40 LINE",
"10 0 LINE",
"65 0 LINE",
"228 0 LINE",
"228 40 LINE",
"126 40 LINE",
"211 300 LINE",
"488 300 LINE",
"572 40 LINE",
"465 40 LINE",
"465 0 LINE",
"585 0 LINE",
"879 0 LINE",
"879 40 LINE",
"811 40 LINE"
);
},
{
closed = 1;
nodes = (
"349 726 LINE",
"475 340 LINE",
"224 340 LINE"
);
},
{
closed = 1;
nodes = (
"473 860 LINE",
"574 1004 LINE",
"526 1004 LINE",
"425 860 LINE"
);
}
);
width = 889;
}
);
unicode = 00C1;
},
{
color = 3;
glyphname = Abreve;
layers = (
{
guideLines = (
{
position = "{0, 860}";
}
);
layerId = "DC22FA31-3913-472E-8859-7ACF2F9D1801";
paths = (
{
closed = 1;
nodes = (
"235 933 LINE",
"235 1020 LINE",
"280 1020 LINE",
"280 950 LINE",
"330 900 LINE",
"550 900 LINE",
"600 950 LINE",
"600 1020 LINE",
"645 1020 LINE",
"645 933 LINE",
"572 860 LINE",
"308 860 LINE"
);
},
{
closed = 1;
nodes = (
"811 40 LINE",
"879 40 LINE",
"879 0 LINE",
"585 0 LINE",
"465 0 LINE",
"465 40 LINE",
"572 40 LINE",
"488 300 LINE",
"211 300 LINE",
"126 40 LINE",
"228 40 LINE",
"228 0 LINE",
"65 0 LINE",
"10 0 LINE",
"10 40 LINE",
"78 40 LINE",
"325 800 LINE",
"564 800 LINE"
);
},
{
closed = 1;
nodes = (
"224 340 LINE",
"475 340 LINE",
"349 726 LINE"
);
}
);
width = 889;
}
);
unicode = 0102;
},
{
color = 3;
glyphname = Acaron;
layers = (
{
layerId = "DC22FA31-3913-472E-8859-7ACF2F9D1801";
paths = (
{
closed = 1;
nodes = (
"564 800 LINE",
"325 800 LINE",
"78 40 LINE",
"10 40 LINE",
"10 0 LINE",
"65 0 LINE",
"228 0 LINE",
"228 40 LINE",
"126 40 LINE",
"211 300 LINE",
"488 300 LINE",
"572 40 LINE",
"465 40 LINE",
"465 0 LINE",
"585 0 LINE",
"879 0 LINE",
"879 40 LINE",
"811 40 LINE"
);
},
{
closed = 1;
nodes = (
"349 726 LINE",
"475 340 LINE",
"224 340 LINE"
);
},
{
closed = 1;
nodes = (
"351 1014 LINE",
"301 1014 LINE",
"419 860 LINE",
"469 860 LINE"
);
},
{
closed = 1;
nodes = (
"587 1014 LINE",
"537 1014 LINE",
"419 860 LINE",
"469 860 LINE"
);
}
);
width = 889;
}
);
unicode = 01CD;
},
{
color = 3;
glyphname = Acircumflex;
layers = (
{
guideLines = (
{
position = "{0, 860}";
},
{
angle = 299.89;
position = "{577, 1057}";
}
);
layerId = "5F00098C-54BE-4D39-99DE-C2956BA541BD";
name = "Bold Dec 3 15, 18:53";
paths = (
{
closed = 1;
nodes = (
"381 1017 LINE",
"381 1057 LINE",
"577 1057 LINE",
"691 860 LINE",
"520 860 LINE",
"430 1017 LINE"
);
},
{
closed = 1;
nodes = (
"542 900 LINE",
"623 900 LINE",
"555 1017 LINE",
"475 1017 LINE"
);
},
{
closed = 1;
nodes = (
"370 860 LINE",
"200 860 LINE",
"314 1057 LINE",
"510 1057 LINE",
"510 1017 LINE",
"461 1017 LINE"
);
},
{
closed = 1;
nodes = (
"336 1017 LINE",
"268 900 LINE",
"348 900 LINE",
"416 1017 LINE"
);
}
);
width = 894;
},
{
guideLines = (
{
position = "{0, 860}";
},
{
angle = 299.89;
position = "{577, 1057}";
}
);
layerId = "BC6FFE8C-659D-4652-A884-F0A7A1E780D3";
name = "Bold Dec 3 15, 19:30";
paths = (
{
closed = 1;
nodes = (
"381 1017 LINE",
"381 1057 LINE",
"577 1057 LINE",
"691 860 LINE",
"520 860 LINE",
"430 1017 LINE"
);
},
{
closed = 1;
nodes = (
"542 900 LINE",
"623 900 LINE",
"555 1017 LINE",
"475 1017 LINE"
);
},
{
closed = 1;
nodes = (
"370 860 LINE",
"200 860 LINE",
"314 1057 LINE",
"510 1057 LINE",
"510 1017 LINE",
"461 1017 LINE"
);
},
{
closed = 1;
nodes = (
"336 1017 LINE",
"268 900 LINE",
"348 900 LINE",
"416 1017 LINE"
);
}
);
width = 894;
},
{
guideLines = (
{
position = "{0, 860}";
}
);
layerId = "DC22FA31-3913-472E-8859-7ACF2F9D1801";
paths = (
{
closed = 1;
nodes = (
"564 800 LINE",
"325 800 LINE",
"78 40 LINE",
"10 40 LINE",
"10 0 LINE",
"65 0 LINE",
"228 0 LINE",
"228 40 LINE",
"126 40 LINE",
"211 300 LINE",
"488 300 LINE",
"572 40 LINE",
"465 40 LINE",
"465 0 LINE",
"585 0 LINE",
"879 0 LINE",
"879 40 LINE",
"811 40 LINE"
);
},
{
closed = 1;
nodes = (
"349 726 LINE",
"475 340 LINE",
"224 340 LINE"
);
},
{
closed = 1;
nodes = (
"351 860 LINE",
"469 1014 LINE",
"419 1014 LINE",
"301 860 LINE"
);
},
{
closed = 1;
nodes = (
"587 860 LINE",
"469 1014 LINE",
"419 1014 LINE",
"537 860 LINE"
);
}
);
width = 889;
}
);
unicode = 00C2;
},
{
color = 3;
glyphname = Adieresis;
layers = (
{
guideLines = (
{
position = "{0, 860}";
},
{
position = "{0, 1044}";
}
);
layerId = "DC22FA31-3913-472E-8859-7ACF2F9D1801";
paths = (
{
closed = 1;
nodes = (
"564 800 LINE",
"325 800 LINE",
"78 40 LINE",
"10 40 LINE",
"10 0 LINE",
"65 0 LINE",
"228 0 LINE",
"228 40 LINE",
"126 40 LINE",
"211 300 LINE",
"488 300 LINE",
"572 40 LINE",
"465 40 LINE",
"465 0 LINE",
"585 0 LINE",
"879 0 LINE",
"879 40 LINE",
"811 40 LINE"
);
},
{
closed = 1;
nodes = (
"349 726 LINE",
"475 340 LINE",
"224 340 LINE"
);
},
{
closed = 1;
nodes = (
"278 937 LINE",
"335 880 LINE",
"392 937 LINE",
"335 994 LINE"
);
},
{
closed = 1;
nodes = (
"497 937 LINE",
"554 880 LINE",
"611 937 LINE",
"554 994 LINE"
);
}
);
width = 889;
}
);
unicode = 00C4;
},
{
color = 3;
glyphname = Agrave;
layers = (
{
guideLines = (
{
position = "{0, 860}";
}
);
layerId = "DC22FA31-3913-472E-8859-7ACF2F9D1801";
paths = (
{
closed = 1;
nodes = (
"564 800 LINE",
"325 800 LINE",
"78 40 LINE",
"10 40 LINE",
"10 0 LINE",
"65 0 LINE",
"228 0 LINE",
"228 40 LINE",
"126 40 LINE",
"211 300 LINE",
"488 300 LINE",
"572 40 LINE",
"465 40 LINE",
"465 0 LINE",
"585 0 LINE",
"879 0 LINE",
"879 40 LINE",
"811 40 LINE"
);
},
{
closed = 1;
nodes = (
"349 726 LINE",
"475 340 LINE",
"224 340 LINE"
);
},
{
closed = 1;
nodes = (
"421 860 LINE",
"469 860 LINE",
"378 1044 LINE",
"330 1044 LINE"
);
}
);
width = 889;
}
);
unicode = 00C0;
},
{
color = 3;
glyphname = Amacron;
layers = (
{
guideLines = (
{
position = "{0, 860}";
}
);
layerId = "DC22FA31-3913-472E-8859-7ACF2F9D1801";
paths = (
{
closed = 1;
nodes = (
"564 800 LINE",
"325 800 LINE",
"78 40 LINE",
"10 40 LINE",
"10 0 LINE",
"65 0 LINE",
"228 0 LINE",
"228 40 LINE",
"126 40 LINE",
"211 300 LINE",
"488 300 LINE",
"572 40 LINE",
"465 40 LINE",
"465 0 LINE",
"585 0 LINE",
"879 0 LINE",
"879 40 LINE",
"811 40 LINE"
);
},
{
closed = 1;
nodes = (
"349 726 LINE",
"475 340 LINE",
"224 340 LINE"
);
},
{
closed = 1;
nodes = (
"272 880 LINE",
"612 880 LINE",
"612 920 LINE",
"272 920 LINE"
);
}
);
width = 889;
}
);
unicode = 0100;
},
{
color = 3;
glyphname = Aogonek;
layers = (
{
guideLines = (
{
angle = 315;
position = "{519, -155}";
},
{
angle = 45;
position = "{663, -235}";
}
);
layerId = "20C50D77-39C7-402A-941D-A3649AF20ED0";
name = "Regular Jan 29 16, 12:10";
paths = (
{
closed = 1;
nodes = (
"624 40 LINE",
"390 760 LINE",
"535 760 LINE",
"769 40 LINE"
);
},
{
closed = 1;
nodes = (
"829 0 LINE",
"569 800 LINE",
"330 800 LINE",
"590 0 LINE"
);
},
{
closed = 1;
nodes = (
"378 800 LINE",
"330 800 LINE",
"65 0 LINE",
"113 0 LINE"
);
},
{
closed = 1;
nodes = (
"884 40 LINE",
"601 40 LINE",
"590 0 LINE",
"884 0 LINE"
);
},
{
closed = 1;
nodes = (
"233 40 LINE",
"10 40 LINE",
"10 0 LINE",
"233 0 LINE"
);
},
{
closed = 1;
nodes = (
"207 300 LINE",
"505 300 LINE",
"505 340 LINE",
"207 340 LINE"
);
},
{
closed = 1;
nodes = (
"643 -195 LINE",
"559 -195 LINE",
"519 -155 LINE",
"519 -97 LINE",
"632 16 LINE",
"601 44 LINE",
"476 -81 LINE",
"476 -172 LINE",
"539 -235 LINE",
"663 -235 LINE",
"715 -183 LINE",
"686 -152 LINE"
);
}
);
width = 894;
},
{
guideLines = (
{
angle = 45;
position = "{531, -85}";
}
);
layerId = "DC22FA31-3913-472E-8859-7ACF2F9D1801";
paths = (
{
closed = 1;
nodes = (
"10 40 LINE",
"78 40 LINE",
"325 800 LINE",
"564 800 LINE",
"811 40 LINE",
"879 40 LINE",
"879 0 LINE",
"585 0 LINE",
"488 300 LINE",
"211 300 LINE",
"126 40 LINE",
"228 40 LINE",
"228 0 LINE",
"10 0 LINE"
);
},
{
closed = 1;
nodes = (
"475 340 LINE",
"349 726 LINE",
"224 340 LINE"
);
},
{
closed = 1;
nodes = (
"698 -202 LINE",
"649 -251 LINE",
"525 -251 LINE",
"462 -188 LINE",
"462 -94 LINE",
"587 31 LINE",
"618 0 LINE",
"507 -111 LINE",
"507 -171 LINE",
"547 -211 LINE",
"627 -211 LINE",
"667 -171 LINE"
);
}
);
width = 889;
}
);
unicode = 0104;
},
{
color = 3;
glyphname = Aring;
layers = (
{
guideLines = (
{
position = "{0, 860}";
}
);
layerId = "DC22FA31-3913-472E-8859-7ACF2F9D1801";
paths = (
{
closed = 1;
nodes = (
"564 800 LINE",
"325 800 LINE",
"78 40 LINE",
"10 40 LINE",
"10 0 LINE",
"65 0 LINE",
"228 0 LINE",
"228 40 LINE",
"126 40 LINE",
"211 300 LINE",
"488 300 LINE",
"572 40 LINE",
"465 40 LINE",
"465 0 LINE",
"585 0 LINE",
"879 0 LINE",
"879 40 LINE",
"811 40 LINE"
);
},
{
closed = 1;
nodes = (
"349 726 LINE",
"475 340 LINE",
"224 340 LINE"
);
},
{
closed = 1;
nodes = (
"449 888 LINE",
"388 950 LINE",
"450 1011 LINE",
"511 949 LINE"
);
},
{
closed = 1;
nodes = (
"340 950 LINE",
"449 840 LINE",
"559 949 LINE",
"450 1059 LINE"
);
}
);
width = 889;
}
);
unicode = 00C5;
},
{
color = 3;
glyphname = Atilde;
layers = (
{
layerId = "DC22FA31-3913-472E-8859-7ACF2F9D1801";
paths = (
{
closed = 1;
nodes = (
"564 800 LINE",
"325 800 LINE",
"78 40 LINE",
"10 40 LINE",
"10 0 LINE",
"65 0 LINE",
"228 0 LINE",
"228 40 LINE",
"126 40 LINE",
"211 300 LINE",
"488 300 LINE",
"572 40 LINE",
"465 40 LINE",
"465 0 LINE",
"585 0 LINE",
"879 0 LINE",
"879 40 LINE",
"811 40 LINE"
);
},
{
closed = 1;
nodes = (
"349 726 LINE",
"475 340 LINE",
"224 340 LINE"
);
},
{
closed = 1;
nodes = (
"440 963 LINE",
"331 963 LINE",
"259 891 LINE",
"290 860 LINE",
"353 923 LINE",
"418 923 LINE",
"481 860 LINE",
"590 860 LINE",
"662 932 LINE",
"631 963 LINE",
"568 900 LINE",
"503 900 LINE"
);
}
);
width = 889;
}
);
unicode = 00C3;
},
{
color = 3;
glyphname = AE;
layers = (
{
layerId = "BE95BC71-7889-4A78-A1DE-F38F3D8AF869";
name = "Regular Jan 8 16, 11:58";
paths = (
{
closed = 1;
nodes = (
"128 20 LINE",
"602 800 LINE",
"655 800 LINE",
"181 20 LINE"
);
},
{
closed = 1;
nodes = (
"62 0 LINE",
"62 40 LINE",
"290 40 LINE",
"290 0 LINE"
);
},
{
closed = 1;
nodes = (
"651 320 LINE",
"651 280 LINE",
"315 280 LINE",
"335 320 LINE"
);
},
{
closed = 1;
nodes = (
"861 780 LINE",
"861 20 LINE",
"816 20 LINE",
"816 780 LINE"
);
},
{
closed = 1;
nodes = (
"1194 810 LINE",
"1194 560 LINE",
"1149 560 LINE",
"1149 810 LINE"
);
},
{
closed = 1;
nodes = (
"627 800 LINE",
"1111 800 LINE",
"1180 731 LINE",
"1149 700 LINE",
"1089 760 LINE",
"603 760 LINE"
);
},
{
closed = 1;
nodes = (
"631 20 LINE",
"631 780 LINE",
"676 780 LINE",
"676 20 LINE"
);
},
{
closed = 1;
nodes = (
"1119 430 LINE",
"1119 390 LINE",
"837 390 LINE",
"837 430 LINE"
);
},
{
closed = 1;
nodes = (
"1149 240 LINE",
"1194 240 LINE",
"1194 -10 LINE",
"1149 -10 LINE"
);
},
{
closed = 1;
nodes = (
"1149 100 LINE",
"1180 69 LINE",
"1111 0 LINE",
"511 0 LINE",
"511 40 LINE",
"1089 40 LINE"
);
}
);
width = 1254;
},
{
layerId = "E7339A20-C1DB-49CB-AD10-AB3805C72EDD";
name = "Bold Jan 29 16, 11:47";
paths = (
{
closed = 1;
nodes = (
"1159 110 LINE",
"1089 40 LINE",
"861 40 LINE",
"861 390 LINE",
"1119 390 LINE",
"1119 430 LINE",
"861 430 LINE",
"861 760 LINE",
"1089 760 LINE",
"1149 700 LINE",
"1149 560 LINE",
"1194 560 LINE",
"1194 810 LINE",
"1149 810 LINE",
"1149 762 LINE",
"1111 800 LINE",
"655 800 LINE",
"602 800 LINE",
"140 40 LINE",
"62 40 LINE",
"62 0 LINE",
"290 0 LINE",
"290 40 LINE",
"193 40 LINE",
"339 280 LINE",
"631 280 LINE",
"631 40 LINE",
"511 40 LINE",
"511 0 LINE",
"1111 0 LINE",
"1159 48 LINE",
"1159 0 LINE",
"1204 0 LINE",
"1204 240 LINE",
"1159 240 LINE"
);
},
{
closed = 1;
nodes = (
"631 760 LINE",
"631 320 LINE",
"363 320 LINE"
);
}
);
width = 1254;
},
{
layerId = "DC22FA31-3913-472E-8859-7ACF2F9D1801";
paths = (
{
closed = 1;
nodes = (
"10 40 LINE",
"88 40 LINE",
"550 800 LINE",
"1142 800 LINE",
"1142 560 LINE",
"1097 560 LINE",
"1097 760 LINE",
"809 760 LINE",
"809 430 LINE",
"1067 430 LINE",
"1067 390 LINE",
"809 390 LINE",
"809 40 LINE",
"1097 40 LINE",
"1097 240 LINE",
"1142 240 LINE",
"1142 0 LINE",
"459 0 LINE",
"459 40 LINE",
"579 40 LINE",
"579 280 LINE",
"287 280 LINE",
"141 40 LINE",
"238 40 LINE",
"238 0 LINE",
"10 0 LINE"
);
},
{
closed = 1;
nodes = (
"579 320 LINE",
"579 760 LINE",
"311 320 LINE"
);
}
);
width = 1202;
}
);
unicode = 00C6;
},
{
color = 3;
glyphname = B;
layers = (
{
layerId = "12807386-0D48-4409-A8F1-8A2FE88BCA74";
name = "Regular Jan 8 16, 15:51";
paths = (
{
closed = 1;
nodes = (
"320 780 LINE",
"320 20 LINE",
"275 20 LINE",
"275 780 LINE"
);
},
{
closed = 1;
nodes = (
"100 20 LINE",
"100 780 LINE",
"145 780 LINE",
"145 20 LINE"
);
},
{
closed = 1;
nodes = (
"296 390 LINE",
"296 430 LINE",
"568 430 LINE",
"648 510 LINE",
"648 690 LINE",
"578 760 LINE",
"20 760 LINE",
"20 800 LINE",
"600 800 LINE",
"693 707 LINE",
"693 493 LINE",
"590 390 LINE"
);
},
{
closed = 1;
nodes = (
"526 390 LINE",
"526 430 LINE",
"610 430 LINE",
"723 317 LINE",
"723 93 LINE",
"630 0 LINE",
"20 0 LINE",
"20 40 LINE",
"608 40 LINE",
"678 110 LINE",
"678 300 LINE",
"588 390 LINE"
);
},
{
closed = 1;
nodes = (
"508 780 LINE",
"508 20 LINE",
"463 20 LINE",
"463 780 LINE"
);
}
);
width = 783;
},
{
layerId = "C408489F-AD64-456E-A0C2-0DBD42CC29DB";
name = "Bold Nov 25 15, 16:12";
paths = (
{
closed = 1;
nodes = (
"330 780 LINE",
"330 20 LINE",
"285 20 LINE",
"285 780 LINE"
);
},
{
closed = 1;
nodes = (
"100 20 LINE",
"100 780 LINE",
"145 780 LINE",
"145 20 LINE"
);
},
{
closed = 1;
nodes = (
"306 390 LINE",
"306 430 LINE",
"498 430 LINE",
"568 500 LINE",
"568 690 LINE",
"498 760 LINE",
"20 760 LINE",
"20 800 LINE",
"520 800 LINE",
"613 707 LINE",
"613 483 LINE",
"520 390 LINE"
);
},
{
closed = 1;
nodes = (
"436 390 LINE",
"436 430 LINE",
"530 430 LINE",
"643 317 LINE",
"643 93 LINE",
"550 0 LINE",
"20 0 LINE",
"20 40 LINE",
"528 40 LINE",
"598 110 LINE",
"598 300 LINE",
"508 390 LINE"
);
}
);
width = 723;
},
{
layerId = "B6D75FD3-109D-4D98-81E8-0A16FE7A7A1B";
name = "Bold Nov 24 15, 18:12";
paths = (
{
closed = 1;
nodes = (
"330 780 LINE",
"330 20 LINE",
"285 20 LINE",
"285 780 LINE"
);
},
{
closed = 1;
nodes = (
"100 20 LINE",
"100 780 LINE",
"145 780 LINE",
"145 20 LINE"
);
},
{
closed = 1;
nodes = (
"306 390 LINE",
"306 430 LINE",
"578 430 LINE",
"648 500 LINE",
"648 690 LINE",
"578 760 LINE",
"30 760 LINE",
"30 800 LINE",
"600 800 LINE",
"693 707 LINE",
"693 483 LINE",
"600 390 LINE"
);
},
{
closed = 1;
nodes = (
"516 390 LINE",
"516 430 LINE",
"610 430 LINE",
"723 317 LINE",
"723 93 LINE",
"630 0 LINE",
"40 0 LINE",
"40 40 LINE",
"608 40 LINE",
"678 110 LINE",
"678 300 LINE",
"588 390 LINE"
);
},
{
closed = 1;
nodes = (
"498 780 LINE",
"498 20 LINE",
"453 20 LINE",
"453 780 LINE"
);
}
);
width = 723;
},
{
layerId = "C05BD468-8A16-4D46-AD88-105D038A5D1E";
name = "Bold Jan 29 16, 11:48";
paths = (
{
closed = 1;
nodes = (
"693 493 LINE",
"693 707 LINE",
"600 800 LINE",
"20 800 LINE",
"20 760 LINE",
"100 760 LINE",
"100 40 LINE",
"20 40 LINE",
"20 0 LINE",
"630 0 LINE",
"723 93 LINE",
"723 317 LINE",
"620 420 LINE"
);
},
{
closed = 1;
nodes = (
"320 760 LINE",
"463 760 LINE",
"463 430 LINE",
"320 430 LINE"
);
},
{
closed = 1;
nodes = (
"463 390 LINE",
"463 40 LINE",
"320 40 LINE",
"320 390 LINE"
);
}
);
width = 783;
},
{
layerId = "DC22FA31-3913-472E-8859-7ACF2F9D1801";
paths = (
{
closed = 1;
nodes = (
"20 40 LINE",
"100 40 LINE",
"100 760 LINE",
"20 760 LINE",
"20 800 LINE",
"610 800 LINE",
"703 707 LINE",
"703 493 LINE",
"620 410 LINE",
"703 327 LINE",
"703 93 LINE",
"610 0 LINE",
"20 0 LINE"
);
},
{
closed = 1;
nodes = (
"473 40 LINE",
"473 390 LINE",
"330 390 LINE",
"330 40 LINE"
);
},
{
closed = 1;
nodes = (
"473 430 LINE",
"473 760 LINE",
"330 760 LINE",
"330 430 LINE"
);
}
);
width = 753;
}
);
unicode = 0042;
},
{
color = 3;
glyphname = C;
layers = (
{
layerId = "E0CAD18C-3F50-4D8A-920A-F3F65F58C049";
name = "Regular Jan 8 16, 11:51";
paths = (
{
closed = 1;
nodes = (
"235 16 LINE",
"280 16 LINE",
"280 780 LINE",
"235 780 LINE"
);
},
{
closed = 1;
nodes = (
"526 760 LINE",
"619 667 LINE",
"650 699 LINE",
"548 800 LINE",
"153 800 LINE",
"50 697 LINE",
"50 103 LINE",
"153 0 LINE",
"581 0 LINE",
"670 89 LINE",
"639 120 LINE",
"559 40 LINE",
"175 40 LINE",
"95 120 LINE",
"95 680 LINE",
"175 760 LINE"
);
},
{
closed = 1;
nodes = (
"618 540 LINE",
"663 540 LINE",
"663 810 LINE",
"618 810 LINE"
);
}
);
width = 720;
},
{
layerId = "DC22FA31-3913-472E-8859-7ACF2F9D1801";
paths = (
{
closed = 1;
nodes = (
"153 0 LINE",
"571 0 LINE",
"670 99 LINE",
"639 130 LINE",
"549 40 LINE",
"280 40 LINE",
"280 760 LINE",
"526 760 LINE",
"618 668 LINE",
"618 540 LINE",
"663 540 LINE",
"663 810 LINE",
"618 810 LINE",
"618 730 LINE",
"548 800 LINE",
"153 800 LINE",
"50 697 LINE",
"50 103 LINE"
);
}
);
width = 720;
}
);
unicode = 0043;
},
{
color = 3;
glyphname = Cacute;
layers = (
{
layerId = "DC22FA31-3913-472E-8859-7ACF2F9D1801";
paths = (
{
closed = 1;
nodes = (
"153 0 LINE",
"571 0 LINE",
"670 99 LINE",
"639 130 LINE",
"549 40 LINE",
"280 40 LINE",
"280 760 LINE",
"526 760 LINE",
"618 668 LINE",
"618 540 LINE",
"663 540 LINE",
"663 810 LINE",
"618 810 LINE",
"618 730 LINE",
"548 800 LINE",
"153 800 LINE",
"50 697 LINE",
"50 103 LINE"
);
},
{
closed = 1;
nodes = (
"417 860 LINE",
"518 1004 LINE",
"470 1004 LINE",
"369 860 LINE"
);
}
);
width = 720;
}
);
unicode = 0106;
},
{
color = 3;
glyphname = Ccaron;
layers = (
{
layerId = "DC22FA31-3913-472E-8859-7ACF2F9D1801";
paths = (
{
closed = 1;
nodes = (
"153 0 LINE",
"571 0 LINE",
"670 99 LINE",
"639 130 LINE",
"549 40 LINE",
"280 40 LINE",
"280 760 LINE",
"526 760 LINE",
"618 668 LINE",
"618 540 LINE",
"663 540 LINE",
"663 810 LINE",
"618 810 LINE",
"618 730 LINE",
"548 800 LINE",
"153 800 LINE",
"50 697 LINE",
"50 103 LINE"
);
},
{
closed = 1;
nodes = (
"288 1014 LINE",
"238 1014 LINE",
"356 860 LINE",
"406 860 LINE"
);
},
{
closed = 1;
nodes = (
"524 1014 LINE",
"474 1014 LINE",
"356 860 LINE",
"406 860 LINE"
);
}
);
width = 720;
}
);
unicode = 010C;
},
{
color = 3;
glyphname = Ccedilla;
layers = (
{
layerId = "DC22FA31-3913-472E-8859-7ACF2F9D1801";
paths = (
{
closed = 1;
nodes = (
"153 0 LINE",
"571 0 LINE",
"670 99 LINE",
"639 130 LINE",
"549 40 LINE",
"280 40 LINE",
"280 760 LINE",
"526 760 LINE",
"618 668 LINE",
"618 540 LINE",
"663 540 LINE",
"663 810 LINE",
"618 810 LINE",
"618 730 LINE",
"548 800 LINE",
"153 800 LINE",
"50 697 LINE",
"50 103 LINE"
);
},
{
closed = 1;
nodes = (
"411 -50 LINE",
"366 -50 LINE",
"366 -162 LINE",
"257 -271 LINE",
"288 -302 LINE",
"411 -179 LINE"
);
}
);
width = 720;
}
);
unicode = 00C7;
},
{
color = 3;
glyphname = Cdotaccent;
layers = (
{
layerId = "DC22FA31-3913-472E-8859-7ACF2F9D1801";
paths = (
{
closed = 1;
nodes = (
"153 0 LINE",
"571 0 LINE",
"670 99 LINE",
"639 130 LINE",
"549 40 LINE",
"280 40 LINE",
"280 760 LINE",
"526 760 LINE",
"618 668 LINE",
"618 540 LINE",
"663 540 LINE",
"663 810 LINE",
"618 810 LINE",
"618 730 LINE",
"548 800 LINE",
"153 800 LINE",
"50 697 LINE",
"50 103 LINE"
);
},
{
closed = 1;
nodes = (
"311 937 LINE",
"368 880 LINE",
"425 937 LINE",
"368 994 LINE"
);
}
);
width = 720;
}
);
unicode = 010A;
},
{
color = 3;
glyphname = D;
layers = (
{
layerId = "DC22FA31-3913-472E-8859-7ACF2F9D1801";
paths = (
{
closed = 1;
nodes = (
"20 800 LINE",
"20 760 LINE",
"100 760 LINE",
"100 40 LINE",
"20 40 LINE",
"20 0 LINE",
"637 0 LINE",
"740 103 LINE",
"740 697 LINE",
"637 800 LINE"
);
},
{
closed = 1;
nodes = (
"510 40 LINE",
"330 40 LINE",
"330 760 LINE",
"510 760 LINE"
);
}
);
width = 790;
}
);
unicode = 0044;
},
{
color = 3;
glyphname = Eth;
layers = (
{
layerId = "F4179D51-8C10-43FF-B0C2-AE7D7DB14D9B";
name = "Bold Dec 5 15, 12:43";
paths = (
{
closed = 1;
nodes = (
"420 460 LINE",
"420 420 LINE",
"20 420 LINE",
"20 460 LINE"
);
}
);
width = 775;
},
{
layerId = "1D034A1F-7ADC-4183-9443-372F0A80AD6C";
name = "Regular Jan 8 16, 12:17";
width = 790;
},
{
layerId = "DC22FA31-3913-472E-8859-7ACF2F9D1801";
paths = (
{
closed = 1;
nodes = (
"420 420 LINE",
"420 460 LINE",
"20 460 LINE",
"20 420 LINE"
);
},
{
closed = 1;
nodes = (
"20 800 LINE",
"20 760 LINE",
"100 760 LINE",
"100 40 LINE",
"20 40 LINE",
"20 0 LINE",
"637 0 LINE",
"740 103 LINE",
"740 697 LINE",
"637 800 LINE"
);
},
{
closed = 1;
nodes = (
"510 40 LINE",
"330 40 LINE",
"330 760 LINE",
"510 760 LINE"
);
}
);
width = 790;
}
);
unicode = 00D0;
},
{
color = 3;
glyphname = Dcaron;
layers = (
{
layerId = "DC22FA31-3913-472E-8859-7ACF2F9D1801";
paths = (
{
closed = 1;
nodes = (
"20 800 LINE",
"20 760 LINE",
"100 760 LINE",
"100 40 LINE",
"20 40 LINE",
"20 0 LINE",
"637 0 LINE",
"740 103 LINE",
"740 697 LINE",
"637 800 LINE"
);
},
{
closed = 1;
nodes = (
"510 40 LINE",
"330 40 LINE",
"330 760 LINE",
"510 760 LINE"
);
},
{
closed = 1;
nodes = (
"303 1014 LINE",
"253 1014 LINE",
"371 860 LINE",
"421 860 LINE"
);
},
{
closed = 1;
nodes = (
"539 1014 LINE",
"489 1014 LINE",
"371 860 LINE",
"421 860 LINE"
);
}
);
width = 790;
}
);
unicode = 010E;
},
{
color = 3;
glyphname = Dcroat;
layers = (
{
layerId = "1D034A1F-7ADC-4183-9443-372F0A80AD6C";
name = "Regular Jan 8 16, 12:17";
paths = (
{
closed = 1;
nodes = (
"128 420 LINE",
"20 420 LINE",
"20 460 LINE",
"128 460 LINE"
);
},
{
closed = 1;
nodes = (
"307 460 LINE",
"420 460 LINE",
"420 420 LINE",
"307 420 LINE"
);
}
);
width = 775;
},
{
layerId = "DC22FA31-3913-472E-8859-7ACF2F9D1801";
paths = (
{
closed = 1;
nodes = (
"420 420 LINE",
"420 460 LINE",
"20 460 LINE",
"20 420 LINE"
);
},
{
closed = 1;
nodes = (
"20 800 LINE",
"20 760 LINE",
"100 760 LINE",
"100 40 LINE",
"20 40 LINE",
"20 0 LINE",
"637 0 LINE",
"740 103 LINE",
"740 697 LINE",
"637 800 LINE"
);
},
{
closed = 1;
nodes = (
"510 40 LINE",
"330 40 LINE",
"330 760 LINE",
"510 760 LINE"
);
}
);
width = 790;
}
);
unicode = 0110;
},
{
color = 3;
glyphname = E;
layers = (
{
layerId = "DEE56669-323E-4D63-8C31-87F89CF7ED8D";
name = "Regular Jan 8 16, 11:56";
paths = (
{
closed = 1;
nodes = (
"330 780 LINE",
"330 20 LINE",
"285 20 LINE",
"285 780 LINE"
);
},
{
closed = 1;
nodes = (
"663 810 LINE",
"663 560 LINE",
"618 560 LINE",
"618 810 LINE"
);
},
{
closed = 1;
nodes = (
"20 800 LINE",
"580 800 LINE",
"649 731 LINE",
"618 700 LINE",
"558 760 LINE",
"20 760 LINE"
);
},
{
closed = 1;
nodes = (
"100 20 LINE",
"100 780 LINE",
"145 780 LINE",
"145 20 LINE"
);
},
{
closed = 1;
nodes = (
"588 430 LINE",
"588 390 LINE",
"306 390 LINE",
"306 430 LINE"
);
},
{
closed = 1;
nodes = (
"618 240 LINE",
"663 240 LINE",
"663 -10 LINE",
"618 -10 LINE"
);
},
{
closed = 1;
nodes = (
"618 100 LINE",
"649 69 LINE",
"580 0 LINE",
"20 0 LINE",
"20 40 LINE",
"558 40 LINE"
);
}
);
width = 723;
},
{
guideLines = (
{
angle = 45;
position = "{568, 580}";
}
);
layerId = "1A335E33-904E-4E58-B9D5-8BFEF2EB77C1";
name = "Bold Nov 23 15, 17:26";
paths = (
{
closed = 1;
nodes = (
"568 590 LINE",
"518 640 LINE",
"135 640 LINE",
"115 620 LINE",
"115 60 LINE",
"135 40 LINE",
"518 40 LINE",
"568 90 LINE",
"599 59 LINE",
"540 0 LINE",
"113 0 LINE",
"70 43 LINE",
"70 637 LINE",
"113 680 LINE",
"540 680 LINE",
"599 621 LINE"
);
},
{
closed = 1;
nodes = (
"300 660 LINE",
"300 20 LINE",
"255 20 LINE",
"255 660 LINE"
);
},
{
closed = 1;
nodes = (
"613 690 LINE",
"613 520 LINE",
"568 520 LINE",
"568 690 LINE"
);
},
{
closed = 1;
nodes = (
"613 170 LINE",
"613 0 LINE",
"568 0 LINE",
"568 170 LINE"
);
}
);
width = 880;
},
{
layerId = "DC22FA31-3913-472E-8859-7ACF2F9D1801";
paths = (
{
closed = 1;
nodes = (
"20 40 LINE",
"100 40 LINE",
"100 760 LINE",
"20 760 LINE",
"20 800 LINE",
"663 800 LINE",
"663 570 LINE",
"618 570 LINE",
"618 760 LINE",
"330 760 LINE",
"330 430 LINE",
"588 430 LINE",
"588 390 LINE",
"330 390 LINE",
"330 40 LINE",
"618 40 LINE",
"618 230 LINE",
"663 230 LINE",
"663 0 LINE",
"20 0 LINE"
);
}
);
width = 723;
}
);
unicode = 0045;
},
{
color = 3;
glyphname = Eacute;
layers = (
{
layerId = "DC22FA31-3913-472E-8859-7ACF2F9D1801";
paths = (
{
closed = 1;
nodes = (
"20 40 LINE",
"100 40 LINE",
"100 760 LINE",
"20 760 LINE",
"20 800 LINE",
"663 800 LINE",
"663 570 LINE",
"618 570 LINE",
"618 760 LINE",
"330 760 LINE",
"330 430 LINE",
"588 430 LINE",
"588 390 LINE",
"330 390 LINE",
"330 40 LINE",
"618 40 LINE",
"618 230 LINE",
"663 230 LINE",
"663 0 LINE",
"20 0 LINE"
);
},
{
closed = 1;
nodes = (
"338 860 LINE",
"439 1004 LINE",
"487 1004 LINE",
"386 860 LINE"
);
}
);
width = 723;
}
);
unicode = 00C9;
},
{
color = 3;
glyphname = Ecaron;
layers = (
{
layerId = "DC22FA31-3913-472E-8859-7ACF2F9D1801";
paths = (
{
closed = 1;
nodes = (
"20 40 LINE",
"100 40 LINE",
"100 760 LINE",
"20 760 LINE",
"20 800 LINE",
"663 800 LINE",
"663 570 LINE",
"618 570 LINE",
"618 760 LINE",
"330 760 LINE",
"330 430 LINE",
"588 430 LINE",
"588 390 LINE",
"330 390 LINE",
"330 40 LINE",
"618 40 LINE",
"618 230 LINE",
"663 230 LINE",
"663 0 LINE",
"20 0 LINE"
);
},
{
closed = 1;
nodes = (
"408 860 LINE",
"358 860 LINE",
"240 1014 LINE",
"290 1014 LINE"
);
},
{
closed = 1;
nodes = (
"408 860 LINE",
"358 860 LINE",
"476 1014 LINE",
"526 1014 LINE"
);
}
);
width = 723;
}
);
unicode = 011A;
},
{
color = 3;
glyphname = Ecircumflex;
layers = (
{
layerId = "DC22FA31-3913-472E-8859-7ACF2F9D1801";
paths = (
{
closed = 1;
nodes = (
"20 40 LINE",
"100 40 LINE",
"100 760 LINE",
"20 760 LINE",
"20 800 LINE",
"663 800 LINE",
"663 570 LINE",
"618 570 LINE",
"618 760 LINE",
"330 760 LINE",
"330 430 LINE",
"588 430 LINE",
"588 390 LINE",
"330 390 LINE",
"330 40 LINE",
"618 40 LINE",
"618 230 LINE",
"663 230 LINE",
"663 0 LINE",
"20 0 LINE"
);
},
{
closed = 1;
nodes = (
"233 860 LINE",
"351 1014 LINE",
"401 1014 LINE",
"283 860 LINE"
);
},
{
closed = 1;
nodes = (
"469 860 LINE",
"351 1014 LINE",
"401 1014 LINE",
"519 860 LINE"
);
}
);
width = 723;
}
);
unicode = 00CA;
},
{
color = 3;
glyphname = Edieresis;
layers = (
{
layerId = "DC22FA31-3913-472E-8859-7ACF2F9D1801";
paths = (
{
closed = 1;
nodes = (
"20 40 LINE",
"100 40 LINE",
"100 760 LINE",
"20 760 LINE",
"20 800 LINE",
"663 800 LINE",
"663 570 LINE",
"618 570 LINE",
"618 760 LINE",
"330 760 LINE",
"330 430 LINE",
"588 430 LINE",
"588 390 LINE",
"330 390 LINE",
"330 40 LINE",
"618 40 LINE",
"618 230 LINE",
"663 230 LINE",
"663 0 LINE",
"20 0 LINE"
);
},
{
closed = 1;
nodes = (
"254 994 LINE",
"311 937 LINE",
"254 880 LINE",
"197 937 LINE"
);
},
{
closed = 1;
nodes = (
"473 994 LINE",
"530 937 LINE",
"473 880 LINE",
"416 937 LINE"
);
}
);
width = 723;
}
);
unicode = 00CB;
},
{
color = 3;
glyphname = Edotaccent;
layers = (
{
layerId = "DC22FA31-3913-472E-8859-7ACF2F9D1801";
paths = (
{
closed = 1;
nodes = (
"20 40 LINE",
"100 40 LINE",
"100 760 LINE",
"20 760 LINE",
"20 800 LINE",
"663 800 LINE",
"663 570 LINE",
"618 570 LINE",
"618 760 LINE",
"330 760 LINE",
"330 430 LINE",
"588 430 LINE",
"588 390 LINE",
"330 390 LINE",
"330 40 LINE",
"618 40 LINE",
"618 230 LINE",
"663 230 LINE",
"663 0 LINE",
"20 0 LINE"
);
},
{
closed = 1;
nodes = (
"379 994 LINE",
"436 937 LINE",
"379 880 LINE",
"322 937 LINE"
);
}
);
width = 723;
}
);
unicode = 0116;
},
{
color = 3;
glyphname = Egrave;
layers = (
{
layerId = "DC22FA31-3913-472E-8859-7ACF2F9D1801";
paths = (
{
closed = 1;
nodes = (
"20 40 LINE",
"100 40 LINE",
"100 760 LINE",
"20 760 LINE",
"20 800 LINE",
"663 800 LINE",
"663 570 LINE",
"618 570 LINE",
"618 760 LINE",
"330 760 LINE",
"330 430 LINE",
"588 430 LINE",
"588 390 LINE",
"330 390 LINE",
"330 40 LINE",
"618 40 LINE",
"618 230 LINE",
"663 230 LINE",
"663 0 LINE",
"20 0 LINE"
);
},
{
closed = 1;
nodes = (
"280 1044 LINE",
"328 1044 LINE",
"419 860 LINE",
"371 860 LINE"
);
}
);
width = 723;
}
);
unicode = 00C8;
},
{
color = 3;
glyphname = Emacron;
layers = (
{
layerId = "DC22FA31-3913-472E-8859-7ACF2F9D1801";
paths = (
{
closed = 1;
nodes = (
"20 40 LINE",
"100 40 LINE",
"100 760 LINE",
"20 760 LINE",
"20 800 LINE",
"663 800 LINE",
"663 570 LINE",
"618 570 LINE",
"618 760 LINE",
"330 760 LINE",
"330 430 LINE",
"588 430 LINE",
"588 390 LINE",
"330 390 LINE",
"330 40 LINE",
"618 40 LINE",
"618 230 LINE",
"663 230 LINE",
"663 0 LINE",
"20 0 LINE"
);
},
{
closed = 1;
nodes = (
"212 920 LINE",
"552 920 LINE",
"552 880 LINE",
"212 880 LINE"
);
}
);
width = 723;
}
);
unicode = 0112;
},
{
color = 3;
glyphname = Eogonek;
layers = (
{
guideLines = (
{
angle = 45;
position = "{500, -101}";
},
{
angle = 90;
position = "{618, 0}";
}
);
layerId = "20C50D77-39C7-402A-941D-A3649AF20ED0";
name = "Regular Jan 29 16, 12:10";
paths = (
{
closed = 1;
nodes = (
"736 -209 LINE",
"687 -258 LINE",
"563 -258 LINE",
"500 -195 LINE",
"500 -101 LINE",
"632 31 LINE",
"663 0 LINE",
"545 -118 LINE",
"545 -178 LINE",
"585 -218 LINE",
"665 -218 LINE",
"705 -178 LINE"
);
}
);
width = 723;
},
{
layerId = "DC22FA31-3913-472E-8859-7ACF2F9D1801";
paths = (
{
closed = 1;
nodes = (
"20 40 LINE",
"100 40 LINE",
"100 760 LINE",
"20 760 LINE",
"20 800 LINE",
"663 800 LINE",
"663 570 LINE",
"618 570 LINE",
"618 760 LINE",
"330 760 LINE",
"330 430 LINE",
"588 430 LINE",
"588 390 LINE",
"330 390 LINE",
"330 40 LINE",
"618 40 LINE",
"618 230 LINE",
"663 230 LINE",
"663 0 LINE",
"20 0 LINE"
);
},
{
closed = 1;
nodes = (
"743 -202 LINE",
"694 -251 LINE",
"570 -251 LINE",
"507 -188 LINE",
"507 -94 LINE",
"632 31 LINE",
"663 0 LINE",
"552 -111 LINE",
"552 -171 LINE",
"592 -211 LINE",
"672 -211 LINE",
"712 -171 LINE"
);
}
);
width = 723;
}
);
unicode = 0118;
},
{
color = 3;
glyphname = F;
layers = (
{
layerId = "DEE56669-323E-4D63-8C31-87F89CF7ED8D";
name = "Regular Jan 8 16, 11:56";
paths = (
{
closed = 1;
nodes = (
"410 0 LINE",
"20 0 LINE",
"20 40 LINE",
"410 40 LINE"
);
},
{
closed = 1;
nodes = (
"330 780 LINE",
"330 20 LINE",
"285 20 LINE",
"285 780 LINE"
);
},
{
closed = 1;
nodes = (
"653 810 LINE",
"653 560 LINE",
"608 560 LINE",
"608 810 LINE"
);
},
{
closed = 1;
nodes = (
"20 800 LINE",
"570 800 LINE",
"639 731 LINE",
"608 700 LINE",
"548 760 LINE",
"20 760 LINE"
);
},
{
closed = 1;
nodes = (
"100 20 LINE",
"100 780 LINE",
"145 780 LINE",
"145 20 LINE"
);
},
{
closed = 1;
nodes = (
"568 410 LINE",
"568 370 LINE",
"306 370 LINE",
"306 410 LINE"
);
}
);
width = 673;
},
{
layerId = "DC22FA31-3913-472E-8859-7ACF2F9D1801";
paths = (
{
closed = 1;
nodes = (
"20 40 LINE",
"100 40 LINE",
"100 760 LINE",
"20 760 LINE",
"20 800 LINE",
"653 800 LINE",
"653 570 LINE",
"608 570 LINE",
"608 760 LINE",
"330 760 LINE",
"330 410 LINE",
"568 410 LINE",
"568 370 LINE",
"330 370 LINE",
"330 40 LINE",
"410 40 LINE",
"410 0 LINE",
"20 0 LINE"
);
}
);
width = 673;
}
);
unicode = 0046;
},
{
color = 3;
glyphname = G;
layers = (
{
layerId = "7D49AB89-1662-4BDE-9730-ABBBAF0E8015";
name = "Regular Jan 8 16, 12:03";
paths = (
{
closed = 1;
nodes = (
"265 16 LINE",
"310 16 LINE",
"310 780 LINE",
"265 780 LINE"
);
},
{
closed = 1;
nodes = (
"510 91 LINE",
"555 91 LINE",
"555 400 LINE",
"510 400 LINE"
);
},
{
closed = 1;
nodes = (
"430 370 LINE",
"805 370 LINE",
"805 410 LINE",
"430 410 LINE"
);
},
{
closed = 1;
nodes = (
"658 560 LINE",
"703 560 LINE",
"703 810 LINE",
"658 810 LINE"
);
},
{
closed = 1;
nodes = (
"658 668 LINE",
"658 622 LINE",
"703 622 LINE",
"703 685 LINE",
"588 800 LINE",
"183 800 LINE",
"80 697 LINE",
"80 103 LINE",
"183 0 LINE",
"457 0 LINE",
"533 76 LINE",
"608 0 LINE",
"735 0 LINE",
"735 400 LINE",
"690 400 LINE",
"690 40 LINE",
"630 40 LINE",
"550 120 LINE",
"515 120 LINE",
"435 40 LINE",
"205 40 LINE",
"125 120 LINE",
"125 680 LINE",
"205 760 LINE",
"566 760 LINE"
);
}
);
width = 835;
},
{
layerId = "8929E1F7-D089-42CB-B018-247851C25AA3";
name = "Regular Jan 8 16, 12:00";
paths = (
{
closed = 1;
nodes = (
"265 16 LINE",
"310 16 LINE",
"310 780 LINE",
"265 780 LINE"
);
},
{
closed = 1;
nodes = (
"658 560 LINE",
"703 560 LINE",
"703 810 LINE",
"658 810 LINE"
);
},
{
closed = 1;
nodes = (
"510 91 LINE",
"555 91 LINE",
"555 400 LINE",
"510 400 LINE"
);
},
{
closed = 1;
nodes = (
"430 370 LINE",
"805 370 LINE",
"805 410 LINE",
"430 410 LINE"
);
},
{
closed = 1;
nodes = (
"183 0 LINE",
"457 0 LINE",
"533 76 LINE",
"608 0 LINE",
"735 0 LINE",
"735 400 LINE",
"690 400 LINE",
"690 40 LINE",
"630 40 LINE",
"550 120 LINE",
"515 120 LINE",
"435 40 LINE",
"205 40 LINE",
"125 120 LINE",
"125 680 LINE",
"205 760 LINE",
"569 760 LINE",
"659 680 LINE",
"690 712 LINE",
"591 800 LINE",
"183 800 LINE",
"80 697 LINE",
"80 103 LINE"
);
}
);
width = 835;
},
{
layerId = "7314BC60-8B41-43ED-9BD6-88DEFC8E9FE2";
name = "Bold Nov 26 15, 12:47";
paths = (
{
closed = 1;
nodes = (
"265 16 LINE",
"310 16 LINE",
"310 780 LINE",
"265 780 LINE"
);
},
{
closed = 1;
nodes = (
"668 560 LINE",
"713 560 LINE",
"713 810 LINE",
"668 810 LINE"
);
},
{
closed = 1;
nodes = (
"505 16 LINE",
"550 16 LINE",
"550 400 LINE",
"505 400 LINE"
);
},
{
closed = 1;
nodes = (
"690 400 LINE",
"690 120 LINE",
"610 40 LINE",
"205 40 LINE",
"125 120 LINE",
"125 680 LINE",
"205 760 LINE",
"579 760 LINE",
"669 680 LINE",
"700 712 LINE",
"601 800 LINE",
"183 800 LINE",
"80 697 LINE",
"80 103 LINE",
"183 0 LINE",
"632 0 LINE",
"735 103 LINE",
"735 400 LINE"
);
},
{
closed = 1;
nodes = (
"425 360 LINE",
"795 360 LINE",
"795 400 LINE",
"425 400 LINE"
);
}
);
width = 780;
},
{
layerId = "4BE087DF-24E6-4E89-BE8B-794504F49474";
name = "Bold Nov 26 15, 12:47.1";
paths = (
{
closed = 1;
nodes = (
"265 16 LINE",
"310 16 LINE",
"310 780 LINE",
"265 780 LINE"
);
},
{
closed = 1;
nodes = (
"668 560 LINE",
"713 560 LINE",
"713 810 LINE",
"668 810 LINE"
);
},
{
closed = 1;
nodes = (
"430 370 LINE",
"795 370 LINE",
"795 410 LINE",
"430 410 LINE"
);
},
{
closed = 1;
nodes = (
"183 0 LINE",
"437 0 LINE",
"533 76 LINE",
"588 0 LINE",
"735 0 LINE",
"735 400 LINE",
"690 400 LINE",
"690 40 LINE",
"610 40 LINE",
"550 120 LINE",
"515 120 LINE",
"415 40 LINE",
"205 40 LINE",
"125 120 LINE",
"125 680 LINE",
"205 760 LINE",
"579 760 LINE",
"669 680 LINE",
"700 712 LINE",
"601 800 LINE",
"183 800 LINE",
"80 697 LINE",
"80 103 LINE"
);
},
{
closed = 1;
nodes = (
"510 91 LINE",
"555 91 LINE",
"555 400 LINE",
"510 400 LINE"
);
}
);
width = 780;
},
{
layerId = "DC22FA31-3913-472E-8859-7ACF2F9D1801";
paths = (
{
closed = 1;
nodes = (
"183 0 LINE",
"457 0 LINE",
"533 76 LINE",
"608 0 LINE",
"735 0 LINE",
"735 370 LINE",
"805 370 LINE",
"805 410 LINE",
"430 410 LINE",
"430 370 LINE",
"510 370 LINE",
"510 115 LINE",
"435 40 LINE",
"310 40 LINE",
"310 760 LINE",
"566 760 LINE",
"658 668 LINE",
"658 560 LINE",
"703 560 LINE",
"703 810 LINE",
"658 810 LINE",
"658 730 LINE",
"588 800 LINE",
"183 800 LINE",
"80 697 LINE",
"80 103 LINE"
);
}
);
width = 835;
}
);
unicode = 0047;
},
{
color = 3;
glyphname = Gbreve;
layers = (
{
layerId = "DC22FA31-3913-472E-8859-7ACF2F9D1801";
paths = (
{
closed = 1;
nodes = (
"183 0 LINE",
"457 0 LINE",
"533 76 LINE",
"608 0 LINE",
"735 0 LINE",
"735 370 LINE",
"805 370 LINE",
"805 410 LINE",
"430 410 LINE",
"430 370 LINE",
"510 370 LINE",
"510 115 LINE",
"435 40 LINE",
"310 40 LINE",
"310 760 LINE",
"566 760 LINE",
"658 668 LINE",
"658 560 LINE",
"703 560 LINE",
"703 810 LINE",
"658 810 LINE",
"658 730 LINE",
"588 800 LINE",
"183 800 LINE",
"80 697 LINE",
"80 103 LINE"
);
},
{
closed = 1;
nodes = (
"285 860 LINE",
"549 860 LINE",
"622 933 LINE",
"622 1020 LINE",
"577 1020 LINE",
"577 950 LINE",
"527 900 LINE",
"307 900 LINE",
"257 950 LINE",
"257 1020 LINE",
"212 1020 LINE",
"212 933 LINE"
);
}
);
width = 835;
}
);
unicode = 011E;
},
{
color = 3;
glyphname = Gdotaccent;
layers = (
{
layerId = "DC22FA31-3913-472E-8859-7ACF2F9D1801";
paths = (
{
closed = 1;
nodes = (
"183 0 LINE",
"457 0 LINE",
"533 76 LINE",
"608 0 LINE",
"735 0 LINE",
"735 370 LINE",
"805 370 LINE",
"805 410 LINE",
"430 410 LINE",
"430 370 LINE",
"510 370 LINE",
"510 115 LINE",
"435 40 LINE",
"310 40 LINE",
"310 760 LINE",
"566 760 LINE",
"658 668 LINE",
"658 560 LINE",
"703 560 LINE",
"703 810 LINE",
"658 810 LINE",
"658 730 LINE",
"588 800 LINE",
"183 800 LINE",
"80 697 LINE",
"80 103 LINE"
);
},
{
closed = 1;
nodes = (
"359 937 LINE",
"416 880 LINE",
"473 937 LINE",
"416 994 LINE"
);
}
);
width = 835;
}
);
unicode = 0120;
},
{
color = 3;
glyphname = H;
layers = (
{
layerId = "DC22FA31-3913-472E-8859-7ACF2F9D1801";
paths = (
{
closed = 1;
nodes = (
"790 760 LINE",
"790 40 LINE",
"870 40 LINE",
"870 0 LINE",
"490 0 LINE",
"490 40 LINE",
"560 40 LINE",
"560 390 LINE",
"330 390 LINE",
"330 40 LINE",
"400 40 LINE",
"400 0 LINE",
"20 0 LINE",
"20 40 LINE",
"100 40 LINE",
"100 760 LINE",
"20 760 LINE",
"20 800 LINE",
"400 800 LINE",
"400 760 LINE",
"330 760 LINE",
"330 430 LINE",
"560 430 LINE",
"560 760 LINE",
"490 760 LINE",
"490 800 LINE",
"870 800 LINE",
"870 760 LINE"
);
}
);
width = 890;
}
);
unicode = 0048;
},
{
color = 3;
glyphname = Hbar;
layers = (
{
layerId = "DC22FA31-3913-472E-8859-7ACF2F9D1801";
paths = (
{
closed = 1;
nodes = (
"870 610 LINE",
"870 570 LINE",
"20 570 LINE",
"20 610 LINE"
);
},
{
closed = 1;
nodes = (
"790 760 LINE",
"790 40 LINE",
"870 40 LINE",
"870 0 LINE",
"490 0 LINE",
"490 40 LINE",
"560 40 LINE",
"560 390 LINE",
"330 390 LINE",
"330 40 LINE",
"400 40 LINE",
"400 0 LINE",
"20 0 LINE",
"20 40 LINE",
"100 40 LINE",
"100 760 LINE",
"20 760 LINE",
"20 800 LINE",
"400 800 LINE",
"400 760 LINE",
"330 760 LINE",
"330 430 LINE",
"560 430 LINE",
"560 760 LINE",
"490 760 LINE",
"490 800 LINE",
"870 800 LINE",
"870 760 LINE"
);
}
);
width = 890;
}
);
unicode = 0126;
},
{
color = 3;
glyphname = I;
layers = (
{
layerId = "DC22FA31-3913-472E-8859-7ACF2F9D1801";
paths = (
{
closed = 1;
nodes = (
"330 760 LINE",
"330 40 LINE",
"410 40 LINE",
"410 0 LINE",
"20 0 LINE",
"20 40 LINE",
"100 40 LINE",
"100 760 LINE",
"20 760 LINE",
"20 800 LINE",
"410 800 LINE",
"410 760 LINE"
);
}
);
width = 430;
}
);
unicode = 0049;
},
{
color = 3;
glyphname = Iacute;
layers = (
{
layerId = "DC22FA31-3913-472E-8859-7ACF2F9D1801";
paths = (
{
closed = 1;
nodes = (
"330 760 LINE",
"330 40 LINE",
"410 40 LINE",
"410 0 LINE",
"20 0 LINE",
"20 40 LINE",
"100 40 LINE",
"100 760 LINE",
"20 760 LINE",
"20 800 LINE",
"410 800 LINE",
"410 760 LINE"
);
},
{
closed = 1;
nodes = (
"198 860 LINE",
"299 1004 LINE",
"347 1004 LINE",
"246 860 LINE"
);
}
);
width = 430;
}
);
unicode = 00CD;
},
{
color = 3;
glyphname = Icircumflex;
layers = (
{
layerId = "DC22FA31-3913-472E-8859-7ACF2F9D1801";
paths = (
{
closed = 1;
nodes = (
"70 860 LINE",
"188 1014 LINE",
"238 1014 LINE",
"120 860 LINE"
);
},
{
closed = 1;
nodes = (
"306 860 LINE",
"188 1014 LINE",
"238 1014 LINE",
"356 860 LINE"
);
},
{
closed = 1;
nodes = (
"330 760 LINE",
"330 40 LINE",
"410 40 LINE",
"410 0 LINE",
"20 0 LINE",
"20 40 LINE",
"100 40 LINE",
"100 760 LINE",
"20 760 LINE",
"20 800 LINE",
"410 800 LINE",
"410 760 LINE"
);
}
);
width = 430;
}
);
unicode = 00CE;
},
{
color = 3;
glyphname = Idieresis;
layers = (
{
layerId = "DC22FA31-3913-472E-8859-7ACF2F9D1801";
paths = (
{
closed = 1;
nodes = (
"330 760 LINE",
"330 40 LINE",
"410 40 LINE",
"410 0 LINE",
"20 0 LINE",
"20 40 LINE",
"100 40 LINE",
"100 760 LINE",
"20 760 LINE",
"20 800 LINE",
"410 800 LINE",
"410 760 LINE"
);
},
{
closed = 1;
nodes = (
"106 994 LINE",
"163 937 LINE",
"106 880 LINE",
"49 937 LINE"
);
},
{
closed = 1;
nodes = (
"325 994 LINE",
"382 937 LINE",
"325 880 LINE",
"268 937 LINE"
);
}
);
width = 430;
}
);
unicode = 00CF;
},
{
color = 3;
glyphname = Idotaccent;
layers = (
{
layerId = "DC22FA31-3913-472E-8859-7ACF2F9D1801";
paths = (
{
closed = 1;
nodes = (
"330 760 LINE",
"330 40 LINE",
"410 40 LINE",
"410 0 LINE",
"20 0 LINE",
"20 40 LINE",
"100 40 LINE",
"100 760 LINE",
"20 760 LINE",
"20 800 LINE",
"410 800 LINE",
"410 760 LINE"
);
},
{
closed = 1;
nodes = (
"215 994 LINE",
"272 937 LINE",
"215 880 LINE",
"158 937 LINE"
);
}
);
width = 430;
}
);
unicode = 0130;
},
{
color = 3;
glyphname = Igrave;
layers = (
{
layerId = "DC22FA31-3913-472E-8859-7ACF2F9D1801";
paths = (
{
closed = 1;
nodes = (
"330 760 LINE",
"330 40 LINE",
"410 40 LINE",
"410 0 LINE",
"20 0 LINE",
"20 40 LINE",
"100 40 LINE",
"100 760 LINE",
"20 760 LINE",
"20 800 LINE",
"410 800 LINE",
"410 760 LINE"
);
},
{
closed = 1;
nodes = (
"110 1044 LINE",
"158 1044 LINE",
"249 860 LINE",
"201 860 LINE"
);
}
);
width = 430;
}
);
unicode = 00CC;
},
{
color = 3;
glyphname = Imacron;
layers = (
{
layerId = "DC22FA31-3913-472E-8859-7ACF2F9D1801";
paths = (
{
closed = 1;
nodes = (
"330 760 LINE",
"330 40 LINE",
"410 40 LINE",
"410 0 LINE",
"20 0 LINE",
"20 40 LINE",
"100 40 LINE",
"100 760 LINE",
"20 760 LINE",
"20 800 LINE",
"410 800 LINE",
"410 760 LINE"
);
},
{
closed = 1;
nodes = (
"40 920 LINE",
"380 920 LINE",
"380 880 LINE",
"40 880 LINE"
);
}
);
width = 430;
}
);
unicode = 012A;
},
{
color = 3;
glyphname = Iogonek;
layers = (
{
layerId = "DC22FA31-3913-472E-8859-7ACF2F9D1801";
paths = (
{
closed = 1;
nodes = (
"330 760 LINE",
"330 40 LINE",
"410 40 LINE",
"410 0 LINE",
"20 0 LINE",
"20 40 LINE",
"100 40 LINE",
"100 760 LINE",
"20 760 LINE",
"20 800 LINE",
"410 800 LINE",
"410 760 LINE"
);
},
{
closed = 1;
nodes = (
"346 -196 LINE",
"297 -245 LINE",
"173 -245 LINE",
"110 -182 LINE",
"110 -88 LINE",
"235 37 LINE",
"266 6 LINE",
"155 -105 LINE",
"155 -165 LINE",
"195 -205 LINE",
"275 -205 LINE",
"315 -165 LINE"
);
}
);
width = 430;
}
);
unicode = 012E;
},
{
color = 3;
glyphname = Itilde;
layers = (
{
layerId = "DC22FA31-3913-472E-8859-7ACF2F9D1801";
paths = (
{
closed = 1;
nodes = (
"330 760 LINE",
"330 40 LINE",
"410 40 LINE",
"410 0 LINE",
"20 0 LINE",
"20 40 LINE",
"100 40 LINE",
"100 760 LINE",
"20 760 LINE",
"20 800 LINE",
"410 800 LINE",
"410 760 LINE"
);
},
{
closed = 1;
nodes = (
"258 900 LINE",
"323 900 LINE",
"386 963 LINE",
"417 932 LINE",
"345 860 LINE",
"236 860 LINE",
"173 923 LINE",
"108 923 LINE",
"45 860 LINE",
"14 891 LINE",
"86 963 LINE",
"195 963 LINE"
);
}
);
width = 430;
}
);
unicode = 0128;
},
{
color = 3;
glyphname = J;
layers = (
{
guideLines = (
{
angle = 45;
position = "{-90, -67}";
}
);
layerId = "DC22FA31-3913-472E-8859-7ACF2F9D1801";
paths = (
{
closed = 1;
nodes = (
"-77 -180 LINE",
"242 -180 LINE",
"335 -87 LINE",
"335 760 LINE",
"405 760 LINE",
"405 800 LINE",
"25 800 LINE",
"25 760 LINE",
"105 760 LINE",
"105 -140 LINE",
"-55 -140 LINE",
"-139 -56 LINE",
"-170 -87 LINE"
);
}
);
width = 425;
}
);
unicode = 004A;
},
{
color = 3;
glyphname = K;
layers = (
{
guideLines = (
{
angle = 296.;
position = "{613, 420}";
}
);
layerId = "90F70222-143B-4DFD-ACF4-482A8E6309CC";
name = "Outlined Apr 7 16, 14:53";
paths = (
{
closed = 1;
nodes = (
"330 780 LINE",
"330 20 LINE",
"285 20 LINE",
"285 780 LINE"
);
},
{
closed = 1;
nodes = (
"100 20 LINE",
"100 780 LINE",
"145 780 LINE",
"145 20 LINE"
);
},
{
closed = 1;
nodes = (
"400 760 LINE",
"20 760 LINE",
"20 800 LINE",
"400 800 LINE"
);
},
{
closed = 1;
nodes = (
"400 0 LINE",
"20 0 LINE",
"20 40 LINE",
"400 40 LINE"
);
},
{
closed = 1;
nodes = (
"583 380 LINE",
"749 40 LINE",
"579 40 LINE",
"413 380 LINE"
);
},
{
closed = 1;
nodes = (
"365 381 LINE",
"551 0 LINE",
"818 0 LINE",
"613 420 LINE",
"365 420 LINE"
);
},
{
closed = 1;
nodes = (
"696 800 LINE",
"696 760 LINE",
"421 420 LINE",
"365 420 LINE",
"673 800 LINE"
);
},
{
closed = 1;
nodes = (
"798 760 LINE",
"552 760 LINE",
"552 800 LINE",
"798 800 LINE"
);
},
{
closed = 1;
nodes = (
"753 0 LINE",
"868 0 LINE",
"868 40 LINE",
"753 40 LINE"
);
}
);
width = 858;
},
{
layerId = "97127B4D-4373-4FD2-920E-57E03EEEDD67";
name = "Bold Nov 26 15, 12:33";
paths = (
{
closed = 1;
nodes = (
"330 780 LINE",
"330 20 LINE",
"285 20 LINE",
"285 780 LINE"
);
},
{
closed = 1;
nodes = (
"100 20 LINE",
"100 780 LINE",
"145 780 LINE",
"145 20 LINE"
);
},
{
closed = 1;
nodes = (
"400 760 LINE",
"20 760 LINE",
"20 800 LINE",
"400 800 LINE"
);
},
{
closed = 1;
nodes = (
"400 0 LINE",
"20 0 LINE",
"20 40 LINE",
"400 40 LINE"
);
},
{
closed = 1;
nodes = (
"568 380 LINE",
"740 40 LINE",
"585 40 LINE",
"413 380 LINE"
);
},
{
closed = 1;
nodes = (
"365 381 LINE",
"555 0 LINE",
"797 0 LINE",
"802 7 LINE",
"598 420 LINE",
"365 420 LINE"
);
},
{
closed = 1;
nodes = (
"693 800 LINE",
"693 760 LINE",
"421 420 LINE",
"365 420 LINE",
"670 800 LINE"
);
},
{
closed = 1;
nodes = (
"765 760 LINE",
"547 760 LINE",
"547 800 LINE",
"765 800 LINE"
);
},
{
closed = 1;
nodes = (
"744 0 LINE",
"833 0 LINE",
"833 40 LINE",
"744 40 LINE"
);
}
);
width = 863;
},
{
guideLines = (
{
angle = 296.;
position = "{548, 580}";
}
);
layerId = "AE227841-35D8-4A2A-AA17-46849BD81F72";
name = "Bold Dec 11 15, 16:16";
paths = (
{
closed = 1;
nodes = (
"330 780 LINE",
"330 20 LINE",
"285 20 LINE",
"285 780 LINE"
);
},
{
closed = 1;
nodes = (
"100 20 LINE",
"100 780 LINE",
"145 780 LINE",
"145 20 LINE"
);
},
{
closed = 1;
nodes = (
"400 760 LINE",
"20 760 LINE",
"20 800 LINE",
"400 800 LINE"
);
},
{
closed = 1;
nodes = (
"400 0 LINE",
"20 0 LINE",
"20 40 LINE",
"400 40 LINE"
);
},
{
closed = 1;
nodes = (
"583 380 LINE",
"749 40 LINE",
"579 40 LINE",
"413 380 LINE"
);
},
{
closed = 1;
nodes = (
"365 381 LINE",
"551 0 LINE",
"818 0 LINE",
"613 420 LINE",
"365 420 LINE"
);
},
{
closed = 1;
nodes = (
"696 800 LINE",
"696 760 LINE",
"421 420 LINE",
"365 420 LINE",
"673 800 LINE"
);
},
{
closed = 1;
nodes = (
"788 760 LINE",
"552 760 LINE",
"552 800 LINE",
"788 800 LINE"
);
},
{
closed = 1;
nodes = (
"753 0 LINE",
"868 0 LINE",
"868 40 LINE",
"753 40 LINE"
);
}
);
width = 858;
},
{
guideLines = (
{
angle = 296.;
position = "{613, 420}";
}
);
layerId = "DC22FA31-3913-472E-8859-7ACF2F9D1801";
paths = (
{
closed = 1;
nodes = (
"400 760 LINE",
"400 800 LINE",
"20 800 LINE",
"20 760 LINE",
"100 760 LINE",
"100 40 LINE",
"20 40 LINE",
"20 0 LINE",
"400 0 LINE",
"400 40 LINE",
"330 40 LINE",
"330 760 LINE"
);
},
{
closed = 1;
nodes = (
"613 420 LINE",
"421 420 LINE",
"696 760 LINE",
"798 760 LINE",
"798 800 LINE",
"696 800 LINE",
"552 800 LINE",
"552 760 LINE",
"641 760 LINE",
"365 420 LINE",
"365 381 LINE",
"551 0 LINE",
"753 0 LINE",
"868 0 LINE",
"868 40 LINE",
"798 40 LINE"
);
}
);
width = 858;
}
);
unicode = 004B;
},
{
color = 3;
glyphname = L;
layers = (
{
layerId = "7F8CFF51-D9F4-4B63-A0B3-409500EBA81A";
name = "Regular Jan 8 16, 13:54";
paths = (
{
closed = 1;
nodes = (
"330 780 LINE",
"330 20 LINE",
"285 20 LINE",
"285 780 LINE"
);
},
{
closed = 1;
nodes = (
"100 20 LINE",
"100 780 LINE",
"145 780 LINE",
"145 20 LINE"
);
},
{
closed = 1;
nodes = (
"410 760 LINE",
"20 760 LINE",
"20 800 LINE",
"410 800 LINE"
);
},
{
closed = 1;
nodes = (
"20 0 LINE",
"20 40 LINE",
"555 40 LINE",
"635 120 LINE",
"666 89 LINE",
"577 0 LINE"
);
},
{
closed = 1;
nodes = (
"635 230 LINE",
"680 230 LINE",
"680 0 LINE",
"635 0 LINE"
);
}
);
width = 710;
},
{
layerId = "2BD2DE8E-497B-4C82-BC7D-6355D6E42671";
name = "Bold Jan 8 16, 13:54";
paths = (
{
closed = 1;
nodes = (
"635 120 LINE",
"555 40 LINE",
"330 40 LINE",
"330 760 LINE",
"410 760 LINE",
"410 800 LINE",
"20 800 LINE",
"20 760 LINE",
"100 760 LINE",
"100 40 LINE",
"20 40 LINE",
"20 0 LINE",
"577 0 LINE",
"635 58 LINE",
"635 0 LINE",
"680 0 LINE",
"680 230 LINE",
"635 230 LINE"
);
}
);
width = 710;
},
{
layerId = "DC22FA31-3913-472E-8859-7ACF2F9D1801";
paths = (
{
closed = 1;
nodes = (
"680 230 LINE",
"680 0 LINE",
"20 0 LINE",
"20 40 LINE",
"100 40 LINE",
"100 760 LINE",
"20 760 LINE",
"20 800 LINE",
"410 800 LINE",
"410 760 LINE",
"330 760 LINE",
"330 40 LINE",
"635 40 LINE",
"635 230 LINE"
);
}
);
width = 710;
}
);
unicode = 004C;
},
{
color = 3;
glyphname = Lacute;
layers = (
{
layerId = "DC22FA31-3913-472E-8859-7ACF2F9D1801";
paths = (
{
closed = 1;
nodes = (
"680 230 LINE",
"680 0 LINE",
"20 0 LINE",
"20 40 LINE",
"100 40 LINE",
"100 760 LINE",
"20 760 LINE",
"20 800 LINE",
"410 800 LINE",
"410 760 LINE",
"330 760 LINE",
"330 40 LINE",
"635 40 LINE",
"635 230 LINE"
);
},
{
closed = 1;
nodes = (
"195 860 LINE",
"296 1004 LINE",
"344 1004 LINE",
"243 860 LINE"
);
}
);
width = 710;
}
);
unicode = 0139;
},
{
color = 3;
glyphname = Lcaron;
layers = (
{
layerId = "DC22FA31-3913-472E-8859-7ACF2F9D1801";
paths = (
{
closed = 1;
nodes = (
"680 230 LINE",
"680 0 LINE",
"20 0 LINE",
"20 40 LINE",
"100 40 LINE",
"100 760 LINE",
"20 760 LINE",
"20 800 LINE",
"410 800 LINE",
"410 760 LINE",
"330 760 LINE",
"330 40 LINE",
"635 40 LINE",
"635 230 LINE"
);
},
{
closed = 1;
nodes = (
"494 540 LINE",
"494 800 LINE",
"680 800 LINE",
"636 540 LINE"
);
}
);
width = 710;
}
);
unicode = 013D;
},
{
color = 3;
glyphname = Lslash;
layers = (
{
layerId = "DCE825FF-485C-469F-A6BC-08C7E60402F0";
name = "Bold Dec 5 15, 18:36";
paths = (
{
closed = 1;
nodes = (
"440 531 LINE",
"440 479 LINE",
"20 252 LINE",
"20 304 LINE"
);
},
{
closed = 1;
nodes = (
"330 780 LINE",
"330 20 LINE",
"285 20 LINE",
"285 780 LINE"
);
},
{
closed = 1;
nodes = (
"100 20 LINE",
"100 780 LINE",
"145 780 LINE",
"145 20 LINE"
);
},
{
closed = 1;
nodes = (
"410 760 LINE",
"20 760 LINE",
"20 800 LINE",
"410 800 LINE"
);
},
{
closed = 1;
nodes = (
"20 0 LINE",
"20 40 LINE",
"555 40 LINE",
"635 120 LINE",
"666 89 LINE",
"577 0 LINE"
);
},
{
closed = 1;
nodes = (
"635 230 LINE",
"680 230 LINE",
"680 0 LINE",
"635 0 LINE"
);
}
);
width = 730;
},
{
layerId = "4259F99E-C510-4A41-8D15-A41D9275289D";
name = "Bold Dec 12 15, 17:09";
paths = (
{
closed = 1;
nodes = (
"122 347 LINE",
"20 292 LINE",
"20 344 LINE",
"122 399 LINE"
);
},
{
closed = 1;
nodes = (
"330 780 LINE",
"330 20 LINE",
"285 20 LINE",
"285 780 LINE"
);
},
{
closed = 1;
nodes = (
"100 20 LINE",
"100 780 LINE",
"145 780 LINE",
"145 20 LINE"
);
},
{
closed = 1;
nodes = (
"410 760 LINE",
"20 760 LINE",
"20 800 LINE",
"410 800 LINE"
);
},
{
closed = 1;
nodes = (
"20 0 LINE",
"20 40 LINE",
"555 40 LINE",
"635 120 LINE",
"666 89 LINE",
"577 0 LINE"
);
},
{
closed = 1;
nodes = (
"635 230 LINE",
"680 230 LINE",
"680 0 LINE",
"635 0 LINE"
);
},
{
closed = 1;
nodes = (
"304 478 LINE",
"440 551 LINE",
"440 499 LINE",
"304 426 LINE"
);
}
);
width = 730;
},
{
layerId = "DC22FA31-3913-472E-8859-7ACF2F9D1801";
paths = (
{
closed = 1;
nodes = (
"-4 321 LINE",
"440 561 LINE",
"465 521 LINE",
"21 281 LINE"
);
},
{
closed = 1;
nodes = (
"680 230 LINE",
"680 0 LINE",
"20 0 LINE",
"20 40 LINE",
"100 40 LINE",
"100 760 LINE",
"20 760 LINE",
"20 800 LINE",
"410 800 LINE",
"410 760 LINE",
"330 760 LINE",
"330 40 LINE",
"635 40 LINE",
"635 230 LINE"
);
}
);
width = 710;
}
);
unicode = 0141;
},
{
color = 3;
glyphname = M;
layers = (
{
layerId = "47337024-EF91-46B2-9D95-7B6ED9E75A9D";
name = "Bold Nov 25 15, 12:35";
paths = (
{
closed = 1;
nodes = (
"110 20 LINE",
"110 780 LINE",
"155 780 LINE",
"155 20 LINE"
);
},
{
closed = 1;
nodes = (
"235 760 LINE",
"30 760 LINE",
"30 800 LINE",
"235 800 LINE"
);
},
{
closed = 1;
nodes = (
"235 0 LINE",
"30 0 LINE",
"30 40 LINE",
"235 40 LINE"
);
},
{
closed = 1;
nodes = (
"1058 780 LINE",
"1058 20 LINE",
"1013 20 LINE",
"1013 780 LINE"
);
},
{
closed = 1;
nodes = (
"828 20 LINE",
"828 780 LINE",
"873 780 LINE",
"873 20 LINE"
);
},
{
closed = 1;
nodes = (
"1128 760 LINE",
"809 760 LINE",
"809 800 LINE",
"1128 800 LINE"
);
},
{
closed = 1;
nodes = (
"1128 0 LINE",
"748 0 LINE",
"748 40 LINE",
"1128 40 LINE"
);
},
{
closed = 1;
nodes = (
"406 40 LINE",
"555 40 LINE",
"348 760 LINE",
"199 760 LINE"
);
},
{
closed = 1;
nodes = (
"611 0 LINE",
"372 0 LINE",
"143 800 LINE",
"382 800 LINE"
);
},
{
closed = 1;
nodes = (
"840 800 LINE",
"611 0 LINE",
"565 0 LINE",
"794 800 LINE"
);
}
);
width = 1158;
},
{
layerId = "DC22FA31-3913-472E-8859-7ACF2F9D1801";
paths = (
{
closed = 1;
nodes = (
"1104 800 LINE",
"770 800 LINE",
"583 84 LINE",
"378 800 LINE",
"30 800 LINE",
"30 760 LINE",
"110 760 LINE",
"110 40 LINE",
"30 40 LINE",
"30 0 LINE",
"255 0 LINE",
"255 40 LINE",
"155 40 LINE",
"155 758 LINE",
"372 0 LINE",
"607 0 LINE",
"804 754 LINE",
"804 40 LINE",
"704 40 LINE",
"704 0 LINE",
"1104 0 LINE",
"1104 40 LINE",
"1034 40 LINE",
"1034 760 LINE",
"1104 760 LINE"
);
}
);
width = 1134;
}
);
unicode = 004D;
},
{
color = 3;
glyphname = N;
layers = (
{
guideLines = (
{
angle = 296.82;
position = "{370, 800}";
}
);
layerId = "DC22FA31-3913-472E-8859-7ACF2F9D1801";
paths = (
{
closed = 1;
nodes = (
"669 800 LINE",
"669 760 LINE",
"749 760 LINE",
"749 40 LINE",
"370 800 LINE",
"20 800 LINE",
"20 760 LINE",
"100 760 LINE",
"100 40 LINE",
"20 40 LINE",
"20 0 LINE",
"225 0 LINE",
"225 40 LINE",
"145 40 LINE",
"145 760 LINE",
"524 0 LINE",
"794 0 LINE",
"794 760 LINE",
"874 760 LINE",
"874 800 LINE"
);
}
);
width = 894;
}
);
unicode = 004E;
},
{
color = 3;
glyphname = Nacute;
layers = (
{
layerId = "DC22FA31-3913-472E-8859-7ACF2F9D1801";
paths = (
{
closed = 1;
nodes = (
"669 800 LINE",
"669 760 LINE",
"749 760 LINE",
"749 40 LINE",
"370 800 LINE",
"20 800 LINE",
"20 760 LINE",
"100 760 LINE",
"100 40 LINE",
"20 40 LINE",
"20 0 LINE",
"225 0 LINE",
"225 40 LINE",
"145 40 LINE",
"145 760 LINE",
"524 0 LINE",
"794 0 LINE",
"794 760 LINE",
"874 760 LINE",
"874 800 LINE"
);
},
{
closed = 1;
nodes = (
"485 860 LINE",
"586 1004 LINE",
"538 1004 LINE",
"437 860 LINE"
);
}
);
width = 894;
}
);
unicode = 0143;
},
{
color = 3;
glyphname = Ncaron;
layers = (
{
layerId = "DC22FA31-3913-472E-8859-7ACF2F9D1801";
paths = (
{
closed = 1;
nodes = (
"669 800 LINE",
"669 760 LINE",
"749 760 LINE",
"749 40 LINE",
"370 800 LINE",
"20 800 LINE",
"20 760 LINE",
"100 760 LINE",
"100 40 LINE",
"20 40 LINE",
"20 0 LINE",
"225 0 LINE",
"225 40 LINE",
"145 40 LINE",
"145 760 LINE",
"524 0 LINE",
"794 0 LINE",
"794 760 LINE",
"874 760 LINE",
"874 800 LINE"
);
},
{
closed = 1;
nodes = (
"370 1014 LINE",
"320 1014 LINE",
"438 860 LINE",
"488 860 LINE"
);
},
{
closed = 1;
nodes = (
"606 1014 LINE",
"556 1014 LINE",
"438 860 LINE",
"488 860 LINE"
);
}
);
width = 894;
}
);
unicode = 0147;
},
{
color = 3;
glyphname = Eng;
layers = (
{
layerId = "DC22FA31-3913-472E-8859-7ACF2F9D1801";
paths = (
{
closed = 1;
nodes = (
"701 -290 LINE",
"794 -197 LINE",
"794 250 LINE",
"749 250 LINE",
"749 -180 LINE",
"679 -250 LINE",
"504 -250 LINE",
"420 -166 LINE",
"389 -197 LINE",
"482 -290 LINE"
);
},
{
closed = 1;
nodes = (
"669 800 LINE",
"669 760 LINE",
"749 760 LINE",
"749 40 LINE",
"370 800 LINE",
"20 800 LINE",
"20 760 LINE",
"100 760 LINE",
"100 40 LINE",
"20 40 LINE",
"20 0 LINE",
"225 0 LINE",
"225 40 LINE",
"145 40 LINE",
"145 760 LINE",
"524 0 LINE",
"794 0 LINE",
"794 760 LINE",
"874 760 LINE",
"874 800 LINE"
);
}
);
width = 894;
}
);
unicode = 014A;
},
{
color = 3;
glyphname = Ntilde;
layers = (
{
layerId = "DC22FA31-3913-472E-8859-7ACF2F9D1801";
paths = (
{
closed = 1;
nodes = (
"669 800 LINE",
"669 760 LINE",
"749 760 LINE",
"749 40 LINE",
"370 800 LINE",
"20 800 LINE",
"20 760 LINE",
"100 760 LINE",
"100 40 LINE",
"20 40 LINE",
"20 0 LINE",
"225 0 LINE",
"225 40 LINE",
"145 40 LINE",
"145 760 LINE",
"524 0 LINE",
"794 0 LINE",
"794 760 LINE",
"874 760 LINE",
"874 800 LINE"
);
},
{
closed = 1;
nodes = (
"443 963 LINE",
"334 963 LINE",
"262 891 LINE",
"293 860 LINE",
"356 923 LINE",
"421 923 LINE",
"484 860 LINE",
"593 860 LINE",
"665 932 LINE",
"634 963 LINE",
"571 900 LINE",
"506 900 LINE"
);
}
);
width = 894;
}
);
unicode = 00D1;
},
{
color = 3;
glyphname = O;
layers = (
{
layerId = "550B95D4-8A88-4560-836D-EFED2A5295CF";
name = "Bold Nov 25 15, 14:56";
paths = (
{
closed = 1;
nodes = (
"235 20 LINE",
"235 782 LINE",
"280 782 LINE",
"280 20 LINE"
);
},
{
closed = 1;
nodes = (
"480 19 LINE",
"480 781 LINE",
"525 781 LINE",
"525 19 LINE"
);
},
{
closed = 1;
nodes = (
"730 686 LINE",
"730 112 LINE",
"617 -1 LINE",
"143 0 LINE",
"30 113 LINE",
"30 687 LINE",
"143 800 LINE",
"617 799 LINE"
);
},
{
closed = 1;
nodes = (
"685 129 LINE",
"685 669 LINE",
"595 759 LINE",
"165 760 LINE",
"75 670 LINE",
"75 130 LINE",
"165 40 LINE",
"595 39 LINE"
);
}
);
width = 760;
},
{
layerId = "079882BA-BA0C-4B85-9085-B48FE4AA8D8C";
name = "Bold Nov 25 15, 14:30";
paths = (
{
closed = 1;
nodes = (
"225 20 LINE",
"225 782 LINE",
"270 782 LINE",
"270 20 LINE"
);
},
{
closed = 1;
nodes = (
"490 19 LINE",
"490 781 LINE",
"535 781 LINE",
"535 19 LINE"
);
},
{
closed = 1;
nodes = (
"730 696 LINE",
"730 102 LINE",
"627 -1 LINE",
"133 0 LINE",
"30 103 LINE",
"30 697 LINE",
"133 800 LINE",
"627 799 LINE"
);
},
{
closed = 1;
nodes = (
"685 119 LINE",
"685 679 LINE",
"605 759 LINE",
"155 760 LINE",
"75 680 LINE",
"75 120 LINE",
"155 40 LINE",
"605 39 LINE"
);
}
);
width = 760;
},
{
layerId = "DC22FA31-3913-472E-8859-7ACF2F9D1801";
paths = (
{
closed = 1;
nodes = (
"50 697 LINE",
"153 800 LINE",
"602 800 LINE",
"705 697 LINE",
"705 103 LINE",
"602 0 LINE",
"153 0 LINE",
"50 103 LINE"
);
},
{
closed = 1;
nodes = (
"475 40 LINE",
"475 760 LINE",
"280 760 LINE",
"280 40 LINE"
);
}
);
width = 755;
}
);
unicode = 004F;
},
{
color = 3;
glyphname = Oacute;
layers = (
{
layerId = "DC22FA31-3913-472E-8859-7ACF2F9D1801";
paths = (
{
closed = 1;
nodes = (
"50 697 LINE",
"153 800 LINE",
"602 800 LINE",
"705 697 LINE",
"705 103 LINE",
"602 0 LINE",
"153 0 LINE",
"50 103 LINE"
);
},
{
closed = 1;
nodes = (
"475 40 LINE",
"475 760 LINE",
"280 760 LINE",
"280 40 LINE"
);
},
{
closed = 1;
nodes = (
"364 860 LINE",
"465 1004 LINE",
"513 1004 LINE",
"412 860 LINE"
);
}
);
width = 755;
}
);
unicode = 00D3;
},
{
color = 3;
glyphname = Ocaron;
layers = (
{
layerId = "DC22FA31-3913-472E-8859-7ACF2F9D1801";
paths = (
{
closed = 1;
nodes = (
"50 697 LINE",
"153 800 LINE",
"602 800 LINE",
"705 697 LINE",
"705 103 LINE",
"602 0 LINE",
"153 0 LINE",
"50 103 LINE"
);
},
{
closed = 1;
nodes = (
"475 40 LINE",
"475 760 LINE",
"280 760 LINE",
"280 40 LINE"
);
},
{
closed = 1;
nodes = (
"405 860 LINE",
"355 860 LINE",
"237 1014 LINE",
"287 1014 LINE"
);
},
{
closed = 1;
nodes = (
"405 860 LINE",
"355 860 LINE",
"473 1014 LINE",
"523 1014 LINE"
);
}
);
width = 755;
}
);
unicode = 01D1;
},
{
color = 3;
glyphname = Ocircumflex;
layers = (
{
layerId = "DC22FA31-3913-472E-8859-7ACF2F9D1801";
paths = (
{
closed = 1;
nodes = (
"50 697 LINE",
"153 800 LINE",
"602 800 LINE",
"705 697 LINE",
"705 103 LINE",
"602 0 LINE",
"153 0 LINE",
"50 103 LINE"
);
},
{
closed = 1;
nodes = (
"475 40 LINE",
"475 760 LINE",
"280 760 LINE",
"280 40 LINE"
);
},
{
closed = 1;
nodes = (
"235 860 LINE",
"353 1014 LINE",
"403 1014 LINE",
"285 860 LINE"
);
},
{
closed = 1;
nodes = (
"471 860 LINE",
"353 1014 LINE",
"403 1014 LINE",
"521 860 LINE"
);
}
);
width = 755;
}
);
unicode = 00D4;
},
{
color = 3;
glyphname = Odieresis;
layers = (
{
layerId = "DC22FA31-3913-472E-8859-7ACF2F9D1801";
paths = (
{
closed = 1;
nodes = (
"50 697 LINE",
"153 800 LINE",
"602 800 LINE",
"705 697 LINE",
"705 103 LINE",
"602 0 LINE",
"153 0 LINE",
"50 103 LINE"
);
},
{
closed = 1;
nodes = (
"475 40 LINE",
"475 760 LINE",
"280 760 LINE",
"280 40 LINE"
);
},
{
closed = 1;
nodes = (
"271 994 LINE",
"328 937 LINE",
"271 880 LINE",
"214 937 LINE"
);
},
{
closed = 1;
nodes = (
"490 994 LINE",
"547 937 LINE",
"490 880 LINE",
"433 937 LINE"
);
}
);
width = 755;
}
);
unicode = 00D6;
},
{
color = 3;
glyphname = Ograve;
layers = (
{
layerId = "DC22FA31-3913-472E-8859-7ACF2F9D1801";
paths = (
{
closed = 1;
nodes = (
"50 697 LINE",
"153 800 LINE",
"602 800 LINE",
"705 697 LINE",
"705 103 LINE",
"602 0 LINE",
"153 0 LINE",
"50 103 LINE"
);
},
{
closed = 1;
nodes = (
"475 40 LINE",
"475 760 LINE",
"280 760 LINE",
"280 40 LINE"
);
},
{
closed = 1;
nodes = (
"269 1050 LINE",
"317 1050 LINE",
"408 866 LINE",
"360 866 LINE"
);
}
);
width = 755;
}
);
unicode = 00D2;
},
{
color = 3;
glyphname = Ohungarumlaut;
layers = (
{
layerId = "DC22FA31-3913-472E-8859-7ACF2F9D1801";
paths = (
{
closed = 1;
nodes = (
"50 697 LINE",
"153 800 LINE",
"602 800 LINE",
"705 697 LINE",
"705 103 LINE",
"602 0 LINE",
"153 0 LINE",
"50 103 LINE"
);
},
{
closed = 1;
nodes = (
"475 40 LINE",
"475 760 LINE",
"280 760 LINE",
"280 40 LINE"
);
},
{
closed = 1;
nodes = (
"341 866 LINE",
"293 866 LINE",
"384 1050 LINE",
"432 1050 LINE"
);
},
{
closed = 1;
nodes = (
"486 866 LINE",
"438 866 LINE",
"529 1050 LINE",
"577 1050 LINE"
);
}
);
width = 755;
}
);
unicode = 0150;
},
{
color = 3;
glyphname = Omacron;
layers = (
{
layerId = "DC22FA31-3913-472E-8859-7ACF2F9D1801";
paths = (
{
closed = 1;
nodes = (
"50 697 LINE",
"153 800 LINE",
"602 800 LINE",
"705 697 LINE",
"705 103 LINE",
"602 0 LINE",
"153 0 LINE",
"50 103 LINE"
);
},
{
closed = 1;
nodes = (
"475 40 LINE",
"475 760 LINE",
"280 760 LINE",
"280 40 LINE"
);
},
{
closed = 1;
nodes = (
"205 920 LINE",
"545 920 LINE",
"545 880 LINE",
"205 880 LINE"
);
}
);
width = 755;
}
);
unicode = 014C;
},
{
color = 3;
glyphname = Oslash;
layers = (
{
guideLines = (
{
angle = 139.46;
position = "{937, 926}";
},
{
angle = 231.52;
position = "{724, 869}";
},
{
angle = 231.52;
position = "{757, 839}";
}
);
layerId = "9E037B9F-7C45-4A64-832C-FBB259F824A9";
name = "Bold Jan 8 16, 14:12";
paths = (
{
closed = 1;
nodes = (
"480 488 LINE",
"480 561 LINE",
"276 302 LINE",
"276 230 LINE"
);
},
{
closed = 1;
nodes = (
"141 60 LINE",
"108 90 LINE",
"-4 -51 LINE",
"31 -79 LINE"
);
},
{
closed = 1;
nodes = (
"759 841 LINE",
"724 869 LINE",
"623 742 LINE",
"657 712 LINE"
);
}
);
width = 760;
},
{
guideLines = (
{
angle = 139.46;
position = "{937, 926}";
},
{
angle = 231.52;
position = "{757, 839}";
},
{
angle = 231.52;
position = "{724, 869}";
}
);
layerId = "15C256C9-9916-4553-89AB-04A56E1ED26B";
name = "Bold Dec 5 15, 15:40";
paths = (
{
closed = 1;
nodes = (
"757 839 LINE",
"31 -79 LINE",
"-2 -49 LINE",
"724 869 LINE"
);
}
);
width = 760;
},
{
guideLines = (
{
angle = 139.46;
position = "{937, 926}";
},
{
angle = 231.52;
position = "{724, 869}";
},
{
angle = 231.52;
position = "{757, 839}";
}
);
layerId = "51D75A09-F289-4DAA-A31A-3DC19BE68612";
name = "Regular Jan 7 16, 17:55";
paths = (
{
closed = 1;
nodes = (
"623 742 LINE",
"724 869 LINE",
"759 841 LINE",
"657 712 LINE"
);
},
{
closed = 1;
nodes = (
"276 302 LINE",
"480 561 LINE",
"480 488 LINE",
"276 230 LINE"
);
},
{
closed = 1;
nodes = (
"141 60 LINE",
"31 -79 LINE",
"-4 -51 LINE",
"108 90 LINE"
);
}
);
width = 760;
},
{
guideLines = (
{
angle = 139.46;
position = "{758, 840}";
}
);
layerId = "F7CCCF10-A26B-4147-BDCD-FA35796B12E0";
name = "Bold Dec 5 15, 15:36";
paths = (
{
closed = 1;
nodes = (
"758 840 LINE",
"31 -78 LINE",
"-3 -50 LINE",
"725 868 LINE"
);
}
);
width = 760;
},
{
guideLines = (
{
angle = 139.46;
position = "{758, 840}";
}
);
layerId = "1A11CB51-1B68-4D43-9B56-52269B6EF1DC";
name = "Bold Dec 5 15, 15:39";
paths = (
{
closed = 1;
nodes = (
"759 839 LINE",
"32 -79 LINE",
"-4 -49 LINE",
"723 869 LINE"
);
}
);
width = 760;
},
{
layerId = "DC22FA31-3913-472E-8859-7ACF2F9D1801";
paths = (
{
closed = 1;
nodes = (
"763 840 LINE",
"36 -78 LINE",
"2 -50 LINE",
"730 868 LINE"
);
},
{
closed = 1;
nodes = (
"55 697 LINE",
"158 800 LINE",
"607 800 LINE",
"710 697 LINE",
"710 103 LINE",
"607 0 LINE",
"158 0 LINE",
"55 103 LINE"
);
},
{
closed = 1;
nodes = (
"480 40 LINE",
"480 760 LINE",
"285 760 LINE",
"285 40 LINE"
);
}
);
width = 765;
}
);
unicode = 00D8;
},
{
color = 3;
glyphname = Otilde;
layers = (
{
layerId = "DC22FA31-3913-472E-8859-7ACF2F9D1801";
paths = (
{
closed = 1;
nodes = (
"50 697 LINE",
"153 800 LINE",
"602 800 LINE",
"705 697 LINE",
"705 103 LINE",
"602 0 LINE",
"153 0 LINE",
"50 103 LINE"
);
},
{
closed = 1;
nodes = (
"475 40 LINE",
"475 760 LINE",
"280 760 LINE",
"280 40 LINE"
);
},
{
closed = 1;
nodes = (
"444 900 LINE",
"509 900 LINE",
"572 963 LINE",
"603 932 LINE",
"531 860 LINE",
"422 860 LINE",
"359 923 LINE",
"294 923 LINE",
"231 860 LINE",
"200 891 LINE",
"272 963 LINE",
"381 963 LINE"
);
}
);
width = 755;
}
);
unicode = 00D5;
},
{
color = 3;
glyphname = OE;
layers = (
{
layerId = "DC22FA31-3913-472E-8859-7ACF2F9D1801";
paths = (
{
closed = 1;
nodes = (
"50 697 LINE",
"153 800 LINE",
"1003 800 LINE",
"1003 570 LINE",
"958 570 LINE",
"958 760 LINE",
"670 760 LINE",
"670 430 LINE",
"928 430 LINE",
"928 390 LINE",
"670 390 LINE",
"670 40 LINE",
"958 40 LINE",
"958 230 LINE",
"1003 230 LINE",
"1003 0 LINE",
"153 0 LINE",
"50 103 LINE"
);
},
{
closed = 1;
nodes = (
"440 40 LINE",
"440 760 LINE",
"280 760 LINE",
"280 40 LINE"
);
}
);
width = 1063;
}
);
unicode = 0152;
},
{
color = 3;
glyphname = P;
layers = (
{
layerId = "DC22FA31-3913-472E-8859-7ACF2F9D1801";
paths = (
{
closed = 1;
nodes = (
"50 800 LINE",
"50 760 LINE",
"130 760 LINE",
"130 40 LINE",
"50 40 LINE",
"50 0 LINE",
"440 0 LINE",
"440 40 LINE",
"360 40 LINE",
"360 340 LINE",
"660 340 LINE",
"763 443 LINE",
"763 707 LINE",
"670 800 LINE"
);
},
{
closed = 1;
nodes = (
"533 760 LINE",
"533 380 LINE",
"360 380 LINE",
"360 760 LINE"
);
}
);
width = 813;
}
);
unicode = 0050;
},
{
color = 3;
glyphname = Thorn;
layers = (
{
layerId = "DC22FA31-3913-472E-8859-7ACF2F9D1801";
paths = (
{
closed = 1;
nodes = (
"360 620 LINE",
"360 760 LINE",
"440 760 LINE",
"440 800 LINE",
"50 800 LINE",
"50 760 LINE",
"130 760 LINE",
"130 40 LINE",
"50 40 LINE",
"50 0 LINE",
"440 0 LINE",
"440 40 LINE",
"360 40 LINE",
"360 180 LINE",
"660 180 LINE",
"763 283 LINE",
"763 527 LINE",
"670 620 LINE"
);
},
{
closed = 1;
nodes = (
"533 580 LINE",
"533 220 LINE",
"360 220 LINE",
"360 580 LINE"
);
}
);
width = 813;
}
);
unicode = 00DE;
},
{
color = 3;
glyphname = Q;
layers = (
{
layerId = "AAC9B2BC-0931-4F0E-867C-B66F0AEBEFBF";
name = "Bold Nov 25 15, 14:55";
paths = (
{
closed = 1;
nodes = (
"480 -221 LINE",
"480 781 LINE",
"525 781 LINE",
"525 -221 LINE"
);
},
{
closed = 1;
nodes = (
"730 686 LINE",
"730 112 LINE",
"617 -1 LINE",
"143 0 LINE",
"30 113 LINE",
"30 687 LINE",
"143 800 LINE",
"617 799 LINE"
);
},
{
closed = 1;
nodes = (
"685 129 LINE",
"685 669 LINE",
"595 759 LINE",
"165 760 LINE",
"75 670 LINE",
"75 130 LINE",
"165 40 LINE",
"595 39 LINE"
);
},
{
closed = 1;
nodes = (
"660 -249 LINE",
"338 -248 LINE",
"235 -145 LINE",
"235 782 LINE",
"280 782 LINE",
"280 -128 LINE",
"360 -208 LINE",
"660 -209 LINE"
);
}
);
width = 760;
},
{
layerId = "F0BD375E-20D1-4783-A286-DD36EEF6E5AD";
name = "Bold Jan 8 16, 14:25";
paths = (
{
closed = 1;
nodes = (
"50 697 LINE",
"153 800 LINE",
"567 799 LINE",
"670 696 LINE",
"670 102 LINE",
"567 -1 LINE",
"475 -1 LINE",
"475 -190 LINE",
"585 -190 LINE",
"585 -230 LINE",
"338 -229 LINE",
"245 -136 LINE",
"245 0 LINE",
"153 0 LINE",
"50 103 LINE"
);
},
{
closed = 1;
nodes = (
"260 40 LINE",
"460 39 LINE",
"460 759 LINE",
"260 760 LINE"
);
}
);
width = 760;
},
{
layerId = "DC22FA31-3913-472E-8859-7ACF2F9D1801";
paths = (
{
closed = 1;
nodes = (
"50 697 LINE",
"153 800 LINE",
"567 799 LINE",
"670 696 LINE",
"670 102 LINE",
"567 -1 LINE",
"485 -1 LINE",
"485 -190 LINE",
"585 -190 LINE",
"585 -230 LINE",
"328 -229 LINE",
"235 -136 LINE",
"235 0 LINE",
"153 0 LINE",
"50 103 LINE"
);
},
{
closed = 1;
nodes = (
"280 40 LINE",
"440 39 LINE",
"440 759 LINE",
"280 760 LINE"
);
}
);
width = 720;
}
);
unicode = 0051;
},
{
color = 3;
glyphname = R;
layers = (
{
layerId = "ACA2C091-34E2-4FD1-8984-52FA74651E44";
name = "Regular Jan 8 16, 14:26";
paths = (
{
closed = 1;
nodes = (
"360 780 LINE",
"360 20 LINE",
"315 20 LINE",
"315 780 LINE"
);
},
{
closed = 1;
nodes = (
"130 20 LINE",
"130 780 LINE",
"175 780 LINE",
"175 20 LINE"
);
},
{
closed = 1;
nodes = (
"336 380 LINE",
"336 420 LINE",
"628 420 LINE",
"708 500 LINE",
"708 690 LINE",
"638 760 LINE",
"50 760 LINE",
"50 800 LINE",
"660 800 LINE",
"753 707 LINE",
"753 483 LINE",
"650 380 LINE"
);
},
{
closed = 1;
nodes = (
"523 780 LINE",
"568 780 LINE",
"568 100 LINE",
"628 40 LINE",
"833 40 LINE",
"833 0 LINE",
"606 0 LINE",
"523 83 LINE"
);
},
{
closed = 1;
nodes = (
"440 40 LINE",
"440 0 LINE",
"50 0 LINE",
"50 40 LINE"
);
},
{
closed = 1;
nodes = (
"718 17 LINE",
"718 290 LINE",
"628 380 LINE",
"493 380 LINE",
"493 420 LINE",
"650 420 LINE",
"763 307 LINE",
"763 17 LINE"
);
}
);
width = 833;
},
{
layerId = "CA263151-081A-425E-A0BB-C705BF892FC8";
name = "Bold Jan 8 16, 14:26";
paths = (
{
closed = 1;
nodes = (
"763 307 LINE",
"670 400 LINE",
"753 483 LINE",
"753 707 LINE",
"660 800 LINE",
"50 800 LINE",
"50 760 LINE",
"130 760 LINE",
"130 40 LINE",
"50 40 LINE",
"50 0 LINE",
"440 0 LINE",
"440 40 LINE",
"360 40 LINE",
"360 380 LINE",
"523 380 LINE",
"523 83 LINE",
"606 0 LINE",
"833 0 LINE",
"833 40 LINE",
"763 40 LINE"
);
},
{
closed = 1;
nodes = (
"360 420 LINE",
"360 760 LINE",
"523 760 LINE",
"523 420 LINE"
);
}
);
width = 833;
},
{
layerId = "DC22FA31-3913-472E-8859-7ACF2F9D1801";
paths = (
{
closed = 1;
nodes = (
"50 40 LINE",
"130 40 LINE",
"130 760 LINE",
"50 760 LINE",
"50 800 LINE",
"660 800 LINE",
"753 707 LINE",
"753 483 LINE",
"670 400 LINE",
"753 317 LINE",
"753 40 LINE",
"833 40 LINE",
"833 0 LINE",
"606 0 LINE",
"523 83 LINE",
"523 380 LINE",
"360 380 LINE",
"360 40 LINE",
"440 40 LINE",
"440 0 LINE",
"50 0 LINE"
);
},
{
closed = 1;
nodes = (
"523 420 LINE",
"523 760 LINE",
"360 760 LINE",
"360 420 LINE"
);
}
);
width = 833;
}
);
unicode = 0052;
},
{
color = 3;
glyphname = Racute;
layers = (
{
layerId = "DC22FA31-3913-472E-8859-7ACF2F9D1801";
paths = (
{
closed = 1;
nodes = (
"50 40 LINE",
"130 40 LINE",
"130 760 LINE",
"50 760 LINE",
"50 800 LINE",
"660 800 LINE",
"753 707 LINE",
"753 483 LINE",
"670 400 LINE",
"753 317 LINE",
"753 40 LINE",
"833 40 LINE",
"833 0 LINE",
"606 0 LINE",
"523 83 LINE",
"523 380 LINE",
"360 380 LINE",
"360 40 LINE",
"440 40 LINE",
"440 0 LINE",
"50 0 LINE"
);
},
{
closed = 1;
nodes = (
"523 420 LINE",
"523 760 LINE",
"360 760 LINE",
"360 420 LINE"
);
},
{
closed = 1;
nodes = (
"409 860 LINE",
"510 1004 LINE",
"558 1004 LINE",
"457 860 LINE"
);
}
);
width = 833;
}
);
unicode = 0154;
},
{
color = 3;
glyphname = Rcaron;
layers = (
{
layerId = "DC22FA31-3913-472E-8859-7ACF2F9D1801";
paths = (
{
closed = 1;
nodes = (
"50 40 LINE",
"130 40 LINE",
"130 760 LINE",
"50 760 LINE",
"50 800 LINE",
"660 800 LINE",
"753 707 LINE",
"753 483 LINE",
"670 400 LINE",
"753 317 LINE",
"753 40 LINE",
"833 40 LINE",
"833 0 LINE",
"606 0 LINE",
"523 83 LINE",
"523 380 LINE",
"360 380 LINE",
"360 40 LINE",
"440 40 LINE",
"440 0 LINE",
"50 0 LINE"
);
},
{
closed = 1;
nodes = (
"523 420 LINE",
"523 760 LINE",
"360 760 LINE",
"360 420 LINE"
);
},
{
closed = 1;
nodes = (
"458 860 LINE",
"408 860 LINE",
"290 1014 LINE",
"340 1014 LINE"
);
},
{
closed = 1;
nodes = (
"458 860 LINE",
"408 860 LINE",
"526 1014 LINE",
"576 1014 LINE"
);
}
);
width = 833;
}
);
unicode = 0158;
},
{
color = 3;
glyphname = S;
layers = (
{
guideLines = (
{
angle = 130.54;
position = "{206, 791}";
},
{
angle = 45;
position = "{588, 0}";
}
);
layerId = "2D8243CA-1D92-45FC-AABB-1B1B6C4847F6";
name = "Regular Jan 8 16, 12:01";
paths = (
{
closed = 1;
nodes = (
"516 760 LINE",
"175 760 LINE",
"105 690 LINE",
"105 584 LINE",
"566 40 LINE",
"535 9 LINE",
"60 569 LINE",
"60 707 LINE",
"153 800 LINE",
"538 800 LINE",
"661 677 LINE",
"630 646 LINE"
);
},
{
closed = 1;
nodes = (
"50 123 LINE",
"81 154 LINE",
"195 40 LINE",
"566 40 LINE",
"636 110 LINE",
"636 216 LINE",
"175 760 LINE",
"206 791 LINE",
"681 231 LINE",
"681 93 LINE",
"588 0 LINE",
"173 0 LINE"
);
},
{
closed = 1;
nodes = (
"616 815 LINE",
"661 815 LINE",
"661 560 LINE",
"616 560 LINE"
);
},
{
closed = 1;
nodes = (
"50 240 LINE",
"95 240 LINE",
"95 0 LINE",
"50 0 LINE"
);
}
);
width = 731;
},
{
guideLines = (
{
angle = 130.54;
position = "{206, 791}";
},
{
angle = 45;
position = "{588, 0}";
}
);
layerId = "DC22FA31-3913-472E-8859-7ACF2F9D1801";
paths = (
{
closed = 1;
nodes = (
"95 -10 LINE",
"95 70 LINE",
"165 0 LINE",
"588 0 LINE",
"681 93 LINE",
"681 231 LINE",
"232 760 LINE",
"524 760 LINE",
"616 668 LINE",
"616 560 LINE",
"661 560 LINE",
"661 810 LINE",
"616 810 LINE",
"616 730 LINE",
"546 800 LINE",
"153 800 LINE",
"60 707 LINE",
"60 569 LINE",
"509 40 LINE",
"187 40 LINE",
"95 132 LINE",
"95 240 LINE",
"50 240 LINE",
"50 -10 LINE"
);
}
);
width = 731;
}
);
unicode = 0053;
},
{
color = 3;
glyphname = Sacute;
layers = (
{
layerId = "DC22FA31-3913-472E-8859-7ACF2F9D1801";
paths = (
{
closed = 1;
nodes = (
"95 -10 LINE",
"95 70 LINE",
"165 0 LINE",
"588 0 LINE",
"681 93 LINE",
"681 231 LINE",
"232 760 LINE",
"524 760 LINE",
"616 668 LINE",
"616 560 LINE",
"661 560 LINE",
"661 810 LINE",
"616 810 LINE",
"616 730 LINE",
"546 800 LINE",
"153 800 LINE",
"60 707 LINE",
"60 569 LINE",
"509 40 LINE",
"187 40 LINE",
"95 132 LINE",
"95 240 LINE",
"50 240 LINE",
"50 -10 LINE"
);
},
{
closed = 1;
nodes = (
"402 860 LINE",
"503 1004 LINE",
"455 1004 LINE",
"354 860 LINE"
);
}
);
width = 731;
}
);
unicode = 015A;
},
{
color = 3;
glyphname = Scaron;
layers = (
{
layerId = "DC22FA31-3913-472E-8859-7ACF2F9D1801";
paths = (
{
closed = 1;
nodes = (
"95 -10 LINE",
"95 70 LINE",
"165 0 LINE",
"588 0 LINE",
"681 93 LINE",
"681 231 LINE",
"232 760 LINE",
"524 760 LINE",
"616 668 LINE",
"616 560 LINE",
"661 560 LINE",
"661 810 LINE",
"616 810 LINE",
"616 730 LINE",
"546 800 LINE",
"153 800 LINE",
"60 707 LINE",
"60 569 LINE",
"509 40 LINE",
"187 40 LINE",
"95 132 LINE",
"95 240 LINE",
"50 240 LINE",
"50 -10 LINE"
);
},
{
closed = 1;
nodes = (
"280 1014 LINE",
"230 1014 LINE",
"348 860 LINE",
"398 860 LINE"
);
},
{
closed = 1;
nodes = (
"516 1014 LINE",
"466 1014 LINE",
"348 860 LINE",
"398 860 LINE"
);
}
);
width = 731;
}
);
unicode = 0160;
},
{
color = 3;
glyphname = T;
layers = (
{
layerId = "DEE56669-323E-4D63-8C31-87F89CF7ED8D";
name = "Regular Jan 8 16, 11:56";
paths = (
{
closed = 1;
nodes = (
"515 780 LINE",
"515 20 LINE",
"470 20 LINE",
"470 780 LINE"
);
},
{
closed = 1;
nodes = (
"285 20 LINE",
"285 780 LINE",
"330 780 LINE",
"330 20 LINE"
);
},
{
closed = 1;
nodes = (
"595 0 LINE",
"205 0 LINE",
"205 40 LINE",
"595 40 LINE"
);
},
{
closed = 1;
nodes = (
"155 760 LINE",
"95 700 LINE",
"64 731 LINE",
"133 800 LINE",
"657 800 LINE",
"726 731 LINE",
"695 700 LINE",
"635 760 LINE"
);
},
{
closed = 1;
nodes = (
"95 560 LINE",
"50 560 LINE",
"50 810 LINE",
"95 810 LINE"
);
},
{
closed = 1;
nodes = (
"740 810 LINE",
"740 560 LINE",
"695 560 LINE",
"695 810 LINE"
);
}
);
width = 790;
},
{
layerId = "7EEC9805-D295-4238-9BCF-1CCB195F0ED3";
name = "Regular Jan 8 16, 11:47";
paths = (
{
closed = 1;
nodes = (
"515 780 LINE",
"515 20 LINE",
"470 20 LINE",
"470 780 LINE"
);
},
{
closed = 1;
nodes = (
"285 20 LINE",
"285 780 LINE",
"330 780 LINE",
"330 20 LINE"
);
},
{
closed = 1;
nodes = (
"595 0 LINE",
"205 0 LINE",
"205 40 LINE",
"595 40 LINE"
);
},
{
closed = 1;
nodes = (
"657 800 LINE",
"750 707 LINE",
"719 676 LINE",
"635 760 LINE",
"155 760 LINE",
"71 676 LINE",
"40 707 LINE",
"133 800 LINE"
);
},
{
closed = 1;
nodes = (
"705 815 LINE",
"750 815 LINE",
"750 560 LINE",
"705 560 LINE"
);
},
{
closed = 1;
nodes = (
"40 560 LINE",
"40 815 LINE",
"85 815 LINE",
"85 560 LINE"
);
}
);
width = 790;
},
{
layerId = "C4164517-06CC-45AD-AEF2-18F2E01FF759";
name = "Regular Dec 18 15, 02:17";
paths = (
{
closed = 1;
nodes = (
"515 780 LINE",
"515 20 LINE",
"470 20 LINE",
"470 780 LINE"
);
},
{
closed = 1;
nodes = (
"285 20 LINE",
"285 780 LINE",
"330 780 LINE",
"330 20 LINE"
);
},
{
closed = 1;
nodes = (
"595 0 LINE",
"205 0 LINE",
"205 40 LINE",
"595 40 LINE"
);
},
{
closed = 1;
nodes = (
"677 800 LINE",
"770 707 LINE",
"739 676 LINE",
"655 760 LINE",
"135 760 LINE",
"51 676 LINE",
"20 707 LINE",
"113 800 LINE"
);
},
{
closed = 1;
nodes = (
"725 815 LINE",
"770 815 LINE",
"770 580 LINE",
"725 580 LINE"
);
},
{
closed = 1;
nodes = (
"20 580 LINE",
"20 815 LINE",
"65 815 LINE",
"65 580 LINE"
);
}
);
width = 790;
},
{
layerId = "E2EF54DA-2318-473B-8B56-F8CFB1DA2FBE";
name = "Bold Jan 29 16, 11:56";
paths = (
{
closed = 1;
nodes = (
"705 752 LINE",
"657 800 LINE",
"133 800 LINE",
"85 752 LINE",
"85 815 LINE",
"40 815 LINE",
"40 560 LINE",
"85 560 LINE",
"85 690 LINE",
"155 760 LINE",
"285 760 LINE",
"285 40 LINE",
"205 40 LINE",
"205 0 LINE",
"595 0 LINE",
"595 40 LINE",
"515 40 LINE",
"515 760 LINE",
"635 760 LINE",
"705 690 LINE",
"705 560 LINE",
"750 560 LINE",
"750 815 LINE",
"705 815 LINE"
);
}
);
width = 790;
},
{
layerId = "DC22FA31-3913-472E-8859-7ACF2F9D1801";
paths = (
{
closed = 1;
nodes = (
"50 800 LINE",
"730 800 LINE",
"730 570 LINE",
"685 570 LINE",
"685 760 LINE",
"505 760 LINE",
"505 40 LINE",
"585 40 LINE",
"585 0 LINE",
"195 0 LINE",
"195 40 LINE",
"275 40 LINE",
"275 760 LINE",
"95 760 LINE",
"95 570 LINE",
"50 570 LINE"
);
}
);
width = 780;
}
);
unicode = 0054;
},
{
color = 3;
glyphname = Tbar;
layers = (
{
layerId = "DC22FA31-3913-472E-8859-7ACF2F9D1801";
paths = (
{
closed = 1;
nodes = (
"635 480 LINE",
"635 440 LINE",
"145 440 LINE",
"145 480 LINE"
);
},
{
closed = 1;
nodes = (
"50 800 LINE",
"730 800 LINE",
"730 570 LINE",
"685 570 LINE",
"685 760 LINE",
"505 760 LINE",
"505 40 LINE",
"585 40 LINE",
"585 0 LINE",
"195 0 LINE",
"195 40 LINE",
"275 40 LINE",
"275 760 LINE",
"95 760 LINE",
"95 570 LINE",
"50 570 LINE"
);
}
);
width = 780;
}
);
unicode = 0166;
},
{
color = 3;
glyphname = Tcaron;
layers = (
{
layerId = "DC22FA31-3913-472E-8859-7ACF2F9D1801";
paths = (
{
closed = 1;
nodes = (
"50 800 LINE",
"730 800 LINE",
"730 570 LINE",
"685 570 LINE",
"685 760 LINE",
"505 760 LINE",
"505 40 LINE",
"585 40 LINE",
"585 0 LINE",
"195 0 LINE",
"195 40 LINE",
"275 40 LINE",
"275 760 LINE",
"95 760 LINE",
"95 570 LINE",
"50 570 LINE"
);
},
{
closed = 1;
nodes = (
"416 860 LINE",
"366 860 LINE",
"248 1014 LINE",
"298 1014 LINE"
);
},
{
closed = 1;
nodes = (
"416 860 LINE",
"366 860 LINE",
"484 1014 LINE",
"534 1014 LINE"
);
}
);
width = 780;
}
);
unicode = 0164;
},
{
color = 3;
glyphname = U;
layers = (
{
layerId = "DC22FA31-3913-472E-8859-7ACF2F9D1801";
paths = (
{
closed = 1;
nodes = (
"593 800 LINE",
"593 760 LINE",
"673 760 LINE",
"673 120 LINE",
"593 40 LINE",
"340 40 LINE",
"340 760 LINE",
"420 760 LINE",
"420 800 LINE",
"30 800 LINE",
"30 760 LINE",
"110 760 LINE",
"110 103 LINE",
"213 0 LINE",
"615 0 LINE",
"718 103 LINE",
"718 760 LINE",
"798 760 LINE",
"798 800 LINE"
);
}
);
width = 828;
}
);
unicode = 0055;
},
{
color = 3;
glyphname = Uacute;
layers = (
{
layerId = "DC22FA31-3913-472E-8859-7ACF2F9D1801";
paths = (
{
closed = 1;
nodes = (
"593 800 LINE",
"593 760 LINE",
"673 760 LINE",
"673 120 LINE",
"593 40 LINE",
"340 40 LINE",
"340 760 LINE",
"420 760 LINE",
"420 800 LINE",
"30 800 LINE",
"30 760 LINE",
"110 760 LINE",
"110 103 LINE",
"213 0 LINE",
"615 0 LINE",
"718 103 LINE",
"718 760 LINE",
"798 760 LINE",
"798 800 LINE"
);
},
{
closed = 1;
nodes = (
"533 860 LINE",
"634 1004 LINE",
"586 1004 LINE",
"485 860 LINE"
);
}
);
width = 828;
}
);
unicode = 00DA;
},
{
color = 3;
glyphname = Ucircumflex;
layers = (
{
layerId = "DC22FA31-3913-472E-8859-7ACF2F9D1801";
paths = (
{
closed = 1;
nodes = (
"593 800 LINE",
"593 760 LINE",
"673 760 LINE",
"673 120 LINE",
"593 40 LINE",
"340 40 LINE",
"340 760 LINE",
"420 760 LINE",
"420 800 LINE",
"30 800 LINE",
"30 760 LINE",
"110 760 LINE",
"110 103 LINE",
"213 0 LINE",
"615 0 LINE",
"718 103 LINE",
"718 760 LINE",
"798 760 LINE",
"798 800 LINE"
);
},
{
closed = 1;
nodes = (
"412 860 LINE",
"530 1014 LINE",
"480 1014 LINE",
"362 860 LINE"
);
},
{
closed = 1;
nodes = (
"648 860 LINE",
"530 1014 LINE",
"480 1014 LINE",
"598 860 LINE"
);
}
);
width = 828;
}
);
unicode = 00DB;
},
{
color = 3;
glyphname = Udieresis;
layers = (
{
layerId = "DC22FA31-3913-472E-8859-7ACF2F9D1801";
paths = (
{
closed = 1;
nodes = (
"593 800 LINE",
"593 760 LINE",
"673 760 LINE",
"673 120 LINE",
"593 40 LINE",
"340 40 LINE",
"340 760 LINE",
"420 760 LINE",
"420 800 LINE",
"30 800 LINE",
"30 760 LINE",
"110 760 LINE",
"110 103 LINE",
"213 0 LINE",
"615 0 LINE",
"718 103 LINE",
"718 760 LINE",
"798 760 LINE",
"798 800 LINE"
);
},
{
closed = 1;
nodes = (
"340 937 LINE",
"397 880 LINE",
"454 937 LINE",
"397 994 LINE"
);
},
{
closed = 1;
nodes = (
"559 937 LINE",
"616 880 LINE",
"673 937 LINE",
"616 994 LINE"
);
}
);
width = 828;
}
);
unicode = 00DC;
},
{
color = 3;
glyphname = Ugrave;
layers = (
{
layerId = "DC22FA31-3913-472E-8859-7ACF2F9D1801";
paths = (
{
closed = 1;
nodes = (
"593 800 LINE",
"593 760 LINE",
"673 760 LINE",
"673 120 LINE",
"593 40 LINE",
"340 40 LINE",
"340 760 LINE",
"420 760 LINE",
"420 800 LINE",
"30 800 LINE",
"30 760 LINE",
"110 760 LINE",
"110 103 LINE",
"213 0 LINE",
"615 0 LINE",
"718 103 LINE",
"718 760 LINE",
"798 760 LINE",
"798 800 LINE"
);
},
{
closed = 1;
nodes = (
"431 860 LINE",
"479 860 LINE",
"388 1044 LINE",
"340 1044 LINE"
);
}
);
width = 828;
}
);
unicode = 00D9;
},
{
color = 3;
glyphname = Uhungarumlaut;
layers = (
{
layerId = "DC22FA31-3913-472E-8859-7ACF2F9D1801";
paths = (
{
closed = 1;
nodes = (
"593 800 LINE",
"593 760 LINE",
"673 760 LINE",
"673 120 LINE",
"593 40 LINE",
"340 40 LINE",
"340 760 LINE",
"420 760 LINE",
"420 800 LINE",
"30 800 LINE",
"30 760 LINE",
"110 760 LINE",
"110 103 LINE",
"213 0 LINE",
"615 0 LINE",
"718 103 LINE",
"718 760 LINE",
"798 760 LINE",
"798 800 LINE"
);
},
{
closed = 1;
nodes = (
"542 1050 LINE",
"494 1050 LINE",
"403 866 LINE",
"451 866 LINE"
);
},
{
closed = 1;
nodes = (
"687 1050 LINE",
"639 1050 LINE",
"548 866 LINE",
"596 866 LINE"
);
}
);
width = 828;
}
);
unicode = 0170;
},
{
color = 3;
glyphname = Umacron;
layers = (
{
layerId = "DC22FA31-3913-472E-8859-7ACF2F9D1801";
paths = (
{
closed = 1;
nodes = (
"593 800 LINE",
"593 760 LINE",
"673 760 LINE",
"673 120 LINE",
"593 40 LINE",
"340 40 LINE",
"340 760 LINE",
"420 760 LINE",
"420 800 LINE",
"30 800 LINE",
"30 760 LINE",
"110 760 LINE",
"110 103 LINE",
"213 0 LINE",
"615 0 LINE",
"718 103 LINE",
"718 760 LINE",
"798 760 LINE",
"798 800 LINE"
);
},
{
closed = 1;
nodes = (
"300 880 LINE",
"640 880 LINE",
"640 920 LINE",
"300 920 LINE"
);
}
);
width = 828;
}
);
unicode = 016A;
},
{
color = 3;
glyphname = Uogonek;
layers = (
{
layerId = "DC22FA31-3913-472E-8859-7ACF2F9D1801";
paths = (
{
closed = 1;
nodes = (
"517 -235 LINE",
"566 -186 LINE",
"535 -155 LINE",
"495 -195 LINE",
"415 -195 LINE",
"375 -155 LINE",
"375 -95 LINE",
"476 6 LINE",
"445 37 LINE",
"330 -78 LINE",
"330 -172 LINE",
"393 -235 LINE"
);
},
{
closed = 1;
nodes = (
"593 800 LINE",
"593 760 LINE",
"673 760 LINE",
"673 120 LINE",
"593 40 LINE",
"340 40 LINE",
"340 760 LINE",
"420 760 LINE",
"420 800 LINE",
"30 800 LINE",
"30 760 LINE",
"110 760 LINE",
"110 103 LINE",
"213 0 LINE",
"615 0 LINE",
"718 103 LINE",
"718 760 LINE",
"798 760 LINE",
"798 800 LINE"
);
}
);
width = 828;
}
);
unicode = 0172;
},
{
color = 3;
glyphname = Uring;
layers = (
{
layerId = "DC22FA31-3913-472E-8859-7ACF2F9D1801";
paths = (
{
closed = 1;
nodes = (
"593 800 LINE",
"593 760 LINE",
"673 760 LINE",
"673 120 LINE",
"593 40 LINE",
"340 40 LINE",
"340 760 LINE",
"420 760 LINE",
"420 800 LINE",
"30 800 LINE",
"30 760 LINE",
"110 760 LINE",
"110 103 LINE",
"213 0 LINE",
"615 0 LINE",
"718 103 LINE",
"718 760 LINE",
"798 760 LINE",
"798 800 LINE"
);
},
{
closed = 1;
nodes = (
"508 888 LINE",
"447 950 LINE",
"509 1011 LINE",
"570 949 LINE"
);
},
{
closed = 1;
nodes = (
"399 950 LINE",
"508 840 LINE",
"618 949 LINE",
"509 1059 LINE"
);
}
);
width = 828;
}
);
unicode = 016E;
},
{
color = 3;
glyphname = Utilde;
layers = (
{
layerId = "DC22FA31-3913-472E-8859-7ACF2F9D1801";
paths = (
{
closed = 1;
nodes = (
"593 800 LINE",
"593 760 LINE",
"673 760 LINE",
"673 120 LINE",
"593 40 LINE",
"340 40 LINE",
"340 760 LINE",
"420 760 LINE",
"420 800 LINE",
"30 800 LINE",
"30 760 LINE",
"110 760 LINE",
"110 103 LINE",
"213 0 LINE",
"615 0 LINE",
"718 103 LINE",
"718 760 LINE",
"798 760 LINE",
"798 800 LINE"
);
},
{
closed = 1;
nodes = (
"446 963 LINE",
"337 963 LINE",
"265 891 LINE",
"296 860 LINE",
"359 923 LINE",
"424 923 LINE",
"487 860 LINE",
"596 860 LINE",
"668 932 LINE",
"637 963 LINE",
"574 900 LINE",
"509 900 LINE"
);
}
);
width = 828;
}
);
unicode = 0168;
},
{
color = 3;
glyphname = V;
layers = (
{
layerId = "1750ECAD-07F6-492D-B793-1BD14438774C";
name = "Bold Nov 25 15, 15:38";
paths = (
{
closed = 1;
nodes = (
"290 760 LINE",
"499 40 LINE",
"354 40 LINE",
"145 760 LINE"
);
},
{
closed = 1;
nodes = (
"85 800 LINE",
"320 0 LINE",
"559 0 LINE",
"324 800 LINE"
);
},
{
closed = 1;
nodes = (
"511 0 LINE",
"559 0 LINE",
"794 800 LINE",
"746 800 LINE"
);
},
{
closed = 1;
nodes = (
"30 760 LINE",
"409 760 LINE",
"409 800 LINE",
"30 800 LINE"
);
},
{
closed = 1;
nodes = (
"661 760 LINE",
"849 760 LINE",
"849 800 LINE",
"661 800 LINE"
);
}
);
width = 879;
},
{
layerId = "DC22FA31-3913-472E-8859-7ACF2F9D1801";
paths = (
{
closed = 1;
nodes = (
"606 800 LINE",
"606 760 LINE",
"714 760 LINE",
"515 82 LINE",
"316 760 LINE",
"424 760 LINE",
"424 800 LINE",
"10 800 LINE",
"10 760 LINE",
"77 760 LINE",
"300 0 LINE",
"539 0 LINE",
"762 760 LINE",
"829 760 LINE",
"829 800 LINE"
);
}
);
width = 839;
}
);
unicode = 0056;
},
{
color = 3;
glyphname = W;
layers = (
{
layerId = "DC22FA31-3913-472E-8859-7ACF2F9D1801";
paths = (
{
closed = 1;
nodes = (
"994 800 LINE",
"994 760 LINE",
"1103 760 LINE",
"923 89 LINE",
"743 760 LINE",
"817 760 LINE",
"817 800 LINE",
"10 800 LINE",
"10 760 LINE",
"76 760 LINE",
"280 0 LINE",
"519 0 LINE",
"613 352 LINE",
"708 0 LINE",
"947 0 LINE",
"1151 760 LINE",
"1217 760 LINE",
"1217 800 LINE"
);
},
{
closed = 1;
nodes = (
"315 760 LINE",
"504 760 LINE",
"590 440 LINE",
"495 89 LINE"
);
}
);
width = 1227;
}
);
unicode = 0057;
},
{
color = 3;
glyphname = Wacute;
layers = (
{
layerId = "DC22FA31-3913-472E-8859-7ACF2F9D1801";
paths = (
{
closed = 1;
nodes = (
"613 860 LINE",
"714 1004 LINE",
"762 1004 LINE",
"661 860 LINE"
);
},
{
closed = 1;
nodes = (
"1217 800 LINE",
"1217 760 LINE",
"1151 760 LINE",
"947 0 LINE",
"708 0 LINE",
"613 352 LINE",
"519 0 LINE",
"280 0 LINE",
"76 760 LINE",
"10 760 LINE",
"10 800 LINE",
"817 800 LINE",
"817 760 LINE",
"743 760 LINE",
"923 89 LINE",
"1103 760 LINE",
"994 760 LINE",
"994 800 LINE"
);
},
{
closed = 1;
nodes = (
"495 89 LINE",
"590 440 LINE",
"504 760 LINE",
"315 760 LINE"
);
}
);
width = 1227;
}
);
unicode = 1E82;
},
{
color = 3;
glyphname = Wcircumflex;
layers = (
{
layerId = "DC22FA31-3913-472E-8859-7ACF2F9D1801";
paths = (
{
closed = 1;
nodes = (
"468 860 LINE",
"586 1014 LINE",
"636 1014 LINE",
"518 860 LINE"
);
},
{
closed = 1;
nodes = (
"704 860 LINE",
"586 1014 LINE",
"636 1014 LINE",
"754 860 LINE"
);
},
{
closed = 1;
nodes = (
"1217 800 LINE",
"1217 760 LINE",
"1151 760 LINE",
"947 0 LINE",
"708 0 LINE",
"613 352 LINE",
"519 0 LINE",
"280 0 LINE",
"76 760 LINE",
"10 760 LINE",
"10 800 LINE",
"817 800 LINE",
"817 760 LINE",
"743 760 LINE",
"923 89 LINE",
"1103 760 LINE",
"994 760 LINE",
"994 800 LINE"
);
},
{
closed = 1;
nodes = (
"495 89 LINE",
"590 440 LINE",
"504 760 LINE",
"315 760 LINE"
);
}
);
width = 1227;
}
);
unicode = 0174;
},
{
color = 3;
glyphname = Wdieresis;
layers = (
{
layerId = "DC22FA31-3913-472E-8859-7ACF2F9D1801";
paths = (
{
closed = 1;
nodes = (
"994 800 LINE",
"994 760 LINE",
"1103 760 LINE",
"923 89 LINE",
"743 760 LINE",
"817 760 LINE",
"817 800 LINE",
"10 800 LINE",
"10 760 LINE",
"76 760 LINE",
"280 0 LINE",
"519 0 LINE",
"613 352 LINE",
"708 0 LINE",
"947 0 LINE",
"1151 760 LINE",
"1217 760 LINE",
"1217 800 LINE"
);
},
{
closed = 1;
nodes = (
"315 760 LINE",
"504 760 LINE",
"590 440 LINE",
"495 89 LINE"
);
},
{
closed = 1;
nodes = (
"420 937 LINE",
"477 880 LINE",
"534 937 LINE",
"477 994 LINE"
);
},
{
closed = 1;
nodes = (
"639 937 LINE",
"696 880 LINE",
"753 937 LINE",
"696 994 LINE"
);
}
);
width = 1227;
}
);
unicode = 1E84;
},
{
color = 3;
glyphname = Wgrave;
layers = (
{
layerId = "DC22FA31-3913-472E-8859-7ACF2F9D1801";
paths = (
{
closed = 1;
nodes = (
"530 1044 LINE",
"578 1044 LINE",
"669 860 LINE",
"621 860 LINE"
);
},
{
closed = 1;
nodes = (
"1217 800 LINE",
"1217 760 LINE",
"1151 760 LINE",
"947 0 LINE",
"708 0 LINE",
"613 352 LINE",
"519 0 LINE",
"280 0 LINE",
"76 760 LINE",
"10 760 LINE",
"10 800 LINE",
"817 800 LINE",
"817 760 LINE",
"743 760 LINE",
"923 89 LINE",
"1103 760 LINE",
"994 760 LINE",
"994 800 LINE"
);
},
{
closed = 1;
nodes = (
"495 89 LINE",
"590 440 LINE",
"504 760 LINE",
"315 760 LINE"
);
}
);
width = 1227;
}
);
unicode = 1E80;
},
{
color = 3;
glyphname = X;
layers = (
{
guideLines = (
{
angle = 90;
position = "{865, 0}";
},
{
angle = 90;
position = "{50, 0}";
},
{
angle = 234.02;
position = "{151, 17}";
}
);
layerId = "250BFE77-6966-4096-8B12-BBBEB1F7701C";
name = "Bold Nov 25 15, 16:04";
paths = (
{
closed = 1;
nodes = (
"347 760 LINE",
"780 40 LINE",
"600 40 LINE",
"167 760 LINE"
);
},
{
closed = 1;
nodes = (
"95 800 LINE",
"576 0 LINE",
"854 0 LINE",
"373 800 LINE"
);
},
{
closed = 1;
nodes = (
"50 760 LINE",
"468 760 LINE",
"468 800 LINE",
"50 800 LINE"
);
},
{
closed = 1;
nodes = (
"478 0 LINE",
"899 0 LINE",
"899 40 LINE",
"478 40 LINE"
);
},
{
closed = 1;
nodes = (
"525 488 LINE",
"550 448 LINE",
"791 780 LINE",
"737 780 LINE"
);
},
{
closed = 1;
nodes = (
"656 760 LINE",
"850 760 LINE",
"850 800 LINE",
"656 800 LINE"
);
},
{
closed = 1;
nodes = (
"234 40 LINE",
"40 40 LINE",
"40 0 LINE",
"234 0 LINE"
);
},
{
closed = 1;
nodes = (
"151 17 LINE",
"394 352 LINE",
"370 393 LINE",
"97 17 LINE"
);
}
);
width = 939;
},
{
guideLines = (
{
angle = 90;
position = "{853, 0}";
},
{
angle = 90;
position = "{38, 0}";
},
{
angle = 54.36;
position = "{149, 17}";
},
{
angle = 301.02;
position = "{361, 800}";
}
);
layerId = "DC22FA31-3913-472E-8859-7ACF2F9D1801";
paths = (
{
closed = 1;
nodes = (
"554 480 LINE",
"755 760 LINE",
"839 760 LINE",
"839 800 LINE",
"605 800 LINE",
"605 760 LINE",
"701 760 LINE",
"529 521 LINE",
"385 760 LINE",
"479 760 LINE",
"479 800 LINE",
"38 800 LINE",
"38 760 LINE",
"107 760 LINE",
"344 365 LINE",
"111 40 LINE",
"25 40 LINE",
"25 0 LINE",
"259 0 LINE",
"259 40 LINE",
"165 40 LINE",
"369 324 LINE",
"540 40 LINE",
"444 40 LINE",
"444 0 LINE",
"887 0 LINE",
"887 40 LINE",
"818 40 LINE"
);
}
);
width = 927;
}
);
unicode = 0058;
},
{
color = 3;
glyphname = Y;
layers = (
{
guideLines = (
{
angle = 296.05;
position = "{268, 774}";
},
{
angle = 63.95;
position = "{499, 401}";
}
);
layerId = "79C54412-2F32-42EA-A8F9-5FA3EE30323B";
name = "Bold Nov 27 15, 11:40";
paths = (
{
closed = 1;
nodes = (
"68 774 LINE",
"269 362 LINE",
"269 20 LINE",
"314 20 LINE",
"314 370 LINE",
"117 774 LINE"
);
},
{
closed = 1;
nodes = (
"189 40 LINE",
"189 0 LINE",
"579 0 LINE",
"579 40 LINE"
);
},
{
closed = 1;
nodes = (
"268 774 LINE",
"454 393 LINE",
"454 20 LINE",
"499 20 LINE",
"499 401 LINE",
"317 774 LINE"
);
},
{
closed = 1;
nodes = (
"0 760 LINE",
"385 760 LINE",
"385 800 LINE",
"0 800 LINE"
);
},
{
closed = 1;
nodes = (
"537 760 LINE",
"750 760 LINE",
"750 800 LINE",
"537 800 LINE"
);
},
{
closed = 1;
nodes = (
"636 783 LINE",
"450 401 LINE",
"499 401 LINE",
"685 783 LINE"
);
}
);
width = 770;
},
{
guideLines = (
{
angle = 296.05;
position = "{124, 760}";
}
);
layerId = "00F67952-018F-4F74-B8A5-160890C63673";
name = "Bold Nov 27 15, 11:24";
paths = (
{
closed = 1;
nodes = (
"304 800 LINE",
"55 800 LINE",
"269 360 LINE",
"269 20 LINE",
"314 20 LINE",
"314 369 LINE",
"124 760 LINE",
"274 760 LINE",
"454 390 LINE",
"454 20 LINE",
"499 20 LINE",
"499 399 LINE"
);
},
{
closed = 1;
nodes = (
"189 40 LINE",
"189 0 LINE",
"579 0 LINE",
"579 40 LINE"
);
}
);
width = 770;
},
{
guideLines = (
{
angle = 63.95;
position = "{451, 361}";
}
);
layerId = "A7285852-4D39-4DBB-A82F-14BD52B7A86F";
name = "Bold Nov 27 15, 11:17";
paths = (
{
closed = 1;
nodes = (
"285 800 LINE",
"55 800 LINE",
"269 361 LINE",
"269 20 LINE",
"314 20 LINE",
"314 360 LINE",
"119 760 LINE",
"253 760 LINE",
"454 348 LINE",
"454 20 LINE",
"499 20 LINE",
"499 361 LINE"
);
},
{
closed = 1;
nodes = (
"0 760 LINE",
"385 760 LINE",
"385 800 LINE",
"0 800 LINE"
);
},
{
closed = 1;
nodes = (
"557 760 LINE",
"770 760 LINE",
"770 800 LINE",
"557 800 LINE"
);
},
{
closed = 1;
nodes = (
"189 40 LINE",
"189 0 LINE",
"579 0 LINE",
"579 40 LINE"
);
},
{
closed = 1;
nodes = (
"657 783 LINE",
"451 361 LINE",
"499 361 LINE",
"705 783 LINE"
);
}
);
width = 770;
},
{
guideLines = (
{
angle = 112.97;
position = "{305, 800}";
}
);
layerId = "CF4CE3E2-53BD-449F-8F99-E0358DAEED51";
name = "Bold Nov 25 15, 16:02";
paths = (
{
closed = 1;
nodes = (
"305 800 LINE",
"75 800 LINE",
"269 340 LINE",
"269 20 LINE",
"314 20 LINE",
"314 345 LINE",
"139 760 LINE",
"273 760 LINE",
"454 331 LINE",
"454 20 LINE",
"499 20 LINE",
"499 340 LINE"
);
},
{
closed = 1;
nodes = (
"20 760 LINE",
"388 760 LINE",
"388 800 LINE",
"20 800 LINE"
);
},
{
closed = 1;
nodes = (
"558 760 LINE",
"748 760 LINE",
"748 800 LINE",
"558 800 LINE"
);
},
{
closed = 1;
nodes = (
"189 40 LINE",
"189 0 LINE",
"579 0 LINE",
"579 40 LINE"
);
},
{
closed = 1;
nodes = (
"451 340 LINE",
"499 340 LINE",
"693 800 LINE",
"645 800 LINE"
);
}
);
width = 769;
},
{
guideLines = (
{
angle = 247.03;
position = "{449, 340}";
}
);
layerId = "FE32D00B-E792-4997-BD5B-937950CD401B";
name = "Bold Nov 25 15, 15:59";
paths = (
{
closed = 1;
nodes = (
"273 760 LINE",
"433 380 LINE",
"299 380 LINE",
"139 760 LINE"
);
},
{
closed = 1;
nodes = (
"75 800 LINE",
"269 340 LINE",
"499 340 LINE",
"305 800 LINE"
);
},
{
closed = 1;
nodes = (
"20 760 LINE",
"388 760 LINE",
"388 800 LINE",
"20 800 LINE"
);
},
{
closed = 1;
nodes = (
"558 760 LINE",
"748 760 LINE",
"748 800 LINE",
"558 800 LINE"
);
},
{
closed = 1;
nodes = (
"449 340 LINE",
"499 340 LINE",
"693 800 LINE",
"643 800 LINE"
);
},
{
closed = 1;
nodes = (
"499 320 LINE",
"499 20 LINE",
"454 20 LINE",
"454 320 LINE"
);
},
{
closed = 1;
nodes = (
"269 20 LINE",
"269 320 LINE",
"314 320 LINE",
"314 20 LINE"
);
},
{
closed = 1;
nodes = (
"579 0 LINE",
"189 0 LINE",
"189 40 LINE",
"579 40 LINE"
);
}
);
width = 769;
},
{
guideLines = (
{
angle = 292.23;
position = "{307, 800}";
}
);
layerId = "558B8E3F-C854-45A4-B189-4CC9B497D6C2";
name = "Bold Nov 25 15, 15:57";
paths = (
{
closed = 1;
nodes = (
"275 760 LINE",
"437 360 LINE",
"301 360 LINE",
"139 760 LINE"
);
},
{
closed = 1;
nodes = (
"75 800 LINE",
"269 320 LINE",
"501 320 LINE",
"307 800 LINE"
);
},
{
closed = 1;
nodes = (
"20 760 LINE",
"390 760 LINE",
"390 800 LINE",
"20 800 LINE"
);
},
{
closed = 1;
nodes = (
"562 760 LINE",
"750 760 LINE",
"750 800 LINE",
"562 800 LINE"
);
},
{
closed = 1;
nodes = (
"452 320 LINE",
"501 320 LINE",
"695 800 LINE",
"647 800 LINE"
);
}
);
width = 769;
},
{
guideLines = (
{
angle = 296.05;
position = "{307, 774}";
},
{
angle = 63.95;
position = "{646, 783}";
}
);
layerId = "DC22FA31-3913-472E-8859-7ACF2F9D1801";
paths = (
{
closed = 1;
nodes = (
"760 760 LINE",
"760 800 LINE",
"547 800 LINE",
"547 760 LINE",
"635 760 LINE",
"475 430 LINE",
"314 760 LINE",
"375 760 LINE",
"375 800 LINE",
"-10 800 LINE",
"-10 760 LINE",
"65 760 LINE",
"269 342 LINE",
"269 40 LINE",
"189 40 LINE",
"189 0 LINE",
"579 0 LINE",
"579 40 LINE",
"499 40 LINE",
"499 380 LINE",
"684 760 LINE"
);
}
);
width = 770;
}
);
unicode = 0059;
},
{
color = 3;
glyphname = Yacute;
layers = (
{
layerId = "DC22FA31-3913-472E-8859-7ACF2F9D1801";
paths = (
{
closed = 1;
nodes = (
"760 760 LINE",
"760 800 LINE",
"547 800 LINE",
"547 760 LINE",
"635 760 LINE",
"475 430 LINE",
"314 760 LINE",
"375 760 LINE",
"375 800 LINE",
"-10 800 LINE",
"-10 760 LINE",
"65 760 LINE",
"269 342 LINE",
"269 40 LINE",
"189 40 LINE",
"189 0 LINE",
"579 0 LINE",
"579 40 LINE",
"499 40 LINE",
"499 380 LINE",
"684 760 LINE"
);
},
{
closed = 1;
nodes = (
"482 860 LINE",
"583 1004 LINE",
"535 1004 LINE",
"434 860 LINE"
);
}
);
width = 770;
}
);
unicode = 00DD;
},
{
color = 3;
glyphname = Ycircumflex;
layers = (
{
layerId = "DC22FA31-3913-472E-8859-7ACF2F9D1801";
paths = (
{
closed = 1;
nodes = (
"760 760 LINE",
"760 800 LINE",
"547 800 LINE",
"547 760 LINE",
"635 760 LINE",
"475 430 LINE",
"314 760 LINE",
"375 760 LINE",
"375 800 LINE",
"-10 800 LINE",
"-10 760 LINE",
"65 760 LINE",
"269 342 LINE",
"269 40 LINE",
"189 40 LINE",
"189 0 LINE",
"579 0 LINE",
"579 40 LINE",
"499 40 LINE",
"499 380 LINE",
"684 760 LINE"
);
},
{
closed = 1;
nodes = (
"363 860 LINE",
"481 1014 LINE",
"431 1014 LINE",
"313 860 LINE"
);
},
{
closed = 1;
nodes = (
"599 860 LINE",
"481 1014 LINE",
"431 1014 LINE",
"549 860 LINE"
);
}
);
width = 770;
}
);
unicode = 0176;
},
{
color = 3;
glyphname = Ydieresis;
layers = (
{
layerId = "DC22FA31-3913-472E-8859-7ACF2F9D1801";
paths = (
{
closed = 1;
nodes = (
"760 760 LINE",
"760 800 LINE",
"547 800 LINE",
"547 760 LINE",
"635 760 LINE",
"475 430 LINE",
"314 760 LINE",
"375 760 LINE",
"375 800 LINE",
"-10 800 LINE",
"-10 760 LINE",
"65 760 LINE",
"269 342 LINE",
"269 40 LINE",
"189 40 LINE",
"189 0 LINE",
"579 0 LINE",
"579 40 LINE",
"499 40 LINE",
"499 380 LINE",
"684 760 LINE"
);
},
{
closed = 1;
nodes = (
"294 937 LINE",
"351 880 LINE",
"408 937 LINE",
"351 994 LINE"
);
},
{
closed = 1;
nodes = (
"513 937 LINE",
"570 880 LINE",
"627 937 LINE",
"570 994 LINE"
);
}
);
width = 770;
}
);
unicode = 0178;
},
{
color = 3;
glyphname = Ygrave;
layers = (
{
layerId = "DC22FA31-3913-472E-8859-7ACF2F9D1801";
paths = (
{
closed = 1;
nodes = (
"760 760 LINE",
"760 800 LINE",
"547 800 LINE",
"547 760 LINE",
"635 760 LINE",
"475 430 LINE",
"314 760 LINE",
"375 760 LINE",
"375 800 LINE",
"-10 800 LINE",
"-10 760 LINE",
"65 760 LINE",
"269 342 LINE",
"269 40 LINE",
"189 40 LINE",
"189 0 LINE",
"579 0 LINE",
"579 40 LINE",
"499 40 LINE",
"499 380 LINE",
"684 760 LINE"
);
},
{
closed = 1;
nodes = (
"418 860 LINE",
"466 860 LINE",
"375 1044 LINE",
"327 1044 LINE"
);
}
);
width = 770;
}
);
unicode = 1EF2;
},
{
color = 3;
glyphname = Z;
layers = (
{
guideLines = (
{
angle = 44.59;
position = "{68, 248}";
}
);
layerId = "071B7F67-E6CD-4E90-92F6-136F591B14C7";
name = "Regular Jan 8 16, 11:57";
paths = (
{
closed = 1;
nodes = (
"704 800 LINE",
"736 762 LINE",
"320 30 LINE",
"265 30 LINE",
"674 750 LINE",
"664 760 LINE",
"173 760 LINE",
"113 700 LINE",
"82 731 LINE",
"151 800 LINE"
);
},
{
closed = 1;
nodes = (
"113 560 LINE",
"68 560 LINE",
"68 810 LINE",
"113 810 LINE"
);
},
{
closed = 1;
nodes = (
"680 240 LINE",
"725 240 LINE",
"725 -10 LINE",
"680 -10 LINE"
);
},
{
closed = 1;
nodes = (
"680 100 LINE",
"711 69 LINE",
"642 0 LINE",
"71 0 LINE",
"40 37 LINE",
"457 770 LINE",
"512 770 LINE",
"103 50 LINE",
"112 40 LINE",
"620 40 LINE"
);
}
);
width = 776;
},
{
guideLines = (
{
angle = 44.59;
position = "{60, 248}";
}
);
layerId = "FDA63DCE-1536-4671-B82C-2856B0C81802";
name = "Regular Jan 8 16, 11:46";
paths = (
{
closed = 1;
nodes = (
"70 696 LINE",
"174 800 LINE",
"668 800 LINE",
"711 757 LINE",
"711 552 LINE",
"188 38 LINE",
"123 38 LINE",
"666 572 LINE",
"666 740 LINE",
"646 760 LINE",
"195 760 LINE",
"115 680 LINE",
"115 580 LINE",
"70 580 LINE"
);
},
{
closed = 1;
nodes = (
"60 248 LINE",
"583 762 LINE",
"648 762 LINE",
"105 228 LINE",
"105 60 LINE",
"125 40 LINE",
"596 40 LINE",
"686 130 LINE",
"686 230 LINE",
"731 230 LINE",
"731 113 LINE",
"618 0 LINE",
"103 0 LINE",
"60 43 LINE"
);
},
{
closed = 1;
nodes = (
"115 810 LINE",
"115 660 LINE",
"70 660 LINE",
"70 810 LINE"
);
},
{
closed = 1;
nodes = (
"731 144 LINE",
"731 -10 LINE",
"686 -10 LINE",
"686 144 LINE"
);
}
);
width = 831;
},
{
guideLines = (
{
angle = 44.59;
position = "{60, 248}";
}
);
layerId = "9D18418C-CF09-4A57-92E8-B5CECC400D62";
name = "Regular Dec 29 15, 21:59";
paths = (
{
closed = 1;
nodes = (
"70 696 LINE",
"174 800 LINE",
"668 800 LINE",
"711 757 LINE",
"711 552 LINE",
"188 38 LINE",
"123 38 LINE",
"666 572 LINE",
"666 740 LINE",
"646 760 LINE",
"195 760 LINE",
"115 680 LINE",
"115 580 LINE",
"70 580 LINE"
);
},
{
closed = 1;
nodes = (
"60 248 LINE",
"583 762 LINE",
"648 762 LINE",
"105 228 LINE",
"105 60 LINE",
"125 40 LINE",
"596 40 LINE",
"686 130 LINE",
"686 230 LINE",
"731 230 LINE",
"731 113 LINE",
"618 0 LINE",
"103 0 LINE",
"60 43 LINE"
);
},
{
closed = 1;
nodes = (
"115 810 LINE",
"115 660 LINE",
"70 660 LINE",
"70 810 LINE"
);
},
{
closed = 1;
nodes = (
"731 144 LINE",
"731 -10 LINE",
"686 -10 LINE",
"686 144 LINE"
);
}
);
width = 831;
},
{
layerId = "C7CDC515-3083-4818-8FE4-86AAC01457EA";
name = "Bold Nov 25 15, 16:08";
paths = (
{
closed = 1;
nodes = (
"50 716 LINE",
"134 800 LINE",
"688 800 LINE",
"741 747 LINE",
"741 542 LINE",
"168 28 LINE",
"99 28 LINE",
"696 560 LINE",
"696 730 LINE",
"666 760 LINE",
"155 760 LINE",
"95 700 LINE",
"95 630 LINE",
"50 630 LINE"
);
},
{
closed = 1;
nodes = (
"40 258 LINE",
"613 772 LINE",
"682 772 LINE",
"85 240 LINE",
"85 70 LINE",
"115 40 LINE",
"635 40 LINE",
"705 110 LINE",
"705 190 LINE",
"750 190 LINE",
"750 93 LINE",
"657 0 LINE",
"93 0 LINE",
"40 53 LINE"
);
},
{
closed = 1;
nodes = (
"95 810 LINE",
"95 680 LINE",
"50 680 LINE",
"50 810 LINE"
);
},
{
closed = 1;
nodes = (
"750 124 LINE",
"750 -10 LINE",
"705 -10 LINE",
"705 124 LINE"
);
}
);
width = 900;
},
{
guideLines = (
{
angle = 44.59;
position = "{60, 248}";
}
);
layerId = "29583386-20B4-4675-9D08-1E3716593811";
name = "Bold Jan 29 16, 12:01";
paths = (
{
closed = 1;
nodes = (
"686 130 LINE",
"596 40 LINE",
"190 40 LINE",
"711 552 LINE",
"711 757 LINE",
"668 800 LINE",
"174 800 LINE",
"115 741 LINE",
"115 810 LINE",
"70 810 LINE",
"70 580 LINE",
"115 580 LINE",
"115 680 LINE",
"195 760 LINE",
"581 760 LINE",
"60 248 LINE",
"60 43 LINE",
"103 0 LINE",
"618 0 LINE",
"686 68 LINE",
"686 -10 LINE",
"731 -10 LINE",
"731 230 LINE",
"686 230 LINE"
);
}
);
width = 831;
},
{
guideLines = (
{
angle = 44.59;
position = "{60, 248}";
}
);
layerId = "DC22FA31-3913-472E-8859-7ACF2F9D1801";
paths = (
{
closed = 1;
nodes = (
"451 760 LINE",
"113 760 LINE",
"113 570 LINE",
"68 570 LINE",
"68 800 LINE",
"704 800 LINE",
"736 762 LINE",
"326 40 LINE",
"680 40 LINE",
"680 230 LINE",
"725 230 LINE",
"725 0 LINE",
"71 0 LINE",
"40 37 LINE"
);
}
);
width = 776;
}
);
unicode = 005A;
},
{
color = 3;
glyphname = Zacute;
layers = (
{
layerId = "DC22FA31-3913-472E-8859-7ACF2F9D1801";
paths = (
{
closed = 1;
nodes = (
"451 760 LINE",
"113 760 LINE",
"113 570 LINE",
"68 570 LINE",
"68 800 LINE",
"704 800 LINE",
"736 762 LINE",
"326 40 LINE",
"680 40 LINE",
"680 230 LINE",
"725 230 LINE",
"725 0 LINE",
"71 0 LINE",
"40 37 LINE"
);
},
{
closed = 1;
nodes = (
"380 860 LINE",
"481 1004 LINE",
"529 1004 LINE",
"428 860 LINE"
);
}
);
width = 776;
}
);
unicode = 0179;
},
{
color = 3;
glyphname = Zcaron;
layers = (
{
layerId = "DC22FA31-3913-472E-8859-7ACF2F9D1801";
paths = (
{
closed = 1;
nodes = (
"451 760 LINE",
"113 760 LINE",
"113 570 LINE",
"68 570 LINE",
"68 800 LINE",
"704 800 LINE",
"736 762 LINE",
"326 40 LINE",
"680 40 LINE",
"680 230 LINE",
"725 230 LINE",
"725 0 LINE",
"71 0 LINE",
"40 37 LINE"
);
},
{
closed = 1;
nodes = (
"425 860 LINE",
"375 860 LINE",
"257 1014 LINE",
"307 1014 LINE"
);
},
{
closed = 1;
nodes = (
"425 860 LINE",
"375 860 LINE",
"493 1014 LINE",
"543 1014 LINE"
);
}
);
width = 776;
}
);
unicode = 017D;
},
{
color = 3;
glyphname = Zdotaccent;
layers = (
{
layerId = "DC22FA31-3913-472E-8859-7ACF2F9D1801";
paths = (
{
closed = 1;
nodes = (
"451 760 LINE",
"113 760 LINE",
"113 570 LINE",
"68 570 LINE",
"68 800 LINE",
"704 800 LINE",
"736 762 LINE",
"326 40 LINE",
"680 40 LINE",
"680 230 LINE",
"725 230 LINE",
"725 0 LINE",
"71 0 LINE",
"40 37 LINE"
);
},
{
closed = 1;
nodes = (
"409 994 LINE",
"466 937 LINE",
"409 880 LINE",
"352 937 LINE"
);
}
);
width = 776;
}
);
unicode = 017B;
},
{
color = 3;
glyphname = a;
layers = (
{
guideLines = (
{
position = "{0, 90}";
},
{
angle = 315;
position = "{494, 580}";
}
);
layerId = "9B33B913-1AC6-47BD-9450-25110D83086D";
name = "Bold Nov 23 15, 16:31";
paths = (
{
closed = 1;
nodes = (
"490 40 LINE",
"695 40 LINE",
"695 0 LINE",
"468 0 LINE",
"395 73 LINE",
"395 582 LINE",
"440 582 LINE",
"440 90 LINE"
);
},
{
closed = 1;
nodes = (
"245 20 LINE",
"245 302 LINE",
"290 302 LINE",
"290 20 LINE"
);
},
{
closed = 1;
nodes = (
"367 0 LINE",
"128 0 LINE",
"55 73 LINE",
"55 247 LINE",
"128 320 LINE",
"413 320 LINE",
"413 280 LINE",
"150 280 LINE",
"100 230 LINE",
"100 90 LINE",
"150 40 LINE",
"345 40 LINE",
"405 100 LINE",
"435 68 LINE"
);
},
{
closed = 1;
nodes = (
"185 560 LINE",
"125 500 LINE",
"125 440 LINE",
"245 440 LINE",
"245 581 LINE",
"290 581 LINE",
"290 400 LINE",
"80 400 LINE",
"80 517 LINE",
"163 600 LINE",
"542 600 LINE",
"625 517 LINE",
"625 18 LINE",
"580 18 LINE",
"580 500 LINE",
"520 560 LINE"
);
}
);
width = 705;
},
{
guideLines = (
{
position = "{0, 90}";
},
{
angle = 315;
position = "{494, 580}";
}
);
layerId = "5BB54C62-8E44-44E7-9F31-7990ACA2CC9D";
name = "Bold Nov 23 15, 16:29";
paths = (
{
closed = 1;
nodes = (
"450 40 LINE",
"635 40 LINE",
"635 0 LINE",
"428 0 LINE",
"355 73 LINE",
"355 502 LINE",
"400 502 LINE",
"400 90 LINE"
);
},
{
closed = 1;
nodes = (
"225 20 LINE",
"225 262 LINE",
"270 262 LINE",
"270 20 LINE"
);
},
{
closed = 1;
nodes = (
"327 0 LINE",
"128 0 LINE",
"55 73 LINE",
"55 207 LINE",
"128 280 LINE",
"373 280 LINE",
"373 240 LINE",
"150 240 LINE",
"100 190 LINE",
"100 90 LINE",
"150 40 LINE",
"305 40 LINE",
"365 100 LINE",
"395 68 LINE"
);
},
{
closed = 1;
nodes = (
"225 340 LINE",
"225 504 LINE",
"270 504 LINE",
"270 340 LINE"
);
},
{
closed = 1;
nodes = (
"80 447 LINE",
"153 520 LINE",
"482 520 LINE",
"565 437 LINE",
"565 18 LINE",
"520 18 LINE",
"520 420 LINE",
"460 480 LINE",
"175 480 LINE",
"125 430 LINE",
"125 380 LINE",
"241 380 LINE",
"241 340 LINE",
"80 340 LINE"
);
}
);
width = 835;
},
{
guideLines = (
{
position = "{0, 110}";
},
{
angle = 315;
position = "{103, 587}";
}
);
layerId = "F511F717-0591-4804-9973-9179C8DCBAA2";
name = "Bold Nov 16 15, 14:36";
paths = (
{
closed = 1;
nodes = (
"543 40 LINE",
"728 40 LINE",
"728 0 LINE",
"521 0 LINE",
"438 83 LINE",
"438 542 LINE",
"483 542 LINE",
"483 100 LINE"
);
},
{
closed = 1;
nodes = (
"283 20 LINE",
"283 304 LINE",
"328 304 LINE",
"328 20 LINE"
);
},
{
closed = 1;
nodes = (
"400 0 LINE",
"211 0 LINE",
"128 83 LINE",
"128 239 LINE",
"211 322 LINE",
"456 322 LINE",
"456 282 LINE",
"233 282 LINE",
"173 222 LINE",
"173 100 LINE",
"233 40 LINE",
"378 40 LINE",
"448 110 LINE",
"478 78 LINE"
);
},
{
closed = 1;
nodes = (
"236 560 LINE",
"565 560 LINE",
"648 477 LINE",
"648 18 LINE",
"603 18 LINE",
"603 460 LINE",
"543 520 LINE",
"258 520 LINE",
"174 436 LINE",
"143 467 LINE"
);
}
);
width = 800;
},
{
guideLines = (
{
position = "{0, 110}";
},
{
angle = 315;
position = "{103, 587}";
}
);
layerId = "30AE70D9-8E96-4F89-9604-17FA5FF90B3C";
name = "Bold Nov 16 15, 13:57";
paths = (
{
closed = 1;
nodes = (
"553 40 LINE",
"748 40 LINE",
"748 0 LINE",
"531 0 LINE",
"438 93 LINE",
"438 662 LINE",
"483 662 LINE",
"483 110 LINE"
);
},
{
closed = 1;
nodes = (
"247 20 LINE",
"247 384 LINE",
"292 384 LINE",
"292 20 LINE"
);
},
{
closed = 1;
nodes = (
"390 0 LINE",
"155 0 LINE",
"62 93 LINE",
"62 309 LINE",
"155 402 LINE",
"456 402 LINE",
"456 362 LINE",
"177 362 LINE",
"107 292 LINE",
"107 110 LINE",
"177 40 LINE",
"368 40 LINE",
"448 120 LINE",
"478 88 LINE"
);
},
{
closed = 1;
nodes = (
"186 680 LINE",
"575 680 LINE",
"668 587 LINE",
"668 18 LINE",
"623 18 LINE",
"623 570 LINE",
"553 640 LINE",
"208 640 LINE",
"114 546 LINE",
"83 577 LINE"
);
}
);
width = 800;
},
{
guideLines = (
{
position = "{0, 90}";
},
{
angle = 315;
position = "{537, 600}";
}
);
layerId = "B92A34DB-C667-49BA-B427-95821AE41A05";
name = "Bold Jan 29 16, 12:02";
paths = (
{
closed = 1;
nodes = (
"50 237 LINE",
"133 320 LINE",
"390 320 LINE",
"390 560 LINE",
"285 560 LINE",
"285 400 LINE",
"75 400 LINE",
"75 517 LINE",
"158 600 LINE",
"537 600 LINE",
"620 517 LINE",
"620 40 LINE",
"700 40 LINE",
"700 0 LINE",
"473 0 LINE",
"413 61 LINE",
"352 0 LINE",
"133 0 LINE",
"50 83 LINE"
);
},
{
closed = 1;
nodes = (
"330 40 LINE",
"390 100 LINE",
"390 280 LINE",
"285 280 LINE",
"285 40 LINE"
);
}
);
width = 720;
},
{
guideLines = (
{
position = "{0, 90}";
}
);
layerId = "DC22FA31-3913-472E-8859-7ACF2F9D1801";
paths = (
{
closed = 1;
nodes = (
"60 237 LINE",
"143 320 LINE",
"400 320 LINE",
"400 560 LINE",
"295 560 LINE",
"295 400 LINE",
"85 400 LINE",
"85 517 LINE",
"168 600 LINE",
"547 600 LINE",
"630 517 LINE",
"630 40 LINE",
"710 40 LINE",
"710 0 LINE",
"483 0 LINE",
"423 61 LINE",
"362 0 LINE",
"143 0 LINE",
"60 83 LINE"
);
},
{
closed = 1;
nodes = (
"340 40 LINE",
"400 100 LINE",
"400 280 LINE",
"295 280 LINE",
"295 40 LINE"
);
}
);
width = 730;
}
);
unicode = 0061;
},
{
color = 3;
glyphname = aacute;
layers = (
{
layerId = "DC22FA31-3913-472E-8859-7ACF2F9D1801";
paths = (
{
closed = 1;
nodes = (
"60 237 LINE",
"143 320 LINE",
"400 320 LINE",
"400 560 LINE",
"295 560 LINE",
"295 400 LINE",
"85 400 LINE",
"85 517 LINE",
"168 600 LINE",
"547 600 LINE",
"630 517 LINE",
"630 40 LINE",
"710 40 LINE",
"710 0 LINE",
"483 0 LINE",
"423 61 LINE",
"362 0 LINE",
"143 0 LINE",
"60 83 LINE"
);
},
{
closed = 1;
nodes = (
"340 40 LINE",
"400 100 LINE",
"400 280 LINE",
"295 280 LINE",
"295 40 LINE"
);
},
{
closed = 1;
nodes = (
"326 660 LINE",
"427 804 LINE",
"475 804 LINE",
"374 660 LINE"
);
}
);
width = 730;
}
);
unicode = 00E1;
},
{
color = 3;
glyphname = abreve;
layers = (
{
layerId = "DC22FA31-3913-472E-8859-7ACF2F9D1801";
paths = (
{
closed = 1;
nodes = (
"60 237 LINE",
"143 320 LINE",
"400 320 LINE",
"400 560 LINE",
"295 560 LINE",
"295 400 LINE",
"85 400 LINE",
"85 517 LINE",
"168 600 LINE",
"547 600 LINE",
"630 517 LINE",
"630 40 LINE",
"710 40 LINE",
"710 0 LINE",
"483 0 LINE",
"423 61 LINE",
"362 0 LINE",
"143 0 LINE",
"60 83 LINE"
);
},
{
closed = 1;
nodes = (
"340 40 LINE",
"400 100 LINE",
"400 280 LINE",
"295 280 LINE",
"295 40 LINE"
);
},
{
closed = 1;
nodes = (
"149 733 LINE",
"149 820 LINE",
"194 820 LINE",
"194 750 LINE",
"244 700 LINE",
"464 700 LINE",
"514 750 LINE",
"514 820 LINE",
"559 820 LINE",
"559 733 LINE",
"486 660 LINE",
"222 660 LINE"
);
}
);
width = 730;
}
);
unicode = 0103;
},
{
color = 3;
glyphname = acaron;
layers = (
{
layerId = "DC22FA31-3913-472E-8859-7ACF2F9D1801";
paths = (
{
closed = 1;
nodes = (
"60 237 LINE",
"143 320 LINE",
"400 320 LINE",
"400 560 LINE",
"295 560 LINE",
"295 400 LINE",
"85 400 LINE",
"85 517 LINE",
"168 600 LINE",
"547 600 LINE",
"630 517 LINE",
"630 40 LINE",
"710 40 LINE",
"710 0 LINE",
"483 0 LINE",
"423 61 LINE",
"362 0 LINE",
"143 0 LINE",
"60 83 LINE"
);
},
{
closed = 1;
nodes = (
"340 40 LINE",
"400 100 LINE",
"400 280 LINE",
"295 280 LINE",
"295 40 LINE"
);
},
{
closed = 1;
nodes = (
"380 660 LINE",
"330 660 LINE",
"212 814 LINE",
"262 814 LINE"
);
},
{
closed = 1;
nodes = (
"380 660 LINE",
"330 660 LINE",
"448 814 LINE",
"498 814 LINE"
);
}
);
width = 730;
}
);
unicode = 01CE;
},
{
color = 3;
glyphname = acircumflex;
layers = (
{
layerId = "DC22FA31-3913-472E-8859-7ACF2F9D1801";
paths = (
{
closed = 1;
nodes = (
"60 237 LINE",
"143 320 LINE",
"400 320 LINE",
"400 560 LINE",
"295 560 LINE",
"295 400 LINE",
"85 400 LINE",
"85 517 LINE",
"168 600 LINE",
"547 600 LINE",
"630 517 LINE",
"630 40 LINE",
"710 40 LINE",
"710 0 LINE",
"483 0 LINE",
"423 61 LINE",
"362 0 LINE",
"143 0 LINE",
"60 83 LINE"
);
},
{
closed = 1;
nodes = (
"340 40 LINE",
"400 100 LINE",
"400 280 LINE",
"295 280 LINE",
"295 40 LINE"
);
},
{
closed = 1;
nodes = (
"202 660 LINE",
"320 814 LINE",
"370 814 LINE",
"252 660 LINE"
);
},
{
closed = 1;
nodes = (
"438 660 LINE",
"320 814 LINE",
"370 814 LINE",
"488 660 LINE"
);
}
);
width = 730;
}
);
unicode = 00E2;
},
{
color = 3;
glyphname = adieresis;
layers = (
{
layerId = "DC22FA31-3913-472E-8859-7ACF2F9D1801";
paths = (
{
closed = 1;
nodes = (
"60 237 LINE",
"143 320 LINE",
"400 320 LINE",
"400 560 LINE",
"295 560 LINE",
"295 400 LINE",
"85 400 LINE",
"85 517 LINE",
"168 600 LINE",
"547 600 LINE",
"630 517 LINE",
"630 40 LINE",
"710 40 LINE",
"710 0 LINE",
"483 0 LINE",
"423 61 LINE",
"362 0 LINE",
"143 0 LINE",
"60 83 LINE"
);
},
{
closed = 1;
nodes = (
"340 40 LINE",
"400 100 LINE",
"400 280 LINE",
"295 280 LINE",
"295 40 LINE"
);
},
{
closed = 1;
nodes = (
"238 794 LINE",
"295 737 LINE",
"238 680 LINE",
"181 737 LINE"
);
},
{
closed = 1;
nodes = (
"457 794 LINE",
"514 737 LINE",
"457 680 LINE",
"400 737 LINE"
);
}
);
width = 730;
}
);
unicode = 00E4;
},
{
color = 3;
glyphname = agrave;
layers = (
{
layerId = "DC22FA31-3913-472E-8859-7ACF2F9D1801";
paths = (
{
closed = 1;
nodes = (
"60 237 LINE",
"143 320 LINE",
"400 320 LINE",
"400 560 LINE",
"295 560 LINE",
"295 400 LINE",
"85 400 LINE",
"85 517 LINE",
"168 600 LINE",
"547 600 LINE",
"630 517 LINE",
"630 40 LINE",
"710 40 LINE",
"710 0 LINE",
"483 0 LINE",
"423 61 LINE",
"362 0 LINE",
"143 0 LINE",
"60 83 LINE"
);
},
{
closed = 1;
nodes = (
"340 40 LINE",
"400 100 LINE",
"400 280 LINE",
"295 280 LINE",
"295 40 LINE"
);
},
{
closed = 1;
nodes = (
"258 844 LINE",
"306 844 LINE",
"397 660 LINE",
"349 660 LINE"
);
}
);
width = 730;
}
);
unicode = 00E0;
},
{
color = 3;
glyphname = amacron;
layers = (
{
layerId = "DC22FA31-3913-472E-8859-7ACF2F9D1801";
paths = (
{
closed = 1;
nodes = (
"60 237 LINE",
"143 320 LINE",
"400 320 LINE",
"400 560 LINE",
"295 560 LINE",
"295 400 LINE",
"85 400 LINE",
"85 517 LINE",
"168 600 LINE",
"547 600 LINE",
"630 517 LINE",
"630 40 LINE",
"710 40 LINE",
"710 0 LINE",
"483 0 LINE",
"423 61 LINE",
"362 0 LINE",
"143 0 LINE",
"60 83 LINE"
);
},
{
closed = 1;
nodes = (
"340 40 LINE",
"400 100 LINE",
"400 280 LINE",
"295 280 LINE",
"295 40 LINE"
);
},
{
closed = 1;
nodes = (
"187 720 LINE",
"527 720 LINE",
"527 680 LINE",
"187 680 LINE"
);
}
);
width = 730;
}
);
unicode = 0101;
},
{
color = 3;
glyphname = aogonek;
layers = (
{
layerId = "DC22FA31-3913-472E-8859-7ACF2F9D1801";
paths = (
{
closed = 1;
nodes = (
"60 237 LINE",
"143 320 LINE",
"400 320 LINE",
"400 560 LINE",
"295 560 LINE",
"295 400 LINE",
"85 400 LINE",
"85 517 LINE",
"168 600 LINE",
"547 600 LINE",
"630 517 LINE",
"630 40 LINE",
"710 40 LINE",
"710 0 LINE",
"483 0 LINE",
"423 61 LINE",
"362 0 LINE",
"143 0 LINE",
"60 83 LINE"
);
},
{
closed = 1;
nodes = (
"340 40 LINE",
"400 100 LINE",
"400 280 LINE",
"295 280 LINE",
"295 40 LINE"
);
},
{
closed = 1;
nodes = (
"458 -186 LINE",
"409 -235 LINE",
"285 -235 LINE",
"222 -172 LINE",
"222 -78 LINE",
"347 47 LINE",
"378 16 LINE",
"267 -95 LINE",
"267 -155 LINE",
"307 -195 LINE",
"387 -195 LINE",
"427 -155 LINE"
);
}
);
width = 730;
}
);
unicode = 0105;
},
{
color = 3;
glyphname = aring;
layers = (
{
layerId = "DC22FA31-3913-472E-8859-7ACF2F9D1801";
paths = (
{
closed = 1;
nodes = (
"60 237 LINE",
"143 320 LINE",
"400 320 LINE",
"400 560 LINE",
"295 560 LINE",
"295 400 LINE",
"85 400 LINE",
"85 517 LINE",
"168 600 LINE",
"547 600 LINE",
"630 517 LINE",
"630 40 LINE",
"710 40 LINE",
"710 0 LINE",
"483 0 LINE",
"423 61 LINE",
"362 0 LINE",
"143 0 LINE",
"60 83 LINE"
);
},
{
closed = 1;
nodes = (
"340 40 LINE",
"400 100 LINE",
"400 280 LINE",
"295 280 LINE",
"295 40 LINE"
);
},
{
closed = 1;
nodes = (
"414 749 LINE",
"353 811 LINE",
"291 750 LINE",
"352 688 LINE"
);
},
{
closed = 1;
nodes = (
"353 859 LINE",
"462 749 LINE",
"352 640 LINE",
"243 750 LINE"
);
}
);
width = 730;
}
);
unicode = 00E5;
},
{
color = 3;
glyphname = atilde;
layers = (
{
layerId = "DC22FA31-3913-472E-8859-7ACF2F9D1801";
paths = (
{
closed = 1;
nodes = (
"60 237 LINE",
"143 320 LINE",
"400 320 LINE",
"400 560 LINE",
"295 560 LINE",
"295 400 LINE",
"85 400 LINE",
"85 517 LINE",
"168 600 LINE",
"547 600 LINE",
"630 517 LINE",
"630 40 LINE",
"710 40 LINE",
"710 0 LINE",
"483 0 LINE",
"423 61 LINE",
"362 0 LINE",
"143 0 LINE",
"60 83 LINE"
);
},
{
closed = 1;
nodes = (
"340 40 LINE",
"400 100 LINE",
"400 280 LINE",
"295 280 LINE",
"295 40 LINE"
);
},
{
closed = 1;
nodes = (
"400 700 LINE",
"465 700 LINE",
"528 763 LINE",
"559 732 LINE",
"487 660 LINE",
"378 660 LINE",
"315 723 LINE",
"250 723 LINE",
"187 660 LINE",
"156 691 LINE",
"228 763 LINE",
"337 763 LINE"
);
}
);
width = 730;
}
);
unicode = 00E3;
},
{
color = 3;
glyphname = ae;
layers = (
{
layerId = "87731AE4-38BE-4264-9207-0EC82CCF0CCB";
name = "Bold Dec 5 15, 13:13";
paths = (
{
closed = 1;
nodes = (
"240 20 LINE",
"240 302 LINE",
"285 302 LINE",
"285 20 LINE"
);
},
{
closed = 1;
nodes = (
"528 0 LINE",
"133 0 LINE",
"50 83 LINE",
"50 237 LINE",
"133 320 LINE",
"408 320 LINE",
"408 280 LINE",
"155 280 LINE",
"95 220 LINE",
"95 100 LINE",
"155 40 LINE",
"506 40 LINE",
"576 110 LINE",
"606 78 LINE"
);
},
{
closed = 1;
nodes = (
"565 66 LINE",
"565 580 LINE",
"610 580 LINE",
"610 66 LINE"
);
},
{
closed = 1;
nodes = (
"730 270 LINE",
"730 582 LINE",
"775 582 LINE",
"775 270 LINE"
);
},
{
closed = 1;
nodes = (
"390 20 LINE",
"390 522 LINE",
"435 522 LINE",
"435 20 LINE"
);
},
{
closed = 1;
nodes = (
"330 560 LINE",
"180 560 LINE",
"120 500 LINE",
"120 440 LINE",
"240 440 LINE",
"240 581 LINE",
"285 581 LINE",
"285 400 LINE",
"75 400 LINE",
"75 517 LINE",
"158 600 LINE",
"352 600 LINE",
"433 519 LINE",
"402 488 LINE"
);
},
{
closed = 1;
nodes = (
"392 519 LINE",
"473 600 LINE",
"867 600 LINE",
"960 507 LINE",
"960 343 LINE",
"867 250 LINE",
"590 250 LINE",
"590 290 LINE",
"845 290 LINE",
"915 360 LINE",
"915 490 LINE",
"845 560 LINE",
"495 560 LINE",
"425 490 LINE"
);
},
{
closed = 1;
nodes = (
"601 110 LINE",
"671 40 LINE",
"845 40 LINE",
"929 124 LINE",
"960 93 LINE",
"867 0 LINE",
"649 0 LINE",
"569 80 LINE"
);
}
);
width = 1000;
},
{
layerId = "E7FB1E36-29C1-4E4B-8A8F-D830CF7BDB47";
name = "Bold Dec 5 15, 13:02";
paths = (
{
closed = 1;
nodes = (
"240 20 LINE",
"240 302 LINE",
"285 302 LINE",
"285 20 LINE"
);
},
{
closed = 1;
nodes = (
"352 0 LINE",
"133 0 LINE",
"50 83 LINE",
"50 237 LINE",
"133 320 LINE",
"408 320 LINE",
"408 280 LINE",
"155 280 LINE",
"95 220 LINE",
"95 100 LINE",
"155 40 LINE",
"330 40 LINE",
"400 110 LINE",
"430 78 LINE"
);
},
{
closed = 1;
nodes = (
"565 20 LINE",
"565 582 LINE",
"610 582 LINE",
"610 20 LINE"
);
},
{
closed = 1;
nodes = (
"730 270 LINE",
"730 582 LINE",
"775 582 LINE",
"775 270 LINE"
);
},
{
closed = 1;
nodes = (
"845 40 LINE",
"929 124 LINE",
"960 93 LINE",
"867 0 LINE",
"473 0 LINE",
"390 83 LINE",
"390 582 LINE",
"435 582 LINE",
"435 100 LINE",
"495 40 LINE"
);
},
{
closed = 1;
nodes = (
"448 560 LINE",
"180 560 LINE",
"120 500 LINE",
"120 440 LINE",
"240 440 LINE",
"240 581 LINE",
"285 581 LINE",
"285 400 LINE",
"75 400 LINE",
"75 517 LINE",
"158 600 LINE",
"470 600 LINE",
"500 570 LINE",
"530 600 LINE",
"867 600 LINE",
"960 507 LINE",
"960 343 LINE",
"867 250 LINE",
"590 250 LINE",
"590 290 LINE",
"845 290 LINE",
"915 360 LINE",
"915 490 LINE",
"845 560 LINE",
"552 560 LINE",
"500 508 LINE"
);
}
);
width = 720;
},
{
layerId = "D799D6AC-467A-49EB-8DB1-AE09D1BA6B04";
name = "Bold Dec 5 15, 12:53";
paths = (
{
closed = 1;
nodes = (
"240 20 LINE",
"240 302 LINE",
"285 302 LINE",
"285 20 LINE"
);
},
{
closed = 1;
nodes = (
"352 0 LINE",
"133 0 LINE",
"50 83 LINE",
"50 237 LINE",
"133 320 LINE",
"408 320 LINE",
"408 280 LINE",
"155 280 LINE",
"95 220 LINE",
"95 100 LINE",
"155 40 LINE",
"330 40 LINE",
"400 110 LINE",
"430 78 LINE"
);
},
{
closed = 1;
nodes = (
"537 0 LINE",
"473 0 LINE",
"390 83 LINE",
"390 582 LINE",
"435 582 LINE",
"435 100 LINE",
"495 40 LINE",
"515 40 LINE",
"575 100 LINE",
"575 500 LINE",
"515 560 LINE",
"180 560 LINE",
"120 500 LINE",
"120 440 LINE",
"240 440 LINE",
"240 581 LINE",
"285 581 LINE",
"285 400 LINE",
"75 400 LINE",
"75 517 LINE",
"158 600 LINE",
"537 600 LINE",
"620 517 LINE",
"620 83 LINE"
);
}
);
width = 720;
},
{
layerId = "DC22FA31-3913-472E-8859-7ACF2F9D1801";
paths = (
{
closed = 1;
nodes = (
"970 343 LINE",
"970 507 LINE",
"877 600 LINE",
"658 600 LINE",
"598 540 LINE",
"537 600 LINE",
"168 600 LINE",
"85 517 LINE",
"85 400 LINE",
"295 400 LINE",
"295 560 LINE",
"400 560 LINE",
"400 320 LINE",
"143 320 LINE",
"60 237 LINE",
"60 83 LINE",
"143 0 LINE",
"362 0 LINE",
"423 61 LINE",
"483 0 LINE",
"877 0 LINE",
"970 93 LINE",
"939 124 LINE",
"855 40 LINE",
"620 40 LINE",
"620 250 LINE",
"877 250 LINE"
);
},
{
closed = 1;
nodes = (
"740 560 LINE",
"740 290 LINE",
"620 290 LINE",
"620 500 LINE",
"680 560 LINE"
);
},
{
closed = 1;
nodes = (
"295 40 LINE",
"295 280 LINE",
"400 280 LINE",
"400 100 LINE",
"340 40 LINE"
);
}
);
width = 1005;
}
);
unicode = 00E6;
},
{
color = 3;
glyphname = b;
layers = (
{
guideLines = (
{
position = "{0, 110}";
}
);
layerId = "49109BAC-4A15-45B6-B20C-6C26A3963257";
name = "Bold Nov 19 15, 14:31";
paths = (
{
closed = 1;
nodes = (
"70 25 LINE",
"70 742 LINE",
"115 742 LINE",
"115 25 LINE"
);
},
{
closed = 1;
nodes = (
"240 660 LINE",
"180 720 LINE",
"0 720 LINE",
"0 760 LINE",
"202 760 LINE",
"285 677 LINE",
"285 83 LINE",
"202 0 LINE",
"70 0 LINE",
"70 40 LINE",
"180 40 LINE",
"240 100 LINE"
);
},
{
closed = 1;
nodes = (
"431 502 LINE",
"476 502 LINE",
"476 20 LINE",
"431 20 LINE"
);
},
{
closed = 1;
nodes = (
"345 40 LINE",
"536 40 LINE",
"606 110 LINE",
"606 410 LINE",
"536 480 LINE",
"361 480 LINE",
"285 404 LINE",
"256 437 LINE",
"339 520 LINE",
"558 520 LINE",
"651 427 LINE",
"651 93 LINE",
"558 0 LINE",
"323 0 LINE",
"244 79 LINE",
"275 110 LINE"
);
}
);
width = 691;
},
{
guideLines = (
{
position = "{0, 110}";
}
);
layerId = "91324F6D-C178-42D9-94F7-AC9487D15ABD";
name = "Bold Nov 18 15, 18:27";
paths = (
{
closed = 1;
nodes = (
"100 25 LINE",
"100 742 LINE",
"145 742 LINE",
"145 25 LINE"
);
},
{
closed = 1;
nodes = (
"270 650 LINE",
"200 720 LINE",
"30 720 LINE",
"30 760 LINE",
"222 760 LINE",
"315 667 LINE",
"315 93 LINE",
"222 0 LINE",
"30 0 LINE",
"30 40 LINE",
"200 40 LINE",
"270 110 LINE"
);
},
{
closed = 1;
nodes = (
"461 502 LINE",
"506 502 LINE",
"506 20 LINE",
"461 20 LINE"
);
},
{
closed = 1;
nodes = (
"385 40 LINE",
"566 40 LINE",
"636 110 LINE",
"636 410 LINE",
"566 480 LINE",
"391 480 LINE",
"315 404 LINE",
"286 437 LINE",
"369 520 LINE",
"588 520 LINE",
"681 427 LINE",
"681 93 LINE",
"588 0 LINE",
"363 0 LINE",
"274 89 LINE",
"305 120 LINE"
);
}
);
width = 720;
},
{
guideLines = (
{
position = "{0, 110}";
}
);
layerId = "DC22FA31-3913-472E-8859-7ACF2F9D1801";
paths = (
{
closed = 1;
nodes = (
"364 600 LINE",
"310 546 LINE",
"310 787 LINE",
"217 880 LINE",
"0 880 LINE",
"0 840 LINE",
"80 840 LINE",
"80 0 LINE",
"217 0 LINE",
"288 71 LINE",
"358 0 LINE",
"608 0 LINE",
"701 93 LINE",
"701 507 LINE",
"608 600 LINE"
);
},
{
closed = 1;
nodes = (
"310 484 LINE",
"386 560 LINE",
"466 560 LINE",
"466 40 LINE",
"380 40 LINE",
"310 110 LINE"
);
}
);
width = 751;
}
);
unicode = 0062;
},
{
color = 3;
glyphname = c;
layers = (
{
guideLines = (
{
angle = 315;
position = "{494, 600}";
}
);
layerId = "7F4EB8A4-BCAC-44D2-A0BD-DB72F5C33C60";
name = "Bold Nov 24 15, 12:15";
paths = (
{
closed = 1;
nodes = (
"216 16 LINE",
"261 16 LINE",
"261 500 LINE",
"216 500 LINE"
);
},
{
closed = 1;
nodes = (
"123 520 LINE",
"40 436 LINE",
"40 82 LINE",
"123 0 LINE",
"443 0 LINE",
"531 88 LINE",
"500 119 LINE",
"421 40 LINE",
"146 40 LINE",
"86 99 LINE",
"86 419 LINE",
"146 480 LINE",
"346 480 LINE",
"346 335 LINE",
"526 335 LINE",
"526 457 LINE",
"463 520 LINE"
);
},
{
closed = 1;
nodes = (
"391 480 LINE",
"441 480 LINE",
"481 440 LINE",
"481 375 LINE",
"391 375 LINE"
);
}
);
width = 566;
},
{
guideLines = (
{
angle = 315;
position = "{494, 600}";
}
);
layerId = "790C4350-420D-42B4-87D4-7E5B91187D82";
name = "Bold Nov 21 15, 12:14";
paths = (
{
closed = 1;
nodes = (
"216 16 LINE",
"261 16 LINE",
"261 500 LINE",
"216 500 LINE"
);
},
{
closed = 1;
nodes = (
"473 520 LINE",
"123 520 LINE",
"40 436 LINE",
"40 82 LINE",
"123 0 LINE",
"458 0 LINE",
"546 88 LINE",
"515 119 LINE",
"436 40 LINE",
"146 40 LINE",
"86 99 LINE",
"86 419 LINE",
"146 480 LINE",
"451 480 LINE",
"491 440 LINE",
"491 370 LINE",
"391 370 LINE",
"391 494 LINE",
"346 494 LINE",
"346 330 LINE",
"536 330 LINE",
"536 457 LINE"
);
}
);
width = 566;
},
{
guideLines = (
{
angle = 315;
position = "{494, 600}";
}
);
layerId = "C8C934E4-5A8F-449B-AD7A-7FC42272B9F4";
name = "Bold Nov 20 15, 19:01";
paths = (
{
closed = 1;
nodes = (
"216 16 LINE",
"261 16 LINE",
"261 500 LINE",
"216 500 LINE"
);
},
{
closed = 1;
nodes = (
"463 520 LINE",
"123 520 LINE",
"40 436 LINE",
"40 82 LINE",
"123 0 LINE",
"453 0 LINE",
"541 88 LINE",
"510 119 LINE",
"431 40 LINE",
"146 40 LINE",
"86 99 LINE",
"86 419 LINE",
"146 480 LINE",
"441 480 LINE",
"491 430 LINE",
"491 360 LINE",
"391 360 LINE",
"391 504 LINE",
"346 504 LINE",
"346 320 LINE",
"536 320 LINE",
"536 447 LINE"
);
}
);
width = 566;
},
{
guideLines = (
{
angle = 315;
position = "{514, 600}";
}
);
layerId = "9437670E-6ADD-4A65-A636-68B2D51F7E00";
name = "Bold Nov 19 15, 15:19";
paths = (
{
closed = 1;
nodes = (
"236 16 LINE",
"281 16 LINE",
"281 500 LINE",
"236 500 LINE"
);
},
{
closed = 1;
nodes = (
"483 520 LINE",
"143 520 LINE",
"60 436 LINE",
"60 82 LINE",
"143 0 LINE",
"478 0 LINE",
"566 88 LINE",
"535 119 LINE",
"456 40 LINE",
"166 40 LINE",
"106 99 LINE",
"106 419 LINE",
"166 480 LINE",
"461 480 LINE",
"511 430 LINE",
"511 360 LINE",
"411 360 LINE",
"411 504 LINE",
"366 504 LINE",
"366 320 LINE",
"556 320 LINE",
"556 447 LINE"
);
}
);
width = 606;
},
{
layerId = "BC02238E-79DD-47DF-81B3-6790992F97EC";
name = "Bold Nov 18 15, 18:30";
paths = (
{
closed = 1;
nodes = (
"281 20 LINE",
"281 504 LINE",
"236 504 LINE",
"236 20 LINE"
);
},
{
closed = 1;
nodes = (
"423 0 LINE",
"502 79 LINE",
"471 110 LINE",
"401 40 LINE",
"166 40 LINE",
"96 111 LINE",
"96 411 LINE",
"166 480 LINE",
"401 480 LINE",
"471 410 LINE",
"502 441 LINE",
"423 520 LINE",
"143 520 LINE",
"50 428 LINE",
"50 94 LINE",
"143 0 LINE"
);
}
);
width = 542;
},
{
layerId = "C6962287-8869-4485-A195-8BD117D9AD99";
name = "Bold Nov 18 15, 18:30.1";
paths = (
{
closed = 1;
nodes = (
"281 20 LINE",
"281 504 LINE",
"236 504 LINE",
"236 20 LINE"
);
},
{
closed = 1;
nodes = (
"456 95 LINE",
"401 40 LINE",
"166 40 LINE",
"96 111 LINE",
"96 411 LINE",
"166 480 LINE",
"401 480 LINE",
"471 410 LINE",
"502 441 LINE",
"423 520 LINE",
"143 520 LINE",
"50 428 LINE",
"50 94 LINE",
"143 0 LINE",
"423 0 LINE",
"502 79 LINE",
"502 180 LINE",
"456 180 LINE"
);
}
);
width = 542;
},
{
layerId = "DC22FA31-3913-472E-8859-7ACF2F9D1801";
paths = (
{
closed = 1;
nodes = (
"575 527 LINE",
"502 600 LINE",
"133 600 LINE",
"40 507 LINE",
"40 93 LINE",
"133 0 LINE",
"482 0 LINE",
"570 88 LINE",
"539 119 LINE",
"460 40 LINE",
"270 40 LINE",
"270 560 LINE",
"375 560 LINE",
"375 400 LINE",
"575 400 LINE"
);
}
);
width = 605;
}
);
unicode = 0063;
},
{
color = 3;
glyphname = cacute;
layers = (
{
layerId = "DC22FA31-3913-472E-8859-7ACF2F9D1801";
paths = (
{
closed = 1;
nodes = (
"575 527 LINE",
"502 600 LINE",
"133 600 LINE",
"40 507 LINE",
"40 93 LINE",
"133 0 LINE",
"482 0 LINE",
"570 88 LINE",
"539 119 LINE",
"460 40 LINE",
"270 40 LINE",
"270 560 LINE",
"375 560 LINE",
"375 400 LINE",
"575 400 LINE"
);
},
{
closed = 1;
nodes = (
"345 660 LINE",
"446 804 LINE",
"398 804 LINE",
"297 660 LINE"
);
}
);
width = 605;
}
);
unicode = 0107;
},
{
color = 3;
glyphname = ccaron;
layers = (
{
layerId = "DC22FA31-3913-472E-8859-7ACF2F9D1801";
paths = (
{
closed = 1;
nodes = (
"575 527 LINE",
"502 600 LINE",
"133 600 LINE",
"40 507 LINE",
"40 93 LINE",
"133 0 LINE",
"482 0 LINE",
"570 88 LINE",
"539 119 LINE",
"460 40 LINE",
"270 40 LINE",
"270 560 LINE",
"375 560 LINE",
"375 400 LINE",
"575 400 LINE"
);
},
{
closed = 1;
nodes = (
"221 814 LINE",
"171 814 LINE",
"289 660 LINE",
"339 660 LINE"
);
},
{
closed = 1;
nodes = (
"457 814 LINE",
"407 814 LINE",
"289 660 LINE",
"339 660 LINE"
);
}
);
width = 605;
}
);
unicode = 010D;
},
{
color = 3;
glyphname = ccedilla;
layers = (
{
layerId = "4E3F5F55-9FFE-426E-AF83-74584CCD3407";
name = "Regular Jan 8 16, 14:29";
paths = (
{
closed = 1;
nodes = (
"346 -189 LINE",
"346 -60 LINE",
"301 -60 LINE",
"301 -172 LINE",
"192 -281 LINE",
"223 -312 LINE"
);
}
);
width = 605;
},
{
layerId = "DC22FA31-3913-472E-8859-7ACF2F9D1801";
paths = (
{
closed = 1;
nodes = (
"575 527 LINE",
"502 600 LINE",
"133 600 LINE",
"40 507 LINE",
"40 93 LINE",
"133 0 LINE",
"482 0 LINE",
"570 88 LINE",
"539 119 LINE",
"460 40 LINE",
"270 40 LINE",
"270 560 LINE",
"375 560 LINE",
"375 400 LINE",
"575 400 LINE"
);
},
{
closed = 1;
nodes = (
"356 -50 LINE",
"311 -50 LINE",
"311 -162 LINE",
"202 -271 LINE",
"233 -302 LINE",
"356 -179 LINE"
);
}
);
width = 605;
}
);
unicode = 00E7;
},
{
color = 3;
glyphname = cdotaccent;
layers = (
{
layerId = "DC22FA31-3913-472E-8859-7ACF2F9D1801";
paths = (
{
closed = 1;
nodes = (
"575 527 LINE",
"502 600 LINE",
"133 600 LINE",
"40 507 LINE",
"40 93 LINE",
"133 0 LINE",
"482 0 LINE",
"570 88 LINE",
"539 119 LINE",
"460 40 LINE",
"270 40 LINE",
"270 560 LINE",
"375 560 LINE",
"375 400 LINE",
"575 400 LINE"
);
},
{
closed = 1;
nodes = (
"258 737 LINE",
"315 680 LINE",
"372 737 LINE",
"315 794 LINE"
);
}
);
width = 605;
}
);
unicode = 010B;
},
{
color = 3;
glyphname = d;
layers = (
{
guideLines = (
{
position = "{0, 100}";
},
{
angle = 45;
position = "{340, 40}";
}
);
layerId = "C4AC853E-82D7-4B1E-A7F0-C65BB2A8E2EB";
name = "Bold Nov 24 15, 12:17";
paths = (
{
closed = 1;
nodes = (
"505 40 LINE",
"685 40 LINE",
"685 0 LINE",
"483 0 LINE",
"400 83 LINE",
"400 752 LINE",
"445 752 LINE",
"445 100 LINE"
);
},
{
closed = 1;
nodes = (
"215 20 LINE",
"215 502 LINE",
"260 502 LINE",
"260 20 LINE"
);
},
{
closed = 1;
nodes = (
"330 770 LINE",
"532 770 LINE",
"615 687 LINE",
"615 18 LINE",
"570 18 LINE",
"570 670 LINE",
"510 730 LINE",
"330 730 LINE"
);
},
{
closed = 1;
nodes = (
"330 480 LINE",
"155 480 LINE",
"85 410 LINE",
"85 110 LINE",
"155 40 LINE",
"340 40 LINE",
"410 110 LINE",
"440 78 LINE",
"362 0 LINE",
"133 0 LINE",
"40 93 LINE",
"40 427 LINE",
"133 520 LINE",
"352 520 LINE",
"435 437 LINE",
"406 404 LINE"
);
}
);
width = 695;
},
{
guideLines = (
{
position = "{0, 105}";
},
{
angle = 45;
position = "{330, 40}";
}
);
layerId = "99F0BCA7-DB8A-40DE-B135-3828CA9A1FEC";
name = "Bold Nov 19 15, 15:18";
paths = (
{
closed = 1;
nodes = (
"515 40 LINE",
"685 40 LINE",
"685 0 LINE",
"493 0 LINE",
"400 93 LINE",
"400 742 LINE",
"445 742 LINE",
"445 110 LINE"
);
},
{
closed = 1;
nodes = (
"215 20 LINE",
"215 502 LINE",
"260 502 LINE",
"260 20 LINE"
);
},
{
closed = 1;
nodes = (
"330 760 LINE",
"522 760 LINE",
"615 667 LINE",
"615 18 LINE",
"570 18 LINE",
"570 650 LINE",
"500 720 LINE",
"330 720 LINE"
);
},
{
closed = 1;
nodes = (
"330 480 LINE",
"155 480 LINE",
"85 410 LINE",
"85 110 LINE",
"155 40 LINE",
"330 40 LINE",
"410 120 LINE",
"440 88 LINE",
"352 0 LINE",
"133 0 LINE",
"40 93 LINE",
"40 427 LINE",
"133 520 LINE",
"352 520 LINE",
"435 437 LINE",
"406 404 LINE"
);
}
);
width = 695;
},
{
guideLines = (
{
position = "{0, 105}";
},
{
angle = 45;
position = "{320, 40}";
}
);
layerId = "45F2A776-B3BA-4F93-8AD5-12A687BB4C95";
name = "Bold Nov 17 15, 11:22";
paths = (
{
closed = 1;
nodes = (
"505 40 LINE",
"675 40 LINE",
"675 0 LINE",
"483 0 LINE",
"390 93 LINE",
"390 742 LINE",
"435 742 LINE",
"435 110 LINE"
);
},
{
closed = 1;
nodes = (
"205 20 LINE",
"205 502 LINE",
"250 502 LINE",
"250 20 LINE"
);
},
{
closed = 1;
nodes = (
"342 0 LINE",
"123 0 LINE",
"30 93 LINE",
"30 427 LINE",
"123 520 LINE",
"408 520 LINE",
"408 480 LINE",
"145 480 LINE",
"75 410 LINE",
"75 110 LINE",
"145 40 LINE",
"320 40 LINE",
"400 120 LINE",
"430 88 LINE"
);
},
{
closed = 1;
nodes = (
"320 760 LINE",
"512 760 LINE",
"605 667 LINE",
"605 18 LINE",
"560 18 LINE",
"560 650 LINE",
"490 720 LINE",
"320 720 LINE"
);
}
);
width = 665;
},
{
guideLines = (
{
position = "{0, 100}";
},
{
angle = 45;
position = "{371, 40}";
}
);
layerId = "DC22FA31-3913-472E-8859-7ACF2F9D1801";
paths = (
{
closed = 1;
nodes = (
"671 787 LINE",
"578 880 LINE",
"361 880 LINE",
"361 840 LINE",
"441 840 LINE",
"441 546 LINE",
"387 600 LINE",
"143 600 LINE",
"50 507 LINE",
"50 93 LINE",
"143 0 LINE",
"393 0 LINE",
"464 71 LINE",
"534 0 LINE",
"751 0 LINE",
"751 40 LINE",
"671 40 LINE"
);
},
{
closed = 1;
nodes = (
"285 40 LINE",
"285 560 LINE",
"365 560 LINE",
"441 484 LINE",
"441 110 LINE",
"371 40 LINE"
);
}
);
width = 761;
}
);
unicode = 0064;
},
{
color = 3;
glyphname = eth;
layers = (
{
guideLines = (
{
angle = 196.57;
position = "{327, 605}";
},
{
angle = 288.85;
position = "{327, 605}";
},
{
angle = 196.57;
position = "{341, 564}";
}
);
layerId = "15C804D6-CC31-4641-B838-7C7393D01AF9";
name = "Regular Jan 8 16, 14:30";
paths = (
{
closed = 1;
nodes = (
"671 21 LINE",
"626 21 LINE",
"626 770 LINE",
"556 840 LINE",
"441 840 LINE",
"441 880 LINE",
"578 880 LINE",
"671 787 LINE"
);
},
{
closed = 1;
nodes = (
"486 857 LINE",
"486 110 LINE",
"556 40 LINE",
"671 40 LINE",
"671 0 LINE",
"534 0 LINE",
"441 93 LINE",
"441 857 LINE"
);
},
{
closed = 1;
nodes = (
"240 20 LINE",
"240 472 LINE",
"285 472 LINE",
"285 20 LINE"
);
},
{
closed = 1;
nodes = (
"482 89 LINE",
"393 0 LINE",
"143 0 LINE",
"50 93 LINE",
"50 397 LINE",
"143 490 LINE",
"387 490 LINE",
"470 407 LINE",
"441 374 LINE",
"365 450 LINE",
"165 450 LINE",
"95 380 LINE",
"95 110 LINE",
"165 40 LINE",
"371 40 LINE",
"451 120 LINE"
);
},
{
closed = 1;
nodes = (
"462 600 LINE",
"341 564 LINE",
"327 605 LINE",
"468 647 LINE"
);
},
{
closed = 1;
nodes = (
"653 702 LINE",
"764 735 LINE",
"778 694 LINE",
"647 655 LINE"
);
}
);
width = 761;
},
{
layerId = "1137241F-F48D-41E8-9138-5E05ED18DDC6";
name = "Regular Jan 7 16, 19:21";
paths = (
{
closed = 1;
nodes = (
"671 21 LINE",
"626 21 LINE",
"626 770 LINE",
"556 840 LINE",
"441 840 LINE",
"441 880 LINE",
"578 880 LINE",
"671 787 LINE"
);
},
{
closed = 1;
nodes = (
"486 857 LINE",
"486 110 LINE",
"556 40 LINE",
"671 40 LINE",
"671 0 LINE",
"534 0 LINE",
"441 93 LINE",
"441 857 LINE"
);
},
{
closed = 1;
nodes = (
"240 20 LINE",
"240 472 LINE",
"285 472 LINE",
"285 20 LINE"
);
},
{
closed = 1;
nodes = (
"482 89 LINE",
"393 0 LINE",
"143 0 LINE",
"50 93 LINE",
"50 397 LINE",
"143 490 LINE",
"387 490 LINE",
"470 407 LINE",
"441 374 LINE",
"365 450 LINE",
"165 450 LINE",
"95 380 LINE",
"95 110 LINE",
"165 40 LINE",
"371 40 LINE",
"451 120 LINE"
);
},
{
closed = 1;
nodes = (
"462 594 LINE",
"341 558 LINE",
"341 603 LINE",
"462 639 LINE"
);
},
{
closed = 1;
nodes = (
"649 694 LINE",
"761 727 LINE",
"761 682 LINE",
"649 649 LINE"
);
}
);
width = 761;
},
{
layerId = "E8A6B1B2-FA1E-4BE2-8E48-664A53D56EF3";
name = "Bold Jan 8 16, 14:37";
paths = (
{
closed = 1;
nodes = (
"671 700 LINE",
"671 787 LINE",
"578 880 LINE",
"441 880 LINE",
"441 633 LINE",
"341 603 LINE",
"341 558 LINE",
"441 588 LINE",
"441 436 LINE",
"387 490 LINE",
"143 490 LINE",
"50 397 LINE",
"50 93 LINE",
"143 0 LINE",
"393 0 LINE",
"464 71 LINE",
"534 0 LINE",
"671 0 LINE",
"671 655 LINE",
"761 682 LINE",
"761 727 LINE"
);
},
{
closed = 1;
nodes = (
"285 40 LINE",
"285 450 LINE",
"365 450 LINE",
"441 374 LINE",
"441 110 LINE",
"371 40 LINE"
);
}
);
width = 761;
},
{
layerId = "DC22FA31-3913-472E-8859-7ACF2F9D1801";
paths = (
{
closed = 1;
nodes = (
"50 467 LINE",
"143 560 LINE",
"387 560 LINE",
"441 506 LINE",
"441 840 LINE",
"110 840 LINE",
"110 880 LINE",
"578 880 LINE",
"671 787 LINE",
"671 0 LINE",
"534 0 LINE",
"463.5 70.5 LINE",
"393 0 LINE",
"143 0 LINE",
"50 93 LINE"
);
},
{
closed = 1;
nodes = (
"371 40 LINE",
"441 110 LINE",
"441 444 LINE",
"365 520 LINE",
"285 520 LINE",
"285 40 LINE"
);
},
{
closed = 1;
nodes = (
"255 750 LINE",
"255 970 LINE",
"300 970 LINE",
"300 750 LINE"
);
}
);
width = 761;
}
);
unicode = 00F0;
},
{
color = 3;
glyphname = dcaron;
layers = (
{
layerId = "13984D21-2183-48F3-84AD-2537AE22FA70";
name = "Regular Jan 8 16, 14:40";
paths = (
{
closed = 1;
nodes = (
"736 711 LINE",
"808 895 LINE",
"858 895 LINE",
"776 711 LINE"
);
}
);
width = 761;
},
{
layerId = "DC22FA31-3913-472E-8859-7ACF2F9D1801";
paths = (
{
closed = 1;
nodes = (
"671 787 LINE",
"578 880 LINE",
"361 880 LINE",
"361 840 LINE",
"441 840 LINE",
"441 546 LINE",
"387 600 LINE",
"143 600 LINE",
"50 507 LINE",
"50 93 LINE",
"143 0 LINE",
"393 0 LINE",
"464 71 LINE",
"534 0 LINE",
"751 0 LINE",
"751 40 LINE",
"671 40 LINE"
);
},
{
closed = 1;
nodes = (
"285 40 LINE",
"285 560 LINE",
"365 560 LINE",
"441 484 LINE",
"441 110 LINE",
"371 40 LINE"
);
},
{
closed = 1;
nodes = (
"883 620 LINE",
"927 880 LINE",
"741 880 LINE",
"741 620 LINE"
);
}
);
width = 947;
}
);
unicode = 010F;
},
{
color = 3;
glyphname = dcroat;
layers = (
{
layerId = "DC22FA31-3913-472E-8859-7ACF2F9D1801";
paths = (
{
closed = 1;
nodes = (
"221 720 LINE",
"221 680 LINE",
"751 680 LINE",
"751 720 LINE"
);
},
{
closed = 1;
nodes = (
"671 787 LINE",
"578 880 LINE",
"361 880 LINE",
"361 840 LINE",
"441 840 LINE",
"441 546 LINE",
"387 600 LINE",
"143 600 LINE",
"50 507 LINE",
"50 93 LINE",
"143 0 LINE",
"393 0 LINE",
"464 71 LINE",
"534 0 LINE",
"751 0 LINE",
"751 40 LINE",
"671 40 LINE"
);
},
{
closed = 1;
nodes = (
"285 40 LINE",
"285 560 LINE",
"365 560 LINE",
"441 484 LINE",
"441 110 LINE",
"371 40 LINE"
);
}
);
width = 761;
}
);
unicode = 0111;
},
{
color = 3;
glyphname = e;
layers = (
{
guideLines = (
{
angle = 315;
position = "{481, 520}";
}
);
layerId = "1E8CC230-B373-4076-9658-1CE3F8DBF32D";
name = "Bold Nov 24 15, 13:36";
paths = (
{
closed = 1;
nodes = (
"210 20 LINE",
"210 502 LINE",
"255 502 LINE",
"255 20 LINE"
);
},
{
closed = 1;
nodes = (
"454 250 LINE",
"514 310 LINE",
"514 420 LINE",
"454 480 LINE",
"145 480 LINE",
"85 420 LINE",
"85 100 LINE",
"145 40 LINE",
"454 40 LINE",
"538 124 LINE",
"569 93 LINE",
"476 0 LINE",
"123 0 LINE",
"40 83 LINE",
"40 437 LINE",
"123 520 LINE",
"476 520 LINE",
"559 437 LINE",
"559 293 LINE",
"476 210 LINE",
"235 210 LINE",
"235 250 LINE"
);
},
{
closed = 1;
nodes = (
"349 230 LINE",
"349 502 LINE",
"394 502 LINE",
"394 230 LINE"
);
}
);
width = 609;
},
{
layerId = "6D2FAD35-147F-4CC8-BA46-05A6AEE06308";
name = "Bold Nov 16 15, 18:30";
paths = (
{
closed = 1;
nodes = (
"195 20 LINE",
"195 492 LINE",
"240 492 LINE",
"240 20 LINE"
);
},
{
closed = 1;
nodes = (
"378 260 LINE",
"438 320 LINE",
"438 410 LINE",
"378 470 LINE",
"145 470 LINE",
"85 410 LINE",
"85 100 LINE",
"145 40 LINE",
"370 40 LINE",
"454 124 LINE",
"485 93 LINE",
"392 0 LINE",
"123 0 LINE",
"40 83 LINE",
"40 427 LINE",
"123 510 LINE",
"400 510 LINE",
"483 427 LINE",
"483 303 LINE",
"400 220 LINE",
"220 220 LINE",
"220 260 LINE"
);
}
);
width = 665;
},
{
guideLines = (
{
angle = 315;
position = "{630, 507}";
}
);
layerId = "AE224328-C5DF-4221-91FB-A88AA6A43D71";
name = "Bold Jan 29 16, 12:07";
paths = (
{
closed = 1;
nodes = (
"630 343 LINE",
"630 507 LINE",
"537 600 LINE",
"143 600 LINE",
"50 507 LINE",
"50 93 LINE",
"143 0 LINE",
"537 0 LINE",
"630 93 LINE",
"599 124 LINE",
"515 40 LINE",
"280 40 LINE",
"280 250 LINE",
"537 250 LINE"
);
},
{
closed = 1;
nodes = (
"400 560 LINE",
"400 290 LINE",
"280 290 LINE",
"280 560 LINE"
);
}
);
width = 670;
},
{
layerId = "DC22FA31-3913-472E-8859-7ACF2F9D1801";
paths = (
{
closed = 1;
nodes = (
"50 507 LINE",
"143 600 LINE",
"527 600 LINE",
"620 507 LINE",
"620 343 LINE",
"527 250 LINE",
"280 250 LINE",
"280 40 LINE",
"510 40 LINE",
"594 124 LINE",
"625 93 LINE",
"532 0 LINE",
"143 0 LINE",
"50 93 LINE"
);
},
{
closed = 1;
nodes = (
"390 290 LINE",
"390 560 LINE",
"280 560 LINE",
"280 290 LINE"
);
}
);
width = 660;
}
);
unicode = 0065;
},
{
color = 3;
glyphname = eacute;
layers = (
{
layerId = "DC22FA31-3913-472E-8859-7ACF2F9D1801";
paths = (
{
closed = 1;
nodes = (
"50 507 LINE",
"143 600 LINE",
"527 600 LINE",
"620 507 LINE",
"620 343 LINE",
"527 250 LINE",
"280 250 LINE",
"280 40 LINE",
"510 40 LINE",
"594 124 LINE",
"625 93 LINE",
"532 0 LINE",
"143 0 LINE",
"50 93 LINE"
);
},
{
closed = 1;
nodes = (
"390 290 LINE",
"390 560 LINE",
"280 560 LINE",
"280 290 LINE"
);
},
{
closed = 1;
nodes = (
"320 660 LINE",
"421 804 LINE",
"469 804 LINE",
"368 660 LINE"
);
}
);
width = 660;
}
);
unicode = 00E9;
},
{
color = 3;
glyphname = ecaron;
layers = (
{
layerId = "DC22FA31-3913-472E-8859-7ACF2F9D1801";
paths = (
{
closed = 1;
nodes = (
"50 507 LINE",
"143 600 LINE",
"527 600 LINE",
"620 507 LINE",
"620 343 LINE",
"527 250 LINE",
"280 250 LINE",
"280 40 LINE",
"510 40 LINE",
"594 124 LINE",
"625 93 LINE",
"532 0 LINE",
"143 0 LINE",
"50 93 LINE"
);
},
{
closed = 1;
nodes = (
"390 290 LINE",
"390 560 LINE",
"280 560 LINE",
"280 290 LINE"
);
},
{
closed = 1;
nodes = (
"365 660 LINE",
"315 660 LINE",
"197 814 LINE",
"247 814 LINE"
);
},
{
closed = 1;
nodes = (
"365 660 LINE",
"315 660 LINE",
"433 814 LINE",
"483 814 LINE"
);
}
);
width = 660;
}
);
unicode = 011B;
},
{
color = 3;
glyphname = ecircumflex;
layers = (
{
layerId = "DC22FA31-3913-472E-8859-7ACF2F9D1801";
paths = (
{
closed = 1;
nodes = (
"50 507 LINE",
"143 600 LINE",
"527 600 LINE",
"620 507 LINE",
"620 343 LINE",
"527 250 LINE",
"280 250 LINE",
"280 40 LINE",
"510 40 LINE",
"594 124 LINE",
"625 93 LINE",
"532 0 LINE",
"143 0 LINE",
"50 93 LINE"
);
},
{
closed = 1;
nodes = (
"390 290 LINE",
"390 560 LINE",
"280 560 LINE",
"280 290 LINE"
);
},
{
closed = 1;
nodes = (
"195 660 LINE",
"313 814 LINE",
"363 814 LINE",
"245 660 LINE"
);
},
{
closed = 1;
nodes = (
"431 660 LINE",
"313 814 LINE",
"363 814 LINE",
"481 660 LINE"
);
}
);
width = 660;
}
);
unicode = 00EA;
},
{
color = 3;
glyphname = edieresis;
layers = (
{
guideLines = (
{
position = "{0, 726}";
}
);
layerId = "DC22FA31-3913-472E-8859-7ACF2F9D1801";
paths = (
{
closed = 1;
nodes = (
"50 507 LINE",
"143 600 LINE",
"527 600 LINE",
"620 507 LINE",
"620 343 LINE",
"527 250 LINE",
"280 250 LINE",
"280 40 LINE",
"510 40 LINE",
"594 124 LINE",
"625 93 LINE",
"532 0 LINE",
"143 0 LINE",
"50 93 LINE"
);
},
{
closed = 1;
nodes = (
"390 290 LINE",
"390 560 LINE",
"280 560 LINE",
"280 290 LINE"
);
},
{
closed = 1;
nodes = (
"230 794 LINE",
"287 737 LINE",
"230 680 LINE",
"173 737 LINE"
);
},
{
closed = 1;
nodes = (
"449 794 LINE",
"506 737 LINE",
"449 680 LINE",
"392 737 LINE"
);
}
);
width = 660;
}
);
unicode = 00EB;
},
{
color = 3;
glyphname = edotaccent;
layers = (
{
layerId = "DC22FA31-3913-472E-8859-7ACF2F9D1801";
paths = (
{
closed = 1;
nodes = (
"340 794 LINE",
"397 737 LINE",
"340 680 LINE",
"283 737 LINE"
);
},
{
closed = 1;
nodes = (
"50 507 LINE",
"143 600 LINE",
"527 600 LINE",
"620 507 LINE",
"620 343 LINE",
"527 250 LINE",
"280 250 LINE",
"280 40 LINE",
"510 40 LINE",
"594 124 LINE",
"625 93 LINE",
"532 0 LINE",
"143 0 LINE",
"50 93 LINE"
);
},
{
closed = 1;
nodes = (
"390 290 LINE",
"390 560 LINE",
"280 560 LINE",
"280 290 LINE"
);
}
);
width = 660;
}
);
unicode = 0117;
},
{
color = 3;
glyphname = egrave;
layers = (
{
layerId = "DC22FA31-3913-472E-8859-7ACF2F9D1801";
paths = (
{
closed = 1;
nodes = (
"50 507 LINE",
"143 600 LINE",
"527 600 LINE",
"620 507 LINE",
"620 343 LINE",
"527 250 LINE",
"280 250 LINE",
"280 40 LINE",
"510 40 LINE",
"594 124 LINE",
"625 93 LINE",
"532 0 LINE",
"143 0 LINE",
"50 93 LINE"
);
},
{
closed = 1;
nodes = (
"390 290 LINE",
"390 560 LINE",
"280 560 LINE",
"280 290 LINE"
);
},
{
closed = 1;
nodes = (
"224 844 LINE",
"272 844 LINE",
"363 660 LINE",
"315 660 LINE"
);
}
);
width = 660;
}
);
unicode = 00E8;
},
{
color = 3;
glyphname = emacron;
layers = (
{
layerId = "DC22FA31-3913-472E-8859-7ACF2F9D1801";
paths = (
{
closed = 1;
nodes = (
"165 680 LINE",
"505 680 LINE",
"505 720 LINE",
"165 720 LINE"
);
},
{
closed = 1;
nodes = (
"50 93 LINE",
"143 0 LINE",
"532 0 LINE",
"625 93 LINE",
"594 124 LINE",
"510 40 LINE",
"280 40 LINE",
"280 250 LINE",
"527 250 LINE",
"620 343 LINE",
"620 507 LINE",
"527 600 LINE",
"143 600 LINE",
"50 507 LINE"
);
},
{
closed = 1;
nodes = (
"280 290 LINE",
"280 560 LINE",
"390 560 LINE",
"390 290 LINE"
);
}
);
width = 660;
}
);
unicode = 0113;
},
{
color = 3;
glyphname = eogonek;
layers = (
{
layerId = "DC22FA31-3913-472E-8859-7ACF2F9D1801";
paths = (
{
closed = 1;
nodes = (
"50 507 LINE",
"143 600 LINE",
"527 600 LINE",
"620 507 LINE",
"620 343 LINE",
"527 250 LINE",
"280 250 LINE",
"280 40 LINE",
"510 40 LINE",
"594 124 LINE",
"625 93 LINE",
"532 0 LINE",
"143 0 LINE",
"50 93 LINE"
);
},
{
closed = 1;
nodes = (
"390 290 LINE",
"390 560 LINE",
"280 560 LINE",
"280 290 LINE"
);
},
{
closed = 1;
nodes = (
"628 -186 LINE",
"579 -235 LINE",
"455 -235 LINE",
"392 -172 LINE",
"392 -78 LINE",
"517 47 LINE",
"548 16 LINE",
"437 -95 LINE",
"437 -155 LINE",
"477 -195 LINE",
"557 -195 LINE",
"597 -155 LINE"
);
}
);
width = 663;
}
);
unicode = 0119;
},
{
color = 3;
glyphname = f;
layers = (
{
layerId = "F99099F5-F973-4732-81B0-3509BA455900";
name = "Bold Nov 24 15, 13:43";
paths = (
{
closed = 1;
nodes = (
"165 20 LINE",
"165 670 LINE",
"225 730 LINE",
"410 730 LINE",
"474 666 LINE",
"505 697 LINE",
"432 770 LINE",
"203 770 LINE",
"120 687 LINE",
"120 20 LINE"
);
},
{
closed = 1;
nodes = (
"307 480 LINE",
"455 480 LINE",
"455 520 LINE",
"307 520 LINE"
);
},
{
closed = 1;
nodes = (
"40 480 LINE",
"150 480 LINE",
"150 520 LINE",
"40 520 LINE"
);
},
{
closed = 1;
nodes = (
"335 747 LINE",
"290 747 LINE",
"290 100 LINE",
"230 40 LINE",
"40 40 LINE",
"40 0 LINE",
"252 0 LINE",
"335 83 LINE"
);
}
);
width = 510;
},
{
layerId = "E34F5D5F-1F63-4633-932D-2ECC6173EC89";
name = "Bold Nov 23 15, 15:01";
paths = (
{
closed = 1;
nodes = (
"165 20 LINE",
"165 670 LINE",
"225 730 LINE",
"415 730 LINE",
"488 657 LINE",
"520 687 LINE",
"437 770 LINE",
"203 770 LINE",
"120 687 LINE",
"120 20 LINE"
);
},
{
closed = 1;
nodes = (
"307 480 LINE",
"455 480 LINE",
"455 520 LINE",
"307 520 LINE"
);
},
{
closed = 1;
nodes = (
"40 480 LINE",
"150 480 LINE",
"150 520 LINE",
"40 520 LINE"
);
},
{
closed = 1;
nodes = (
"335 747 LINE",
"290 747 LINE",
"290 100 LINE",
"230 40 LINE",
"40 40 LINE",
"40 0 LINE",
"252 0 LINE",
"335 83 LINE"
);
}
);
width = 510;
},
{
layerId = "5BAC4C04-74EC-415C-B661-5767789582CA";
name = "Bold Nov 20 15, 14:48";
paths = (
{
closed = 1;
nodes = (
"415 40 LINE",
"40 40 LINE",
"40 0 LINE",
"415 0 LINE"
);
},
{
closed = 1;
nodes = (
"165 20 LINE",
"165 660 LINE",
"225 720 LINE",
"425 720 LINE",
"508 637 LINE",
"540 667 LINE",
"447 760 LINE",
"203 760 LINE",
"120 677 LINE",
"120 20 LINE"
);
},
{
closed = 1;
nodes = (
"307 420 LINE",
"455 420 LINE",
"455 460 LINE",
"307 460 LINE"
);
},
{
closed = 1;
nodes = (
"40 420 LINE",
"150 420 LINE",
"150 460 LINE",
"40 460 LINE"
);
},
{
closed = 1;
nodes = (
"335 25 LINE",
"335 737 LINE",
"290 737 LINE",
"290 25 LINE"
);
}
);
width = 520;
},
{
layerId = "2B0C808B-36AB-4511-ACF4-70D807A9544A";
name = "Bold Nov 19 15, 15:17";
paths = (
{
closed = 1;
nodes = (
"415 40 LINE",
"40 40 LINE",
"40 0 LINE",
"415 0 LINE"
);
},
{
closed = 1;
nodes = (
"165 20 LINE",
"165 650 LINE",
"235 720 LINE",
"425 720 LINE",
"508 637 LINE",
"540 667 LINE",
"447 760 LINE",
"213 760 LINE",
"120 667 LINE",
"120 20 LINE"
);
},
{
closed = 1;
nodes = (
"307 420 LINE",
"455 420 LINE",
"455 460 LINE",
"307 460 LINE"
);
},
{
closed = 1;
nodes = (
"40 420 LINE",
"150 420 LINE",
"150 460 LINE",
"40 460 LINE"
);
},
{
closed = 1;
nodes = (
"335 25 LINE",
"335 737 LINE",
"290 737 LINE",
"290 25 LINE"
);
}
);
width = 570;
},
{
layerId = "CF034AD0-5065-4750-967E-655E04398516";
name = "Bold Nov 18 15, 18:45";
paths = (
{
closed = 1;
nodes = (
"300 737 LINE",
"255 737 LINE",
"255 110 LINE",
"185 40 LINE",
"-10 40 LINE",
"-10 0 LINE",
"207 0 LINE",
"300 93 LINE"
);
},
{
closed = 1;
nodes = (
"115 20 LINE",
"115 650 LINE",
"185 720 LINE",
"390 720 LINE",
"473 637 LINE",
"505 667 LINE",
"412 760 LINE",
"163 760 LINE",
"70 667 LINE",
"70 20 LINE"
);
},
{
closed = 1;
nodes = (
"272 400 LINE",
"420 400 LINE",
"420 440 LINE",
"272 440 LINE"
);
}
);
width = 600;
},
{
layerId = "20A3BD9E-421B-4F9B-808A-E08CBA3AF563";
name = "Bold Nov 18 15, 18:42";
paths = (
{
closed = 1;
nodes = (
"255 18 LINE",
"300 18 LINE",
"300 737 LINE",
"255 737 LINE"
);
},
{
closed = 1;
nodes = (
"505 667 LINE",
"412 760 LINE",
"163 760 LINE",
"70 667 LINE",
"70 0 LINE",
"380 0 LINE",
"380 40 LINE",
"115 40 LINE",
"115 650 LINE",
"185 720 LINE",
"390 720 LINE",
"473 637 LINE"
);
},
{
closed = 1;
nodes = (
"272 400 LINE",
"420 400 LINE",
"420 440 LINE",
"272 440 LINE"
);
}
);
width = 600;
},
{
layerId = "DC22FA31-3913-472E-8859-7ACF2F9D1801";
paths = (
{
closed = 1;
nodes = (
"474 766 LINE",
"505 797 LINE",
"422 880 LINE",
"193 880 LINE",
"100 787 LINE",
"100 600 LINE",
"20 600 LINE",
"20 560 LINE",
"100 560 LINE",
"100 40 LINE",
"20 40 LINE",
"20 0 LINE",
"237 0 LINE",
"330 93 LINE",
"330 560 LINE",
"460 560 LINE",
"460 600 LINE",
"330 600 LINE",
"330 840 LINE",
"400 840 LINE"
);
}
);
width = 490;
}
);
unicode = 0066;
},
{
color = 3;
glyphname = g;
layers = (
{
guideLines = (
{
angle = 45;
position = "{5, -167}";
}
);
layerId = "54BB995F-A9B7-45ED-87DB-A02653A30626";
name = "Bold Dec 3 15, 17:44";
paths = (
{
closed = 1;
nodes = (
"445 230 LINE",
"445 582 LINE",
"490 582 LINE",
"490 230 LINE"
);
},
{
closed = 1;
nodes = (
"266 582 LINE",
"311 582 LINE",
"311 224 LINE",
"266 224 LINE"
);
},
{
closed = 1;
nodes = (
"522 560 LINE",
"522 600 LINE",
"735 600 LINE",
"735 560 LINE"
);
},
{
closed = 1;
nodes = (
"81 507 LINE",
"174 600 LINE",
"582 600 LINE",
"675 507 LINE",
"675 303 LINE",
"582 210 LINE",
"174 210 LINE",
"81 303 LINE"
);
},
{
closed = 1;
nodes = (
"196 250 LINE",
"560 250 LINE",
"630 320 LINE",
"630 490 LINE",
"560 560 LINE",
"196 560 LINE",
"126 490 LINE",
"126 320 LINE"
);
},
{
closed = 1;
nodes = (
"687 -100 LINE",
"184 -100 LINE",
"101 -17 LINE",
"101 177 LINE",
"174 250 LINE",
"232 250 LINE",
"232 210 LINE",
"196 210 LINE",
"146 160 LINE",
"146 0 LINE",
"206 -60 LINE",
"687 -60 LINE"
);
},
{
closed = 1;
nodes = (
"185 -210 LINE",
"600 -210 LINE",
"660 -150 LINE",
"660 0 LINE",
"600 60 LINE",
"121 60 LINE",
"121 100 LINE",
"622 100 LINE",
"705 17 LINE",
"705 -167 LINE",
"622 -250 LINE",
"163 -250 LINE",
"80 -167 LINE",
"111 -136 LINE"
);
}
);
width = 785;
},
{
guideLines = (
{
angle = 45;
position = "{5, -167}";
}
);
layerId = "C0588FD8-49BB-431A-9427-146E172A8106";
name = "Bold Dec 2 15, 16:18";
paths = (
{
closed = 1;
nodes = (
"445 230 LINE",
"445 582 LINE",
"490 582 LINE",
"490 230 LINE"
);
},
{
closed = 1;
nodes = (
"266 582 LINE",
"311 582 LINE",
"311 224 LINE",
"266 224 LINE"
);
},
{
closed = 1;
nodes = (
"522 560 LINE",
"522 600 LINE",
"735 600 LINE",
"735 560 LINE"
);
},
{
closed = 1;
nodes = (
"81 507 LINE",
"174 600 LINE",
"582 600 LINE",
"675 507 LINE",
"675 303 LINE",
"582 210 LINE",
"174 210 LINE",
"81 303 LINE"
);
},
{
closed = 1;
nodes = (
"196 250 LINE",
"560 250 LINE",
"630 320 LINE",
"630 490 LINE",
"560 560 LINE",
"196 560 LINE",
"126 490 LINE",
"126 320 LINE"
);
},
{
closed = 1;
nodes = (
"155 -210 LINE",
"620 -210 LINE",
"680 -150 LINE",
"680 0 LINE",
"620 60 LINE",
"121 60 LINE",
"121 100 LINE",
"642 100 LINE",
"725 17 LINE",
"725 -167 LINE",
"642 -250 LINE",
"133 -250 LINE",
"50 -167 LINE",
"81 -136 LINE"
);
},
{
closed = 1;
nodes = (
"632 -100 LINE",
"184 -100 LINE",
"101 -17 LINE",
"101 177 LINE",
"174 250 LINE",
"232 250 LINE",
"232 210 LINE",
"196 210 LINE",
"146 160 LINE",
"146 0 LINE",
"206 -60 LINE",
"654 -60 LINE",
"717 -123 LINE",
"688 -156 LINE"
);
}
);
width = 785;
},
{
guideLines = (
{
angle = 45;
position = "{5, -167}";
}
);
layerId = "259B6C9D-07AD-4F4E-903B-4C0EA2A36A26";
name = "Bold Dec 2 15, 16:18.1";
paths = (
{
closed = 1;
nodes = (
"384 230 LINE",
"384 582 LINE",
"429 582 LINE",
"429 230 LINE"
);
},
{
closed = 1;
nodes = (
"235 582 LINE",
"280 582 LINE",
"280 224 LINE",
"235 224 LINE"
);
},
{
closed = 1;
nodes = (
"461 560 LINE",
"461 600 LINE",
"674 600 LINE",
"674 560 LINE"
);
},
{
closed = 1;
nodes = (
"50 507 LINE",
"143 600 LINE",
"521 600 LINE",
"614 507 LINE",
"614 303 LINE",
"521 210 LINE",
"143 210 LINE",
"50 303 LINE"
);
},
{
closed = 1;
nodes = (
"165 250 LINE",
"499 250 LINE",
"569 320 LINE",
"569 490 LINE",
"499 560 LINE",
"165 560 LINE",
"95 490 LINE",
"95 320 LINE"
);
},
{
closed = 1;
nodes = (
"606 -100 LINE",
"123 -100 LINE",
"50 -27 LINE",
"50 157 LINE",
"143 250 LINE",
"181 250 LINE",
"181 210 LINE",
"165 210 LINE",
"95 140 LINE",
"95 -10 LINE",
"145 -60 LINE",
"606 -60 LINE"
);
},
{
closed = 1;
nodes = (
"130 -210 LINE",
"529 -210 LINE",
"579 -160 LINE",
"579 0 LINE",
"529 50 LINE",
"70 50 LINE",
"70 90 LINE",
"551 90 LINE",
"624 17 LINE",
"624 -177 LINE",
"551 -250 LINE",
"108 -250 LINE",
"25 -167 LINE",
"56 -136 LINE"
);
}
);
width = 974;
},
{
guideLines = (
{
angle = 45;
position = "{581, -280}";
}
);
layerId = "1BEAE8A8-9343-4F2E-9CB2-C86BCECDCC6C";
name = "Bold Dec 2 15, 15:55";
paths = (
{
closed = 1;
nodes = (
"384 220 LINE",
"384 582 LINE",
"429 582 LINE",
"429 220 LINE"
);
},
{
closed = 1;
nodes = (
"235 582 LINE",
"280 582 LINE",
"280 86 LINE",
"235 86 LINE"
);
},
{
closed = 1;
nodes = (
"444 -233 LINE",
"444 76 LINE",
"489 76 LINE",
"489 -233 LINE"
);
},
{
closed = 1;
nodes = (
"461 560 LINE",
"461 600 LINE",
"674 600 LINE",
"674 560 LINE"
);
},
{
closed = 1;
nodes = (
"280 75 LINE",
"280 -230 LINE",
"235 -230 LINE",
"235 75 LINE"
);
},
{
closed = 1;
nodes = (
"581 100 LINE",
"674 7 LINE",
"674 -157 LINE",
"581 -250 LINE",
"133 -250 LINE",
"40 -157 LINE",
"40 7 LINE",
"133 100 LINE"
);
},
{
closed = 1;
nodes = (
"155 60 LINE",
"85 -10 LINE",
"85 -140 LINE",
"155 -210 LINE",
"559 -210 LINE",
"629 -140 LINE",
"629 -10 LINE",
"559 60 LINE"
);
},
{
closed = 1;
nodes = (
"50 507 LINE",
"143 600 LINE",
"521 600 LINE",
"614 507 LINE",
"614 293 LINE",
"521 200 LINE",
"143 200 LINE",
"50 293 LINE"
);
},
{
closed = 1;
nodes = (
"165 240 LINE",
"499 240 LINE",
"569 310 LINE",
"569 490 LINE",
"499 560 LINE",
"165 560 LINE",
"95 490 LINE",
"95 310 LINE"
);
}
);
width = 714;
},
{
guideLines = (
{
angle = 45;
position = "{5, -167}";
}
);
layerId = "DC22FA31-3913-472E-8859-7ACF2F9D1801";
paths = (
{
closed = 1;
nodes = (
"463 530 LINE",
"392 600 LINE",
"148 600 LINE",
"55 507 LINE",
"55 153 LINE",
"148 60 LINE",
"392 60 LINE",
"440 108 LINE",
"440 -210 LINE",
"275 -210 LINE",
"275 -50 LINE",
"50 -50 LINE",
"50 -167 LINE",
"133 -250 LINE",
"577 -250 LINE",
"670 -157 LINE",
"670 600 LINE",
"533 600 LINE"
);
},
{
closed = 1;
nodes = (
"280 100 LINE",
"280 560 LINE",
"370 560 LINE",
"440 490 LINE",
"440 170 LINE",
"370 100 LINE"
);
}
);
width = 720;
}
);
unicode = 0067;
},
{
color = 3;
glyphname = gbreve;
layers = (
{
layerId = "DC22FA31-3913-472E-8859-7ACF2F9D1801";
paths = (
{
closed = 1;
nodes = (
"463 530 LINE",
"392 600 LINE",
"148 600 LINE",
"55 507 LINE",
"55 153 LINE",
"148 60 LINE",
"392 60 LINE",
"440 108 LINE",
"440 -210 LINE",
"275 -210 LINE",
"275 -50 LINE",
"50 -50 LINE",
"50 -167 LINE",
"133 -250 LINE",
"577 -250 LINE",
"670 -157 LINE",
"670 600 LINE",
"533 600 LINE"
);
},
{
closed = 1;
nodes = (
"280 100 LINE",
"280 560 LINE",
"370 560 LINE",
"440 490 LINE",
"440 170 LINE",
"370 100 LINE"
);
},
{
closed = 1;
nodes = (
"249 660 LINE",
"513 660 LINE",
"586 733 LINE",
"586 820 LINE",
"541 820 LINE",
"541 750 LINE",
"491 700 LINE",
"271 700 LINE",
"221 750 LINE",
"221 820 LINE",
"176 820 LINE",
"176 733 LINE"
);
}
);
width = 720;
}
);
unicode = 011F;
},
{
color = 3;
glyphname = gdotaccent;
layers = (
{
layerId = "DC22FA31-3913-472E-8859-7ACF2F9D1801";
paths = (
{
closed = 1;
nodes = (
"463 530 LINE",
"392 600 LINE",
"148 600 LINE",
"55 507 LINE",
"55 153 LINE",
"148 60 LINE",
"392 60 LINE",
"440 108 LINE",
"440 -210 LINE",
"275 -210 LINE",
"275 -50 LINE",
"50 -50 LINE",
"50 -167 LINE",
"133 -250 LINE",
"577 -250 LINE",
"670 -157 LINE",
"670 600 LINE",
"533 600 LINE"
);
},
{
closed = 1;
nodes = (
"280 100 LINE",
"280 560 LINE",
"370 560 LINE",
"440 490 LINE",
"440 170 LINE",
"370 100 LINE"
);
},
{
closed = 1;
nodes = (
"311 737 LINE",
"368 680 LINE",
"425 737 LINE",
"368 794 LINE"
);
}
);
width = 720;
}
);
unicode = 0121;
},
{
color = 3;
glyphname = h;
layers = (
{
layerId = "F05E7B32-3850-45B1-8D38-48F4370AC21C";
name = "Bold Nov 24 15, 15:05";
paths = (
{
closed = 1;
nodes = (
"80 752 LINE",
"125 752 LINE",
"125 100 LINE",
"185 40 LINE",
"355 40 LINE",
"355 0 LINE",
"163 0 LINE",
"80 83 LINE"
);
},
{
closed = 1;
nodes = (
"10 770 LINE",
"212 770 LINE",
"295 687 LINE",
"295 18 LINE",
"250 18 LINE",
"250 670 LINE",
"190 730 LINE",
"10 730 LINE"
);
},
{
closed = 1;
nodes = (
"284 404 LINE",
"255 437 LINE",
"338 520 LINE",
"557 520 LINE",
"640 437 LINE",
"640 20 LINE",
"595 20 LINE",
"595 420 LINE",
"535 480 LINE",
"360 480 LINE"
);
},
{
closed = 1;
nodes = (
"710 0 LINE",
"513 0 LINE",
"430 83 LINE",
"430 492 LINE",
"475 492 LINE",
"475 100 LINE",
"535 40 LINE",
"710 40 LINE"
);
}
);
width = 730;
},
{
layerId = "664114E8-6ECF-4016-A102-9D870F0AA36B";
name = "Bold Nov 21 15, 14:05";
paths = (
{
closed = 1;
nodes = (
"80 40 LINE",
"295 40 LINE",
"295 0 LINE",
"80 0 LINE"
);
},
{
closed = 1;
nodes = (
"10 760 LINE",
"212 760 LINE",
"295 677 LINE",
"295 18 LINE",
"250 18 LINE",
"250 660 LINE",
"190 720 LINE",
"10 720 LINE"
);
},
{
closed = 1;
nodes = (
"284 404 LINE",
"255 437 LINE",
"338 520 LINE",
"557 520 LINE",
"640 437 LINE",
"640 20 LINE",
"595 20 LINE",
"595 420 LINE",
"535 480 LINE",
"360 480 LINE"
);
},
{
closed = 1;
nodes = (
"710 0 LINE",
"513 0 LINE",
"430 83 LINE",
"430 492 LINE",
"475 492 LINE",
"475 100 LINE",
"535 40 LINE",
"710 40 LINE"
);
},
{
closed = 1;
nodes = (
"80 20 LINE",
"80 742 LINE",
"125 742 LINE",
"125 20 LINE"
);
}
);
width = 730;
},
{
layerId = "5BAC4C04-74EC-415C-B661-5767789582CA";
name = "Bold Nov 20 15, 14:48";
paths = (
{
closed = 1;
nodes = (
"100 25 LINE",
"100 742 LINE",
"145 742 LINE",
"145 25 LINE"
);
},
{
closed = 1;
nodes = (
"30 760 LINE",
"232 760 LINE",
"315 677 LINE",
"315 18 LINE",
"270 18 LINE",
"270 660 LINE",
"210 720 LINE",
"30 720 LINE"
);
},
{
closed = 1;
nodes = (
"30 40 LINE",
"365 40 LINE",
"365 0 LINE",
"30 0 LINE"
);
},
{
closed = 1;
nodes = (
"304 404 LINE",
"275 437 LINE",
"358 520 LINE",
"577 520 LINE",
"660 437 LINE",
"660 20 LINE",
"615 20 LINE",
"615 420 LINE",
"555 480 LINE",
"380 480 LINE"
);
},
{
closed = 1;
nodes = (
"450 25 LINE",
"450 502 LINE",
"495 502 LINE",
"495 25 LINE"
);
},
{
closed = 1;
nodes = (
"450 40 LINE",
"730 40 LINE",
"730 0 LINE",
"450 0 LINE"
);
}
);
width = 750;
},
{
layerId = "8844DC06-9BB7-4F02-B2F7-EF1462CFBDF0";
name = "Bold Nov 20 15, 14:46 Nov 20 15, 14:47";
paths = (
{
closed = 1;
nodes = (
"80 742 LINE",
"125 742 LINE",
"125 100 LINE",
"185 40 LINE",
"345 40 LINE",
"345 0 LINE",
"163 0 LINE",
"80 83 LINE"
);
},
{
closed = 1;
nodes = (
"10 760 LINE",
"212 760 LINE",
"295 677 LINE",
"295 18 LINE",
"250 18 LINE",
"250 660 LINE",
"190 720 LINE",
"10 720 LINE"
);
},
{
closed = 1;
nodes = (
"284 404 LINE",
"255 437 LINE",
"338 520 LINE",
"557 520 LINE",
"640 437 LINE",
"640 20 LINE",
"595 20 LINE",
"595 420 LINE",
"535 480 LINE",
"360 480 LINE"
);
},
{
closed = 1;
nodes = (
"430 25 LINE",
"430 502 LINE",
"475 502 LINE",
"475 25 LINE"
);
},
{
closed = 1;
nodes = (
"430 40 LINE",
"710 40 LINE",
"710 0 LINE",
"430 0 LINE"
);
}
);
width = 730;
},
{
layerId = "F1A9D23B-3853-4F06-B268-865CE98D9D5F";
name = "Bold Nov 19 15, 15:15";
paths = (
{
closed = 1;
nodes = (
"100 25 LINE",
"100 742 LINE",
"145 742 LINE",
"145 25 LINE"
);
},
{
closed = 1;
nodes = (
"30 760 LINE",
"222 760 LINE",
"315 667 LINE",
"315 18 LINE",
"270 18 LINE",
"270 650 LINE",
"200 720 LINE",
"30 720 LINE"
);
},
{
closed = 1;
nodes = (
"30 40 LINE",
"365 40 LINE",
"365 0 LINE",
"30 0 LINE"
);
},
{
closed = 1;
nodes = (
"304 404 LINE",
"275 437 LINE",
"358 520 LINE",
"567 520 LINE",
"660 427 LINE",
"660 20 LINE",
"615 20 LINE",
"615 410 LINE",
"545 480 LINE",
"380 480 LINE"
);
},
{
closed = 1;
nodes = (
"450 25 LINE",
"450 502 LINE",
"495 502 LINE",
"495 25 LINE"
);
},
{
closed = 1;
nodes = (
"450 40 LINE",
"730 40 LINE",
"730 0 LINE",
"450 0 LINE"
);
}
);
width = 750;
},
{
layerId = "280D650A-061A-46C3-997D-330FC5E96963";
name = "Bold Nov 18 15, 10:43";
paths = (
{
closed = 1;
nodes = (
"100 25 LINE",
"100 742 LINE",
"145 742 LINE",
"145 25 LINE"
);
},
{
closed = 1;
nodes = (
"30 760 LINE",
"222 760 LINE",
"315 667 LINE",
"315 18 LINE",
"270 18 LINE",
"270 650 LINE",
"200 720 LINE",
"30 720 LINE"
);
},
{
closed = 1;
nodes = (
"40 40 LINE",
"375 40 LINE",
"375 0 LINE",
"40 0 LINE"
);
},
{
closed = 1;
nodes = (
"304 404 LINE",
"275 437 LINE",
"358 520 LINE",
"567 520 LINE",
"660 427 LINE",
"660 20 LINE",
"615 20 LINE",
"615 410 LINE",
"545 480 LINE",
"380 480 LINE"
);
},
{
closed = 1;
nodes = (
"450 25 LINE",
"450 502 LINE",
"495 502 LINE",
"495 25 LINE"
);
},
{
closed = 1;
nodes = (
"450 40 LINE",
"730 40 LINE",
"730 0 LINE",
"450 0 LINE"
);
}
);
width = 720;
},
{
layerId = "DC22FA31-3913-472E-8859-7ACF2F9D1801";
paths = (
{
closed = 1;
nodes = (
"685 507 LINE",
"592 600 LINE",
"353 600 LINE",
"310 557 LINE",
"310 787 LINE",
"217 880 LINE",
"0 880 LINE",
"0 840 LINE",
"80 840 LINE",
"80 93 LINE",
"173 0 LINE",
"370 0 LINE",
"370 40 LINE",
"310 40 LINE",
"310 495 LINE",
"375 560 LINE",
"455 560 LINE",
"455 93 LINE",
"548 0 LINE",
"765 0 LINE",
"765 40 LINE",
"685 40 LINE"
);
}
);
width = 775;
}
);
unicode = 0068;
},
{
color = 3;
glyphname = hbar;
layers = (
{
layerId = "EC6C78AB-164C-4906-BB1A-929899E67DD8";
name = public.background;
paths = (
{
closed = 1;
nodes = (
"450 680 LINE",
"450 640 LINE",
"0 640 LINE",
"0 680 LINE"
);
}
);
width = 775;
},
{
layerId = "DC22FA31-3913-472E-8859-7ACF2F9D1801";
paths = (
{
closed = 1;
nodes = (
"685 447 LINE",
"592 540 LINE",
"353 540 LINE",
"310 497 LINE",
"310 640 LINE",
"450 640 LINE",
"450 680 LINE",
"310 680 LINE",
"310 787 LINE",
"217 880 LINE",
"0 880 LINE",
"0 840 LINE",
"80 840 LINE",
"80 680 LINE",
"0 680 LINE",
"0 640 LINE",
"80 640 LINE",
"80 93 LINE",
"173 0 LINE",
"370 0 LINE",
"370 40 LINE",
"310 40 LINE",
"310 435 LINE",
"375 500 LINE",
"455 500 LINE",
"455 93 LINE",
"548 0 LINE",
"765 0 LINE",
"765 40 LINE",
"685 40 LINE"
);
}
);
width = 775;
}
);
unicode = 0127;
},
{
color = 3;
glyphname = i;
layers = (
{
layerId = "4DA65396-4C6A-477B-8BE1-4C5C28D8D314";
name = "Regular Jan 8 16, 14:45";
paths = (
{
closed = 1;
nodes = (
"215 40 LINE",
"410 40 LINE",
"410 0 LINE",
"193 0 LINE",
"100 93 LINE",
"100 582 LINE",
"145 582 LINE",
"145 110 LINE"
);
},
{
closed = 1;
nodes = (
"20 600 LINE",
"237 600 LINE",
"330 507 LINE",
"330 18 LINE",
"285 18 LINE",
"285 490 LINE",
"215 560 LINE",
"20 560 LINE"
);
},
{
closed = 1;
nodes = (
"293 832 LINE",
"203 923 LINE",
"112 833 LINE",
"202 742 LINE"
);
},
{
closed = 1;
nodes = (
"203 985 LINE",
"355 832 LINE",
"202 680 LINE",
"50 833 LINE"
);
}
);
width = 430;
},
{
layerId = "DC22FA31-3913-472E-8859-7ACF2F9D1801";
paths = (
{
closed = 1;
nodes = (
"203 985 LINE",
"50 833 LINE",
"202 680 LINE",
"355 832 LINE"
);
},
{
closed = 1;
nodes = (
"330 507 LINE",
"237 600 LINE",
"20 600 LINE",
"20 560 LINE",
"100 560 LINE",
"100 93 LINE",
"193 0 LINE",
"410 0 LINE",
"410 40 LINE",
"330 40 LINE"
);
}
);
width = 430;
}
);
unicode = 0069;
},
{
color = 3;
glyphname = iacute;
layers = (
{
layerId = "DC22FA31-3913-472E-8859-7ACF2F9D1801";
paths = (
{
closed = 1;
nodes = (
"330 507 LINE",
"237 600 LINE",
"20 600 LINE",
"20 560 LINE",
"100 560 LINE",
"100 93 LINE",
"193 0 LINE",
"410 0 LINE",
"410 40 LINE",
"330 40 LINE"
);
},
{
closed = 1;
nodes = (
"215 660 LINE",
"316 804 LINE",
"268 804 LINE",
"167 660 LINE"
);
}
);
width = 430;
}
);
unicode = 00ED;
},
{
color = 3;
glyphname = icircumflex;
layers = (
{
layerId = "DC22FA31-3913-472E-8859-7ACF2F9D1801";
paths = (
{
closed = 1;
nodes = (
"330 507 LINE",
"237 600 LINE",
"20 600 LINE",
"20 560 LINE",
"100 560 LINE",
"100 93 LINE",
"193 0 LINE",
"410 0 LINE",
"410 40 LINE",
"330 40 LINE"
);
},
{
closed = 1;
nodes = (
"103 660 LINE",
"221 814 LINE",
"171 814 LINE",
"53 660 LINE"
);
},
{
closed = 1;
nodes = (
"339 660 LINE",
"221 814 LINE",
"171 814 LINE",
"289 660 LINE"
);
}
);
width = 430;
}
);
unicode = 00EE;
},
{
color = 3;
glyphname = idieresis;
layers = (
{
layerId = "DC22FA31-3913-472E-8859-7ACF2F9D1801";
paths = (
{
closed = 1;
nodes = (
"330 507 LINE",
"237 600 LINE",
"20 600 LINE",
"20 560 LINE",
"100 560 LINE",
"100 93 LINE",
"193 0 LINE",
"410 0 LINE",
"410 40 LINE",
"330 40 LINE"
);
},
{
closed = 1;
nodes = (
"48 737 LINE",
"105 680 LINE",
"162 737 LINE",
"105 794 LINE"
);
},
{
closed = 1;
nodes = (
"267 737 LINE",
"324 680 LINE",
"381 737 LINE",
"324 794 LINE"
);
}
);
width = 430;
}
);
unicode = 00EF;
},
{
color = 3;
glyphname = igrave;
layers = (
{
layerId = "DC22FA31-3913-472E-8859-7ACF2F9D1801";
paths = (
{
closed = 1;
nodes = (
"330 507 LINE",
"237 600 LINE",
"20 600 LINE",
"20 560 LINE",
"100 560 LINE",
"100 93 LINE",
"193 0 LINE",
"410 0 LINE",
"410 40 LINE",
"330 40 LINE"
);
},
{
closed = 1;
nodes = (
"181 660 LINE",
"229 660 LINE",
"138 844 LINE",
"90 844 LINE"
);
}
);
width = 430;
}
);
unicode = 00EC;
},
{
color = 3;
glyphname = imacron;
layers = (
{
layerId = "DC22FA31-3913-472E-8859-7ACF2F9D1801";
paths = (
{
closed = 1;
nodes = (
"330 507 LINE",
"237 600 LINE",
"20 600 LINE",
"20 560 LINE",
"100 560 LINE",
"100 93 LINE",
"193 0 LINE",
"410 0 LINE",
"410 40 LINE",
"330 40 LINE"
);
},
{
closed = 1;
nodes = (
"20 680 LINE",
"360 680 LINE",
"360 720 LINE",
"20 720 LINE"
);
}
);
width = 430;
}
);
unicode = 012B;
},
{
color = 3;
glyphname = iogonek;
layers = (
{
guideLines = (
{
angle = 90;
position = "{215, 0}";
}
);
layerId = "DC22FA31-3913-472E-8859-7ACF2F9D1801";
paths = (
{
closed = 1;
nodes = (
"240 -195 LINE",
"160 -195 LINE",
"120 -155 LINE",
"120 -95 LINE",
"231 16 LINE",
"200 47 LINE",
"75 -78 LINE",
"75 -172 LINE",
"138 -235 LINE",
"262 -235 LINE",
"311 -186 LINE",
"280 -155 LINE"
);
},
{
closed = 1;
nodes = (
"203 985 LINE",
"50 833 LINE",
"202 680 LINE",
"355 832 LINE"
);
},
{
closed = 1;
nodes = (
"330 507 LINE",
"237 600 LINE",
"20 600 LINE",
"20 560 LINE",
"100 560 LINE",
"100 93 LINE",
"193 0 LINE",
"410 0 LINE",
"410 40 LINE",
"330 40 LINE"
);
}
);
width = 430;
}
);
unicode = 012F;
},
{
color = 3;
glyphname = itilde;
layers = (
{
layerId = "DC22FA31-3913-472E-8859-7ACF2F9D1801";
paths = (
{
closed = 1;
nodes = (
"330 507 LINE",
"237 600 LINE",
"20 600 LINE",
"20 560 LINE",
"100 560 LINE",
"100 93 LINE",
"193 0 LINE",
"410 0 LINE",
"410 40 LINE",
"330 40 LINE"
);
},
{
closed = 1;
nodes = (
"207 763 LINE",
"98 763 LINE",
"26 691 LINE",
"57 660 LINE",
"120 723 LINE",
"185 723 LINE",
"248 660 LINE",
"357 660 LINE",
"429 732 LINE",
"398 763 LINE",
"335 700 LINE",
"270 700 LINE"
);
}
);
width = 430;
}
);
unicode = 0129;
},
{
color = 3;
glyphname = j;
layers = (
{
layerId = "206CB227-7D41-42FA-90F7-B362ECA00011";
name = "Regular Jan 8 16, 14:46";
paths = (
{
closed = 1;
nodes = (
"170 582 LINE",
"125 582 LINE",
"125 -227 LINE",
"170 -227 LINE"
);
},
{
closed = 1;
nodes = (
"-60 -167 LINE",
"23 -250 LINE",
"262 -250 LINE",
"355 -157 LINE",
"355 507 LINE",
"262 600 LINE",
"45 600 LINE",
"45 560 LINE",
"240 560 LINE",
"310 490 LINE",
"310 -140 LINE",
"240 -210 LINE",
"45 -210 LINE",
"-29 -136 LINE"
);
},
{
closed = 1;
nodes = (
"318 832 LINE",
"228 923 LINE",
"137 833 LINE",
"227 742 LINE"
);
},
{
closed = 1;
nodes = (
"228 985 LINE",
"380 832 LINE",
"227 680 LINE",
"75 833 LINE"
);
}
);
width = 460;
},
{
layerId = "DC22FA31-3913-472E-8859-7ACF2F9D1801";
paths = (
{
closed = 1;
nodes = (
"228 985 LINE",
"75 833 LINE",
"227 680 LINE",
"380 832 LINE"
);
},
{
closed = 1;
nodes = (
"45 560 LINE",
"125 560 LINE",
"125 -210 LINE",
"45 -210 LINE",
"-29 -136 LINE",
"-60 -167 LINE",
"23 -250 LINE",
"262 -250 LINE",
"355 -157 LINE",
"355 507 LINE",
"262 600 LINE",
"45 600 LINE"
);
}
);
width = 460;
}
);
unicode = 006A;
},
{
color = 3;
glyphname = k;
layers = (
{
guideLines = (
{
angle = 230.15;
position = "{562, 600}";
},
{
angle = 294.16;
position = "{586, 299}";
},
{
angle = 294.16;
position = "{538, 300}";
}
);
layerId = "F805EE6B-F008-46AB-A0D7-8D80C2179FD7";
name = "Bold Nov 28 15, 17:37";
paths = (
{
closed = 1;
nodes = (
"205 40 LINE",
"320 40 LINE",
"320 0 LINE",
"183 0 LINE",
"90 93 LINE",
"90 862 LINE",
"135 862 LINE",
"135 110 LINE"
);
},
{
closed = 1;
nodes = (
"10 880 LINE",
"227 880 LINE",
"320 787 LINE",
"320 18 LINE",
"275 18 LINE",
"275 770 LINE",
"205 840 LINE",
"10 840 LINE"
);
},
{
closed = 1;
nodes = (
"538 300 LINE",
"655 40 LINE",
"510 40 LINE",
"393 300 LINE"
);
},
{
closed = 1;
nodes = (
"345 301 LINE",
"480 0 LINE",
"712 0 LINE",
"717 7 LINE",
"568 340 LINE",
"345 340 LINE"
);
},
{
closed = 1;
nodes = (
"585 600 LINE",
"585 560 LINE",
"401 340 LINE",
"345 340 LINE",
"562 600 LINE"
);
},
{
closed = 1;
nodes = (
"677 560 LINE",
"574 560 LINE",
"574 600 LINE",
"677 600 LINE"
);
},
{
closed = 1;
nodes = (
"659 0 LINE",
"748 0 LINE",
"748 40 LINE",
"659 40 LINE"
);
}
);
width = 768;
},
{
guideLines = (
{
angle = 50.62;
position = "{550, 520}";
}
);
layerId = "B2116C94-8B83-417A-8C71-A0CCE33BA71B";
name = "Bold Nov 24 15, 15:26";
paths = (
{
closed = 1;
nodes = (
"195 40 LINE",
"305 40 LINE",
"305 0 LINE",
"173 0 LINE",
"90 83 LINE",
"90 752 LINE",
"135 752 LINE",
"135 100 LINE"
);
},
{
closed = 1;
nodes = (
"20 770 LINE",
"222 770 LINE",
"305 687 LINE",
"305 18 LINE",
"260 18 LINE",
"260 670 LINE",
"200 730 LINE",
"20 730 LINE"
);
},
{
closed = 1;
nodes = (
"524 280 LINE",
"622 40 LINE",
"476 40 LINE",
"378 280 LINE"
);
},
{
closed = 1;
nodes = (
"330 281 LINE",
"445 0 LINE",
"676 0 LINE",
"681 7 LINE",
"553 320 LINE",
"330 320 LINE"
);
},
{
closed = 1;
nodes = (
"550 560 LINE",
"550 520 LINE",
"386 320 LINE",
"330 320 LINE",
"527 560 LINE"
);
},
{
closed = 1;
nodes = (
"642 520 LINE",
"539 520 LINE",
"539 560 LINE",
"642 560 LINE"
);
},
{
closed = 1;
nodes = (
"624 0 LINE",
"713 0 LINE",
"713 40 LINE",
"624 40 LINE"
);
}
);
width = 713;
},
{
guideLines = (
{
angle = 50.62;
position = "{550, 520}";
}
);
layerId = "A97FABD0-1346-4394-8D72-82A539725493";
name = "Bold Nov 23 15, 15:18";
paths = (
{
closed = 1;
nodes = (
"195 40 LINE",
"305 40 LINE",
"305 0 LINE",
"173 0 LINE",
"90 83 LINE",
"90 752 LINE",
"135 752 LINE",
"135 100 LINE"
);
},
{
closed = 1;
nodes = (
"20 770 LINE",
"222 770 LINE",
"305 687 LINE",
"305 18 LINE",
"260 18 LINE",
"260 670 LINE",
"200 730 LINE",
"20 730 LINE"
);
},
{
closed = 1;
nodes = (
"524 280 LINE",
"622 40 LINE",
"476 40 LINE",
"378 280 LINE"
);
},
{
closed = 1;
nodes = (
"330 281 LINE",
"445 0 LINE",
"676 0 LINE",
"681 7 LINE",
"553 320 LINE",
"330 320 LINE"
);
},
{
closed = 1;
nodes = (
"550 560 LINE",
"550 520 LINE",
"386 320 LINE",
"330 320 LINE",
"527 560 LINE"
);
},
{
closed = 1;
nodes = (
"642 520 LINE",
"539 520 LINE",
"539 560 LINE",
"642 560 LINE"
);
},
{
closed = 1;
nodes = (
"624 0 LINE",
"713 0 LINE",
"713 40 LINE",
"624 40 LINE"
);
},
{
closed = 1;
nodes = (
"642 420 LINE",
"439 420 LINE",
"469 460 LINE",
"642 460 LINE"
);
},
{
closed = 1;
nodes = (
"642 560 LINE",
"642 420 LINE",
"597 420 LINE",
"597 560 LINE"
);
}
);
width = 713;
},
{
guideLines = (
{
angle = 49.22;
position = "{550, 520}";
}
);
layerId = "CA0CA123-4A02-4335-BC54-8ACD21B910C3";
name = "Bold Nov 21 15, 14:25";
paths = (
{
closed = 1;
nodes = (
"335 40 LINE",
"335 0 LINE",
"80 0 LINE",
"80 742 LINE",
"125 742 LINE",
"125 40 LINE"
);
},
{
closed = 1;
nodes = (
"10 760 LINE",
"212 760 LINE",
"295 677 LINE",
"295 18 LINE",
"250 18 LINE",
"250 660 LINE",
"190 720 LINE",
"10 720 LINE"
);
},
{
closed = 1;
nodes = (
"514 280 LINE",
"612 40 LINE",
"466 40 LINE",
"368 280 LINE"
);
},
{
closed = 1;
nodes = (
"320 281 LINE",
"435 0 LINE",
"666 0 LINE",
"671 7 LINE",
"543 320 LINE",
"320 320 LINE"
);
},
{
closed = 1;
nodes = (
"550 560 LINE",
"550 520 LINE",
"377 320 LINE",
"320 320 LINE",
"527 560 LINE"
);
},
{
closed = 1;
nodes = (
"642 520 LINE",
"539 520 LINE",
"539 560 LINE",
"642 560 LINE"
);
},
{
closed = 1;
nodes = (
"614 0 LINE",
"703 0 LINE",
"703 40 LINE",
"614 40 LINE"
);
},
{
closed = 1;
nodes = (
"124 40 LINE",
"124 0 LINE",
"20 0 LINE",
"20 40 LINE"
);
}
);
width = 703;
},
{
guideLines = (
{
angle = 51.34;
position = "{320, 320}";
}
);
layerId = "30E70898-57BC-4D30-9003-0F414E1807E3";
name = "Bold Nov 21 15, 14:23";
paths = (
{
closed = 1;
nodes = (
"185 40 LINE",
"295 40 LINE",
"295 0 LINE",
"163 0 LINE",
"80 83 LINE",
"80 742 LINE",
"125 742 LINE",
"125 100 LINE"
);
},
{
closed = 1;
nodes = (
"10 760 LINE",
"212 760 LINE",
"295 677 LINE",
"295 18 LINE",
"250 18 LINE",
"250 660 LINE",
"190 720 LINE",
"10 720 LINE"
);
},
{
closed = 1;
nodes = (
"499 280 LINE",
"597 40 LINE",
"466 40 LINE",
"368 280 LINE"
);
},
{
closed = 1;
nodes = (
"320 281 LINE",
"435 0 LINE",
"651 0 LINE",
"656 7 LINE",
"528 320 LINE",
"320 320 LINE"
);
},
{
closed = 1;
nodes = (
"535 560 LINE",
"535 520 LINE",
"375 320 LINE",
"320 320 LINE",
"512 560 LINE"
);
},
{
closed = 1;
nodes = (
"627 520 LINE",
"524 520 LINE",
"524 560 LINE",
"627 560 LINE"
);
},
{
closed = 1;
nodes = (
"599 0 LINE",
"688 0 LINE",
"688 40 LINE",
"599 40 LINE"
);
}
);
width = 688;
},
{
guideLines = (
{
angle = 52.83;
position = "{525, 520}";
}
);
layerId = "8BAA2494-5046-4490-BBDF-0552F20A94C6";
name = "Bold Nov 21 15, 12:45";
paths = (
{
closed = 1;
nodes = (
"185 40 LINE",
"295 40 LINE",
"295 0 LINE",
"163 0 LINE",
"80 83 LINE",
"80 742 LINE",
"125 742 LINE",
"125 100 LINE"
);
},
{
closed = 1;
nodes = (
"10 760 LINE",
"212 760 LINE",
"295 677 LINE",
"295 18 LINE",
"250 18 LINE",
"250 660 LINE",
"190 720 LINE",
"10 720 LINE"
);
},
{
closed = 1;
nodes = (
"499 280 LINE",
"597 40 LINE",
"466 40 LINE",
"368 280 LINE"
);
},
{
closed = 1;
nodes = (
"320 281 LINE",
"435 0 LINE",
"651 0 LINE",
"656 7 LINE",
"528 320 LINE",
"320 320 LINE"
);
},
{
closed = 1;
nodes = (
"525 560 LINE",
"525 520 LINE",
"373 320 LINE",
"320 320 LINE",
"502 560 LINE"
);
},
{
closed = 1;
nodes = (
"617 520 LINE",
"514 520 LINE",
"514 560 LINE",
"617 560 LINE"
);
},
{
closed = 1;
nodes = (
"599 0 LINE",
"688 0 LINE",
"688 40 LINE",
"599 40 LINE"
);
},
{
closed = 1;
nodes = (
"617 410 LINE",
"430 410 LINE",
"430 450 LINE",
"617 450 LINE"
);
},
{
closed = 1;
nodes = (
"617 540 LINE",
"617 433 LINE",
"572 433 LINE",
"572 540 LINE"
);
}
);
width = 688;
},
{
guideLines = (
{
angle = 229.;
position = "{401, 338}";
},
{
angle = 294.16;
position = "{588, 340}";
},
{
angle = 294.16;
position = "{345, 301}";
}
);
layerId = "DC22FA31-3913-472E-8859-7ACF2F9D1801";
paths = (
{
closed = 1;
nodes = (
"10 840 LINE",
"90 840 LINE",
"90 93 LINE",
"183 0 LINE",
"320 0 LINE",
"320 787 LINE",
"227 880 LINE",
"10 880 LINE"
);
},
{
closed = 1;
nodes = (
"578 340 LINE",
"403 340 LINE",
"594 560 LINE",
"686 560 LINE",
"686 600 LINE",
"571 600 LINE",
"345 340 LINE",
"345 301 LINE",
"480 0 LINE",
"762 0 LINE",
"762 40 LINE",
"712 40 LINE"
);
}
);
width = 777;
}
);
unicode = 006B;
},
{
color = 3;
glyphname = l;
layers = (
{
layerId = "94F7C038-E8FC-4DDA-8995-E3B489A77D53";
name = "Bold Nov 24 15, 15:32";
paths = (
{
closed = 1;
nodes = (
"185 40 LINE",
"365 40 LINE",
"365 0 LINE",
"163 0 LINE",
"80 83 LINE",
"80 752 LINE",
"125 752 LINE",
"125 100 LINE"
);
},
{
closed = 1;
nodes = (
"295 18 LINE",
"250 18 LINE",
"250 670 LINE",
"190 730 LINE",
"10 730 LINE",
"10 770 LINE",
"212 770 LINE",
"295 687 LINE"
);
}
);
width = 375;
},
{
layerId = "DC22FA31-3913-472E-8859-7ACF2F9D1801";
paths = (
{
closed = 1;
nodes = (
"300 787 LINE",
"207 880 LINE",
"0 880 LINE",
"0 840 LINE",
"70 840 LINE",
"70 93 LINE",
"163 0 LINE",
"370 0 LINE",
"370 40 LINE",
"300 40 LINE"
);
}
);
width = 390;
}
);
unicode = 006C;
},
{
color = 3;
glyphname = lacute;
layers = (
{
layerId = "DC22FA31-3913-472E-8859-7ACF2F9D1801";
paths = (
{
closed = 1;
nodes = (
"300 787 LINE",
"207 880 LINE",
"0 880 LINE",
"0 840 LINE",
"70 840 LINE",
"70 93 LINE",
"163 0 LINE",
"370 0 LINE",
"370 40 LINE",
"300 40 LINE"
);
},
{
closed = 1;
nodes = (
"198 940 LINE",
"299 1084 LINE",
"251 1084 LINE",
"150 940 LINE"
);
}
);
width = 390;
}
);
unicode = 013A;
},
{
color = 3;
glyphname = lcaron;
layers = (
{
layerId = "DC22FA31-3913-472E-8859-7ACF2F9D1801";
paths = (
{
closed = 1;
nodes = (
"300 787 LINE",
"207 880 LINE",
"0 880 LINE",
"0 840 LINE",
"70 840 LINE",
"70 93 LINE",
"163 0 LINE",
"370 0 LINE",
"370 40 LINE",
"300 40 LINE"
);
},
{
closed = 1;
nodes = (
"512 620 LINE",
"556 880 LINE",
"370 880 LINE",
"370 620 LINE"
);
}
);
width = 576;
}
);
unicode = 013E;
},
{
color = 3;
glyphname = lslash;
layers = (
{
layerId = "4A3B768D-46D2-4428-8D7C-1D1C43D46EE8";
name = "Bold Dec 5 15, 18:39";
paths = (
{
closed = 1;
nodes = (
"185 40 LINE",
"370 40 LINE",
"370 0 LINE",
"163 0 LINE",
"70 93 LINE",
"70 862 LINE",
"115 862 LINE",
"115 110 LINE"
);
},
{
closed = 1;
nodes = (
"300 18 LINE",
"255 18 LINE",
"255 770 LINE",
"185 840 LINE",
"0 840 LINE",
"0 880 LINE",
"207 880 LINE",
"300 787 LINE"
);
},
{
closed = 1;
nodes = (
"370 574 LINE",
"370 522 LINE",
"0 322 LINE",
"0 374 LINE"
);
}
);
width = 390;
},
{
layerId = "DC22FA31-3913-472E-8859-7ACF2F9D1801";
paths = (
{
closed = 1;
nodes = (
"380 600 LINE",
"-32 376 LINE",
"-10 336 LINE",
"402 560 LINE"
);
},
{
closed = 1;
nodes = (
"300 787 LINE",
"207 880 LINE",
"0 880 LINE",
"0 840 LINE",
"70 840 LINE",
"70 93 LINE",
"163 0 LINE",
"370 0 LINE",
"370 40 LINE",
"300 40 LINE"
);
}
);
width = 390;
}
);
unicode = 0142;
},
{
color = 3;
glyphname = m;
layers = (
{
guideLines = (
{
position = "{0, 420}";
}
);
layerId = "D590C68D-8F10-44E9-B86B-206C1CC1BDAD";
name = "Bold Nov 24 15, 15:40";
paths = (
{
closed = 1;
nodes = (
"100 25 LINE",
"100 502 LINE",
"145 502 LINE",
"145 25 LINE"
);
},
{
closed = 1;
nodes = (
"30 520 LINE",
"222 520 LINE",
"315 427 LINE",
"315 18 LINE",
"270 18 LINE",
"270 410 LINE",
"200 480 LINE",
"30 480 LINE"
);
},
{
closed = 1;
nodes = (
"30 40 LINE",
"365 40 LINE",
"365 0 LINE",
"30 0 LINE"
);
},
{
closed = 1;
nodes = (
"304 399 LINE",
"275 432 LINE",
"363 520 LINE",
"562 520 LINE",
"655 427 LINE",
"655 20 LINE",
"610 20 LINE",
"610 410 LINE",
"540 480 LINE",
"385 480 LINE"
);
},
{
closed = 1;
nodes = (
"644 399 LINE",
"615 432 LINE",
"703 520 LINE",
"897 520 LINE",
"990 427 LINE",
"990 20 LINE",
"945 20 LINE",
"945 410 LINE",
"875 480 LINE",
"725 480 LINE"
);
},
{
closed = 1;
nodes = (
"705 40 LINE",
"705 0 LINE",
"440 0 LINE",
"440 502 LINE",
"485 502 LINE",
"485 40 LINE"
);
},
{
closed = 1;
nodes = (
"780 83 LINE",
"780 502 LINE",
"825 502 LINE",
"825 100 LINE",
"885 40 LINE",
"1060 40 LINE",
"1060 0 LINE",
"863 0 LINE"
);
}
);
width = 1070;
},
{
guideLines = (
{
position = "{0, 420}";
}
);
layerId = "F5156F9D-2D9A-41C2-B231-D7C730FEAB4D";
name = "Bold Nov 21 15, 14:43";
paths = (
{
closed = 1;
nodes = (
"100 25 LINE",
"100 502 LINE",
"145 502 LINE",
"145 25 LINE"
);
},
{
closed = 1;
nodes = (
"30 520 LINE",
"222 520 LINE",
"315 427 LINE",
"315 18 LINE",
"270 18 LINE",
"270 410 LINE",
"200 480 LINE",
"30 480 LINE"
);
},
{
closed = 1;
nodes = (
"40 40 LINE",
"365 40 LINE",
"365 0 LINE",
"40 0 LINE"
);
},
{
closed = 1;
nodes = (
"304 399 LINE",
"275 432 LINE",
"363 520 LINE",
"562 520 LINE",
"655 427 LINE",
"655 20 LINE",
"610 20 LINE",
"610 410 LINE",
"540 480 LINE",
"385 480 LINE"
);
},
{
closed = 1;
nodes = (
"644 399 LINE",
"615 432 LINE",
"703 520 LINE",
"897 520 LINE",
"990 427 LINE",
"990 20 LINE",
"945 20 LINE",
"945 410 LINE",
"875 480 LINE",
"725 480 LINE"
);
},
{
closed = 1;
nodes = (
"545 40 LINE",
"705 40 LINE",
"705 0 LINE",
"523 0 LINE",
"440 83 LINE",
"440 502 LINE",
"485 502 LINE",
"485 100 LINE"
);
},
{
closed = 1;
nodes = (
"780 83 LINE",
"780 502 LINE",
"825 502 LINE",
"825 100 LINE",
"885 40 LINE",
"1060 40 LINE",
"1060 0 LINE",
"863 0 LINE"
);
}
);
width = 1070;
},
{
guideLines = (
{
position = "{0, 420}";
}
);
layerId = "E4D9F8E5-48ED-43EF-840C-14D1E84BAF90";
name = "Bold Nov 21 15, 14:10";
paths = (
{
closed = 1;
nodes = (
"100 25 LINE",
"100 502 LINE",
"145 502 LINE",
"145 25 LINE"
);
},
{
closed = 1;
nodes = (
"30 520 LINE",
"222 520 LINE",
"315 427 LINE",
"315 18 LINE",
"270 18 LINE",
"270 410 LINE",
"200 480 LINE",
"30 480 LINE"
);
},
{
closed = 1;
nodes = (
"40 40 LINE",
"365 40 LINE",
"365 0 LINE",
"40 0 LINE"
);
},
{
closed = 1;
nodes = (
"304 399 LINE",
"275 432 LINE",
"363 520 LINE",
"562 520 LINE",
"655 427 LINE",
"655 20 LINE",
"610 20 LINE",
"610 410 LINE",
"540 480 LINE",
"385 480 LINE"
);
},
{
closed = 1;
nodes = (
"440 25 LINE",
"440 502 LINE",
"485 502 LINE",
"485 25 LINE"
);
},
{
closed = 1;
nodes = (
"440 40 LINE",
"705 40 LINE",
"705 0 LINE",
"440 0 LINE"
);
},
{
closed = 1;
nodes = (
"644 399 LINE",
"615 432 LINE",
"703 520 LINE",
"897 520 LINE",
"990 427 LINE",
"990 20 LINE",
"945 20 LINE",
"945 410 LINE",
"875 480 LINE",
"725 480 LINE"
);
},
{
closed = 1;
nodes = (
"780 25 LINE",
"780 502 LINE",
"825 502 LINE",
"825 25 LINE"
);
},
{
closed = 1;
nodes = (
"780 40 LINE",
"1060 40 LINE",
"1060 0 LINE",
"780 0 LINE"
);
}
);
width = 1070;
},
{
guideLines = (
{
position = "{0, 420}";
}
);
layerId = "7F202B16-83BE-4CEE-AF5B-59D3229B1843";
name = "Bold Nov 19 15, 15:23";
paths = (
{
closed = 1;
nodes = (
"100 25 LINE",
"100 502 LINE",
"145 502 LINE",
"145 25 LINE"
);
},
{
closed = 1;
nodes = (
"30 520 LINE",
"232 520 LINE",
"315 437 LINE",
"315 18 LINE",
"270 18 LINE",
"270 420 LINE",
"210 480 LINE",
"30 480 LINE"
);
},
{
closed = 1;
nodes = (
"40 40 LINE",
"365 40 LINE",
"365 0 LINE",
"40 0 LINE"
);
},
{
closed = 1;
nodes = (
"304 409 LINE",
"275 442 LINE",
"353 520 LINE",
"572 520 LINE",
"655 437 LINE",
"655 20 LINE",
"610 20 LINE",
"610 420 LINE",
"550 480 LINE",
"375 480 LINE"
);
},
{
closed = 1;
nodes = (
"440 25 LINE",
"440 502 LINE",
"485 502 LINE",
"485 25 LINE"
);
},
{
closed = 1;
nodes = (
"440 40 LINE",
"705 40 LINE",
"705 0 LINE",
"440 0 LINE"
);
},
{
closed = 1;
nodes = (
"644 409 LINE",
"615 442 LINE",
"693 520 LINE",
"907 520 LINE",
"990 437 LINE",
"990 20 LINE",
"945 20 LINE",
"945 420 LINE",
"885 480 LINE",
"715 480 LINE"
);
},
{
closed = 1;
nodes = (
"780 25 LINE",
"780 502 LINE",
"825 502 LINE",
"825 25 LINE"
);
},
{
closed = 1;
nodes = (
"780 40 LINE",
"1060 40 LINE",
"1060 0 LINE",
"780 0 LINE"
);
}
);
width = 1070;
},
{
guideLines = (
{
position = "{0, 420}";
}
);
layerId = "DC22FA31-3913-472E-8859-7ACF2F9D1801";
paths = (
{
closed = 1;
nodes = (
"1075 507 LINE",
"982 600 LINE",
"758 600 LINE",
"688 530 LINE",
"617 600 LINE",
"388 600 LINE",
"318 530 LINE",
"247 600 LINE",
"30 600 LINE",
"30 560 LINE",
"110 560 LINE",
"110 40 LINE",
"30 40 LINE",
"30 0 LINE",
"400 0 LINE",
"400 40 LINE",
"340 40 LINE",
"340 490 LINE",
"410 560 LINE",
"480 560 LINE",
"480 0 LINE",
"770 0 LINE",
"770 40 LINE",
"710 40 LINE",
"710 490 LINE",
"780 560 LINE",
"850 560 LINE",
"850 83 LINE",
"933 0 LINE",
"1155 0 LINE",
"1155 40 LINE",
"1075 40 LINE"
);
}
);
width = 1185;
}
);
unicode = 006D;
},
{
color = 3;
glyphname = n;
layers = (
{
guideLines = (
{
position = "{0, 410}";
}
);
layerId = "E879C2A9-00F4-4CCF-8D95-8B4E60C4A07A";
name = "Bold Nov 24 15, 15:44";
paths = (
{
closed = 1;
nodes = (
"100 25 LINE",
"100 502 LINE",
"145 502 LINE",
"145 25 LINE"
);
},
{
closed = 1;
nodes = (
"30 520 LINE",
"222 520 LINE",
"315 427 LINE",
"315 18 LINE",
"270 18 LINE",
"270 410 LINE",
"200 480 LINE",
"30 480 LINE"
);
},
{
closed = 1;
nodes = (
"30 40 LINE",
"365 40 LINE",
"365 0 LINE",
"30 0 LINE"
);
},
{
closed = 1;
nodes = (
"304 399 LINE",
"275 432 LINE",
"363 520 LINE",
"557 520 LINE",
"650 427 LINE",
"650 20 LINE",
"605 20 LINE",
"605 410 LINE",
"535 480 LINE",
"385 480 LINE"
);
},
{
closed = 1;
nodes = (
"440 502 LINE",
"485 502 LINE",
"485 100 LINE",
"545 40 LINE",
"720 40 LINE",
"720 0 LINE",
"523 0 LINE",
"440 83 LINE"
);
}
);
width = 730;
},
{
guideLines = (
{
position = "{0, 410}";
}
);
layerId = "7AE1FB93-0AD9-439D-8D25-4CF16CB00737";
name = "Bold Nov 18 15, 18:37";
paths = (
{
closed = 1;
nodes = (
"100 25 LINE",
"100 502 LINE",
"145 502 LINE",
"145 25 LINE"
);
},
{
closed = 1;
nodes = (
"30 520 LINE",
"222 520 LINE",
"315 427 LINE",
"315 18 LINE",
"270 18 LINE",
"270 410 LINE",
"200 480 LINE",
"30 480 LINE"
);
},
{
closed = 1;
nodes = (
"30 40 LINE",
"365 40 LINE",
"365 0 LINE",
"30 0 LINE"
);
},
{
closed = 1;
nodes = (
"304 399 LINE",
"275 432 LINE",
"363 520 LINE",
"557 520 LINE",
"650 427 LINE",
"650 20 LINE",
"605 20 LINE",
"605 410 LINE",
"535 480 LINE",
"385 480 LINE"
);
},
{
closed = 1;
nodes = (
"440 25 LINE",
"440 502 LINE",
"485 502 LINE",
"485 25 LINE"
);
},
{
closed = 1;
nodes = (
"440 40 LINE",
"720 40 LINE",
"720 0 LINE",
"440 0 LINE"
);
}
);
width = 710;
},
{
guideLines = (
{
position = "{0, 410}";
}
);
layerId = "712F2F41-C984-46E4-9F95-2A2CBD7F3556";
name = "Bold Nov 18 15, 10:45";
paths = (
{
closed = 1;
nodes = (
"100 25 LINE",
"100 502 LINE",
"145 502 LINE",
"145 25 LINE"
);
},
{
closed = 1;
nodes = (
"30 520 LINE",
"222 520 LINE",
"315 427 LINE",
"315 18 LINE",
"270 18 LINE",
"270 410 LINE",
"200 480 LINE",
"30 480 LINE"
);
},
{
closed = 1;
nodes = (
"30 40 LINE",
"365 40 LINE",
"365 0 LINE",
"30 0 LINE"
);
},
{
closed = 1;
nodes = (
"304 399 LINE",
"275 432 LINE",
"363 520 LINE",
"557 520 LINE",
"650 427 LINE",
"650 20 LINE",
"605 20 LINE",
"605 410 LINE",
"535 480 LINE",
"385 480 LINE"
);
},
{
closed = 1;
nodes = (
"545 40 LINE",
"725 40 LINE",
"725 0 LINE",
"523 0 LINE",
"440 83 LINE",
"440 502 LINE",
"485 502 LINE",
"485 100 LINE"
);
}
);
width = 710;
},
{
guideLines = (
{
position = "{0, 410}";
}
);
layerId = "F415B0FA-2EED-4DE2-8C59-8FEC62D4E255";
name = "Bold Nov 18 15, 10:42";
paths = (
{
closed = 1;
nodes = (
"100 25 LINE",
"100 502 LINE",
"145 502 LINE",
"145 25 LINE"
);
},
{
closed = 1;
nodes = (
"30 520 LINE",
"222 520 LINE",
"315 427 LINE",
"315 18 LINE",
"270 18 LINE",
"270 410 LINE",
"200 480 LINE",
"30 480 LINE"
);
},
{
closed = 1;
nodes = (
"30 40 LINE",
"355 40 LINE",
"355 0 LINE",
"30 0 LINE"
);
},
{
closed = 1;
nodes = (
"304 399 LINE",
"275 432 LINE",
"363 520 LINE",
"557 520 LINE",
"650 427 LINE",
"650 20 LINE",
"605 20 LINE",
"605 410 LINE",
"535 480 LINE",
"385 480 LINE"
);
},
{
closed = 1;
nodes = (
"440 25 LINE",
"440 502 LINE",
"485 502 LINE",
"485 25 LINE"
);
},
{
closed = 1;
nodes = (
"400 40 LINE",
"720 40 LINE",
"720 0 LINE",
"400 0 LINE"
);
}
);
width = 710;
},
{
guideLines = (
{
position = "{0, 410}";
}
);
layerId = "997DA782-312A-40F6-91EF-E798C9D664AC";
name = "Bold Nov 17 15, 12:02";
paths = (
{
closed = 1;
nodes = (
"100 25 LINE",
"100 502 LINE",
"145 502 LINE",
"145 25 LINE"
);
},
{
closed = 1;
nodes = (
"30 520 LINE",
"222 520 LINE",
"315 427 LINE",
"315 18 LINE",
"270 18 LINE",
"270 410 LINE",
"200 480 LINE",
"30 480 LINE"
);
},
{
closed = 1;
nodes = (
"30 40 LINE",
"315 40 LINE",
"315 0 LINE",
"30 0 LINE"
);
},
{
closed = 1;
nodes = (
"304 399 LINE",
"275 432 LINE",
"363 520 LINE",
"567 520 LINE",
"660 427 LINE",
"660 20 LINE",
"615 20 LINE",
"615 410 LINE",
"545 480 LINE",
"385 480 LINE"
);
},
{
closed = 1;
nodes = (
"450 25 LINE",
"450 502 LINE",
"495 502 LINE",
"495 25 LINE"
);
},
{
closed = 1;
nodes = (
"450 40 LINE",
"730 40 LINE",
"730 0 LINE",
"450 0 LINE"
);
}
);
width = 720;
},
{
guideLines = (
{
position = "{0, 490}";
}
);
layerId = "DC22FA31-3913-472E-8859-7ACF2F9D1801";
paths = (
{
closed = 1;
nodes = (
"700 507 LINE",
"607 600 LINE",
"378 600 LINE",
"308 530 LINE",
"237 600 LINE",
"20 600 LINE",
"20 560 LINE",
"100 560 LINE",
"100 40 LINE",
"20 40 LINE",
"20 0 LINE",
"380 0 LINE",
"380 40 LINE",
"330 40 LINE",
"330 490 LINE",
"400 560 LINE",
"470 560 LINE",
"470 83 LINE",
"553 0 LINE",
"780 0 LINE",
"780 40 LINE",
"700 40 LINE"
);
}
);
width = 800;
}
);
unicode = 006E;
},
{
color = 3;
glyphname = nacute;
layers = (
{
layerId = "DC22FA31-3913-472E-8859-7ACF2F9D1801";
paths = (
{
closed = 1;
nodes = (
"700 507 LINE",
"607 600 LINE",
"378 600 LINE",
"308 530 LINE",
"237 600 LINE",
"20 600 LINE",
"20 560 LINE",
"100 560 LINE",
"100 40 LINE",
"20 40 LINE",
"20 0 LINE",
"380 0 LINE",
"380 40 LINE",
"330 40 LINE",
"330 490 LINE",
"400 560 LINE",
"470 560 LINE",
"470 83 LINE",
"553 0 LINE",
"780 0 LINE",
"780 40 LINE",
"700 40 LINE"
);
},
{
closed = 1;
nodes = (
"410 660 LINE",
"511 804 LINE",
"463 804 LINE",
"362 660 LINE"
);
}
);
width = 800;
}
);
unicode = 0144;
},
{
color = 3;
glyphname = ncaron;
layers = (
{
layerId = "DC22FA31-3913-472E-8859-7ACF2F9D1801";
paths = (
{
closed = 1;
nodes = (
"700 507 LINE",
"607 600 LINE",
"378 600 LINE",
"308 530 LINE",
"237 600 LINE",
"20 600 LINE",
"20 560 LINE",
"100 560 LINE",
"100 40 LINE",
"20 40 LINE",
"20 0 LINE",
"380 0 LINE",
"380 40 LINE",
"330 40 LINE",
"330 490 LINE",
"400 560 LINE",
"470 560 LINE",
"470 83 LINE",
"553 0 LINE",
"780 0 LINE",
"780 40 LINE",
"700 40 LINE"
);
},
{
closed = 1;
nodes = (
"299 814 LINE",
"249 814 LINE",
"367 660 LINE",
"417 660 LINE"
);
},
{
closed = 1;
nodes = (
"535 814 LINE",
"485 814 LINE",
"367 660 LINE",
"417 660 LINE"
);
}
);
width = 800;
}
);
unicode = 0148;
},
{
color = 3;
glyphname = eng;
layers = (
{
layerId = "DC22FA31-3913-472E-8859-7ACF2F9D1801";
paths = (
{
closed = 1;
nodes = (
"378 600 LINE",
"308 530 LINE",
"237 600 LINE",
"20 600 LINE",
"20 560 LINE",
"100 560 LINE",
"100 40 LINE",
"20 40 LINE",
"20 0 LINE",
"380 0 LINE",
"380 40 LINE",
"330 40 LINE",
"330 490 LINE",
"400 560 LINE",
"470 560 LINE",
"470 -250 LINE",
"390 -250 LINE",
"316 -176 LINE",
"285 -207 LINE",
"368 -290 LINE",
"607 -290 LINE",
"700 -197 LINE",
"700 507 LINE",
"607 600 LINE"
);
}
);
width = 780;
}
);
unicode = 014B;
},
{
color = 3;
glyphname = ntilde;
layers = (
{
layerId = "DC22FA31-3913-472E-8859-7ACF2F9D1801";
paths = (
{
closed = 1;
nodes = (
"700 507 LINE",
"607 600 LINE",
"378 600 LINE",
"308 530 LINE",
"237 600 LINE",
"20 600 LINE",
"20 560 LINE",
"100 560 LINE",
"100 40 LINE",
"20 40 LINE",
"20 0 LINE",
"380 0 LINE",
"380 40 LINE",
"330 40 LINE",
"330 490 LINE",
"400 560 LINE",
"470 560 LINE",
"470 83 LINE",
"553 0 LINE",
"780 0 LINE",
"780 40 LINE",
"700 40 LINE"
);
},
{
closed = 1;
nodes = (
"358 763 LINE",
"249 763 LINE",
"177 691 LINE",
"208 660 LINE",
"271 723 LINE",
"336 723 LINE",
"399 660 LINE",
"508 660 LINE",
"580 732 LINE",
"549 763 LINE",
"486 700 LINE",
"421 700 LINE"
);
}
);
width = 800;
}
);
unicode = 00F1;
},
{
color = 3;
glyphname = o;
layers = (
{
guideLines = (
{
angle = 45;
position = "{476, 0}";
},
{
angle = 315;
position = "{40, 98}";
}
);
layerId = "D8BEAB94-BD95-49DE-9795-54237F79F4EA";
name = "Bold Nov 24 15, 15:48";
paths = (
{
closed = 1;
nodes = (
"215 20 LINE",
"215 502 LINE",
"260 502 LINE",
"260 20 LINE"
);
},
{
closed = 1;
nodes = (
"354 20 LINE",
"354 502 LINE",
"399 502 LINE",
"399 20 LINE"
);
},
{
closed = 1;
nodes = (
"574 422 LINE",
"574 98 LINE",
"476 0 LINE",
"138 0 LINE",
"40 98 LINE",
"40 422 LINE",
"138 520 LINE",
"476 520 LINE"
);
},
{
closed = 1;
nodes = (
"529 115 LINE",
"529 405 LINE",
"454 480 LINE",
"160 480 LINE",
"85 405 LINE",
"85 115 LINE",
"160 40 LINE",
"454 40 LINE"
);
}
);
width = 614;
},
{
layerId = "CD49DD00-A0D5-4ECF-A419-05DEA5630114";
name = "Bold Nov 17 15, 11:59";
paths = (
{
closed = 1;
nodes = (
"215 20 LINE",
"215 502 LINE",
"260 502 LINE",
"260 20 LINE"
);
},
{
closed = 1;
nodes = (
"354 20 LINE",
"354 502 LINE",
"399 502 LINE",
"399 20 LINE"
);
},
{
closed = 1;
nodes = (
"574 417 LINE",
"574 103 LINE",
"471 0 LINE",
"143 0 LINE",
"40 103 LINE",
"40 417 LINE",
"143 520 LINE",
"471 520 LINE"
);
},
{
closed = 1;
nodes = (
"529 120 LINE",
"529 400 LINE",
"449 480 LINE",
"165 480 LINE",
"85 400 LINE",
"85 120 LINE",
"165 40 LINE",
"449 40 LINE"
);
}
);
width = 600;
},
{
layerId = "B4F6D58C-7EC3-4830-BC17-4BE5E582228A";
name = "Bold Nov 17 15, 11:59.1";
paths = (
{
closed = 1;
nodes = (
"215 20 LINE",
"215 502 LINE",
"260 502 LINE",
"260 20 LINE"
);
},
{
closed = 1;
nodes = (
"354 20 LINE",
"354 502 LINE",
"399 502 LINE",
"399 20 LINE"
);
},
{
closed = 1;
nodes = (
"574 427 LINE",
"574 93 LINE",
"481 0 LINE",
"133 0 LINE",
"40 93 LINE",
"40 427 LINE",
"133 520 LINE",
"481 520 LINE"
);
},
{
closed = 1;
nodes = (
"529 110 LINE",
"529 410 LINE",
"459 480 LINE",
"155 480 LINE",
"85 410 LINE",
"85 110 LINE",
"155 40 LINE",
"459 40 LINE"
);
}
);
width = 600;
},
{
guideLines = (
{
angle = 45;
position = "{521, 0}";
},
{
angle = 315;
position = "{50, 103}";
}
);
layerId = "DC22FA31-3913-472E-8859-7ACF2F9D1801";
paths = (
{
closed = 1;
nodes = (
"153 600 LINE",
"50 497 LINE",
"50 103 LINE",
"153 0 LINE",
"521 0 LINE",
"624 103 LINE",
"624 497 LINE",
"521 600 LINE"
);
},
{
closed = 1;
nodes = (
"384 40 LINE",
"290 40 LINE",
"290 560 LINE",
"384 560 LINE"
);
}
);
width = 674;
}
);
unicode = 006F;
},
{
color = 3;
glyphname = oacute;
layers = (
{
layerId = "DC22FA31-3913-472E-8859-7ACF2F9D1801";
paths = (
{
closed = 1;
nodes = (
"153 600 LINE",
"50 497 LINE",
"50 103 LINE",
"153 0 LINE",
"521 0 LINE",
"624 103 LINE",
"624 497 LINE",
"521 600 LINE"
);
},
{
closed = 1;
nodes = (
"384 40 LINE",
"290 40 LINE",
"290 560 LINE",
"384 560 LINE"
);
},
{
closed = 1;
nodes = (
"370 660 LINE",
"471 804 LINE",
"423 804 LINE",
"322 660 LINE"
);
}
);
width = 674;
}
);
unicode = 00F3;
},
{
color = 3;
glyphname = ocaron;
layers = (
{
layerId = "DC22FA31-3913-472E-8859-7ACF2F9D1801";
paths = (
{
closed = 1;
nodes = (
"153 600 LINE",
"50 497 LINE",
"50 103 LINE",
"153 0 LINE",
"521 0 LINE",
"624 103 LINE",
"624 497 LINE",
"521 600 LINE"
);
},
{
closed = 1;
nodes = (
"384 40 LINE",
"290 40 LINE",
"290 560 LINE",
"384 560 LINE"
);
},
{
closed = 1;
nodes = (
"244 814 LINE",
"194 814 LINE",
"312 660 LINE",
"362 660 LINE"
);
},
{
closed = 1;
nodes = (
"480 814 LINE",
"430 814 LINE",
"312 660 LINE",
"362 660 LINE"
);
}
);
width = 674;
}
);
unicode = 01D2;
},
{
color = 3;
glyphname = ocircumflex;
layers = (
{
layerId = "DC22FA31-3913-472E-8859-7ACF2F9D1801";
paths = (
{
closed = 1;
nodes = (
"192 660 LINE",
"310 814 LINE",
"360 814 LINE",
"242 660 LINE"
);
},
{
closed = 1;
nodes = (
"428 660 LINE",
"310 814 LINE",
"360 814 LINE",
"478 660 LINE"
);
},
{
closed = 1;
nodes = (
"521 600 LINE",
"624 497 LINE",
"624 103 LINE",
"521 0 LINE",
"153 0 LINE",
"50 103 LINE",
"50 497 LINE",
"153 600 LINE"
);
},
{
closed = 1;
nodes = (
"384 560 LINE",
"290 560 LINE",
"290 40 LINE",
"384 40 LINE"
);
}
);
width = 674;
}
);
unicode = 00F4;
},
{
color = 3;
glyphname = odieresis;
layers = (
{
layerId = "DC22FA31-3913-472E-8859-7ACF2F9D1801";
paths = (
{
closed = 1;
nodes = (
"153 600 LINE",
"50 497 LINE",
"50 103 LINE",
"153 0 LINE",
"521 0 LINE",
"624 103 LINE",
"624 497 LINE",
"521 600 LINE"
);
},
{
closed = 1;
nodes = (
"384 40 LINE",
"290 40 LINE",
"290 560 LINE",
"384 560 LINE"
);
},
{
closed = 1;
nodes = (
"172 737 LINE",
"229 680 LINE",
"286 737 LINE",
"229 794 LINE"
);
},
{
closed = 1;
nodes = (
"391 737 LINE",
"448 680 LINE",
"505 737 LINE",
"448 794 LINE"
);
}
);
width = 674;
}
);
unicode = 00F6;
},
{
color = 3;
glyphname = ograve;
layers = (
{
layerId = "DC22FA31-3913-472E-8859-7ACF2F9D1801";
paths = (
{
closed = 1;
nodes = (
"153 600 LINE",
"50 497 LINE",
"50 103 LINE",
"153 0 LINE",
"521 0 LINE",
"624 103 LINE",
"624 497 LINE",
"521 600 LINE"
);
},
{
closed = 1;
nodes = (
"384 40 LINE",
"290 40 LINE",
"290 560 LINE",
"384 560 LINE"
);
},
{
closed = 1;
nodes = (
"343 660 LINE",
"391 660 LINE",
"300 844 LINE",
"252 844 LINE"
);
}
);
width = 674;
}
);
unicode = 00F2;
},
{
color = 3;
glyphname = ohungarumlaut;
layers = (
{
layerId = "DC22FA31-3913-472E-8859-7ACF2F9D1801";
paths = (
{
closed = 1;
nodes = (
"153 600 LINE",
"50 497 LINE",
"50 103 LINE",
"153 0 LINE",
"521 0 LINE",
"624 103 LINE",
"624 497 LINE",
"521 600 LINE"
);
},
{
closed = 1;
nodes = (
"384 40 LINE",
"290 40 LINE",
"290 560 LINE",
"384 560 LINE"
);
},
{
closed = 1;
nodes = (
"392 850 LINE",
"344 850 LINE",
"253 666 LINE",
"301 666 LINE"
);
},
{
closed = 1;
nodes = (
"537 850 LINE",
"489 850 LINE",
"398 666 LINE",
"446 666 LINE"
);
}
);
width = 674;
}
);
unicode = 0151;
},
{
color = 3;
glyphname = omacron;
layers = (
{
layerId = "DC22FA31-3913-472E-8859-7ACF2F9D1801";
paths = (
{
closed = 1;
nodes = (
"153 600 LINE",
"50 497 LINE",
"50 103 LINE",
"153 0 LINE",
"521 0 LINE",
"624 103 LINE",
"624 497 LINE",
"521 600 LINE"
);
},
{
closed = 1;
nodes = (
"384 40 LINE",
"290 40 LINE",
"290 560 LINE",
"384 560 LINE"
);
},
{
closed = 1;
nodes = (
"167 680 LINE",
"507 680 LINE",
"507 720 LINE",
"167 720 LINE"
);
}
);
width = 674;
}
);
unicode = 014D;
},
{
color = 3;
glyphname = oslash;
layers = (
{
layerId = "FA526921-47BD-453E-AD76-46AFD4F3DD52";
name = "Bold Jan 8 16, 14:54";
paths = (
{
closed = 1;
nodes = (
"401 336 LINE",
"399 393 LINE",
"262 245 LINE",
"263 187 LINE"
);
},
{
closed = 1;
nodes = (
"138 52 LINE",
"108 79 LINE",
"-4 -41 LINE",
"26 -69 LINE"
);
},
{
closed = 1;
nodes = (
"685 642 LINE",
"654 669 LINE",
"540 546 LINE",
"570 518 LINE"
);
}
);
width = 674;
},
{
layerId = "3A897344-5046-4E53-A686-C97ED0ED09A4";
name = "Regular Jan 8 16, 14:54";
paths = (
{
closed = 1;
nodes = (
"540 546 LINE",
"654 669 LINE",
"685 642 LINE",
"570 518 LINE"
);
},
{
closed = 1;
nodes = (
"262 245 LINE",
"399 393 LINE",
"401 336 LINE",
"263 187 LINE"
);
},
{
closed = 1;
nodes = (
"138 52 LINE",
"26 -69 LINE",
"-4 -41 LINE",
"108 79 LINE"
);
}
);
width = 674;
},
{
layerId = "DC22FA31-3913-472E-8859-7ACF2F9D1801";
paths = (
{
closed = 1;
nodes = (
"-3 -40 LINE",
"26 -69 LINE",
"677 634 LINE",
"648 663 LINE"
);
},
{
closed = 1;
nodes = (
"153 600 LINE",
"50 497 LINE",
"50 103 LINE",
"153 0 LINE",
"521 0 LINE",
"624 103 LINE",
"624 497 LINE",
"521 600 LINE"
);
},
{
closed = 1;
nodes = (
"384 40 LINE",
"290 40 LINE",
"290 560 LINE",
"384 560 LINE"
);
}
);
width = 674;
}
);
unicode = 00F8;
},
{
color = 3;
glyphname = otilde;
layers = (
{
layerId = "DC22FA31-3913-472E-8859-7ACF2F9D1801";
paths = (
{
closed = 1;
nodes = (
"153 600 LINE",
"50 497 LINE",
"50 103 LINE",
"153 0 LINE",
"521 0 LINE",
"624 103 LINE",
"624 497 LINE",
"521 600 LINE"
);
},
{
closed = 1;
nodes = (
"384 40 LINE",
"290 40 LINE",
"290 560 LINE",
"384 560 LINE"
);
},
{
closed = 1;
nodes = (
"336 763 LINE",
"227 763 LINE",
"155 691 LINE",
"186 660 LINE",
"249 723 LINE",
"314 723 LINE",
"377 660 LINE",
"486 660 LINE",
"558 732 LINE",
"527 763 LINE",
"464 700 LINE",
"399 700 LINE"
);
}
);
width = 674;
}
);
unicode = 00F5;
},
